{"glyphs":{"0":{"ha":847,"x_min":60,"x_max":788,"o":"m 60 492 q 151 872 60 738 q 422 1007 242 1007 q 696 872 604 1007 q 788 492 788 738 q 696 111 788 246 q 422 -24 604 -24 q 151 111 242 -24 q 60 492 60 246 m 664 492 q 608 798 664 693 q 424 903 551 903 q 238 799 294 903 q 182 492 182 694 q 238 185 182 290 q 424 81 294 81 q 608 185 551 81 q 664 492 664 290 z "},"1":{"ha":847,"x_min":99,"x_max":749,"o":"m 749 103 l 749 0 l 146 0 l 146 101 l 413 101 l 413 857 l 147 719 l 99 808 l 426 983 l 535 983 l 535 103 l 749 103 z "},"2":{"ha":847,"x_min":67,"x_max":771,"o":"m 739 725 q 697 548 739 626 q 558 375 656 469 q 247 103 460 281 l 771 103 l 771 0 l 85 0 l 85 96 q 427 399 325 303 q 572 565 529 496 q 614 714 614 635 q 556 851 614 799 q 396 904 497 904 q 259 875 318 904 q 140 788 200 846 l 67 851 q 218 967 140 929 q 406 1006 296 1006 q 585 967 510 1006 q 700 865 661 929 q 739 725 739 801 z "},"3":{"ha":847,"x_min":40,"x_max":750,"o":"m 719 747 q 667 589 719 643 q 538 518 615 535 l 538 515 q 688 448 626 506 q 750 278 750 390 q 707 121 750 189 q 582 15 664 53 q 385 -24 500 -24 q 190 10 271 -24 q 40 113 110 43 l 106 185 q 233 103 169 128 q 385 79 296 79 q 560 133 496 79 q 625 282 625 186 q 570 419 625 375 q 418 463 515 463 l 265 463 l 265 563 l 396 563 q 543 605 488 563 q 599 733 599 647 q 544 860 599 815 q 390 906 490 906 q 255 883 315 906 q 133 814 194 861 l 69 883 q 222 977 143 947 q 401 1007 301 1007 q 573 974 501 1007 q 682 881 644 940 q 719 747 719 822 z "},"4":{"ha":847,"x_min":35,"x_max":801,"o":"m 801 239 l 658 239 l 658 0 l 540 0 l 540 239 l 35 239 l 35 332 l 374 983 l 503 983 l 172 342 l 539 342 l 539 618 l 658 618 l 658 342 l 801 342 l 801 239 z "},"5":{"ha":847,"x_min":56,"x_max":771,"o":"m 56 113 l 125 185 q 251 104 190 128 q 397 81 313 81 q 580 142 514 81 q 646 310 646 204 q 588 462 646 408 q 429 515 531 515 q 317 503 367 515 q 219 467 268 492 l 136 467 l 136 983 l 718 983 l 718 881 l 253 881 l 253 572 q 461 614 351 614 q 686 532 601 614 q 771 313 771 450 q 726 136 771 213 q 598 18 682 60 q 399 -24 514 -24 q 206 10 286 -24 q 56 113 125 43 z "},"6":{"ha":847,"x_min":64,"x_max":789,"o":"m 789 335 q 747 149 789 231 q 624 22 704 68 q 431 -24 543 -24 q 155 100 246 -24 q 64 435 64 224 q 113 738 64 608 q 257 937 163 867 q 486 1007 351 1007 q 609 990 556 1007 q 714 942 663 974 l 669 857 q 585 895 628 882 q 488 908 542 908 q 276 807 353 908 q 189 526 200 706 q 474 643 306 643 q 637 606 565 643 q 749 498 708 568 q 789 335 789 428 m 665 331 q 608 492 665 435 q 450 549 550 549 q 188 414 294 549 q 248 164 190 250 q 432 78 306 78 q 605 145 544 78 q 665 331 665 213 z "},"7":{"ha":847,"x_min":50,"x_max":803,"o":"m 803 886 q 508 466 613 686 q 383 0 404 246 l 242 0 q 380 469 279 251 q 654 879 481 686 l 50 879 l 50 983 l 803 983 l 803 886 z "},"8":{"ha":847,"x_min":57,"x_max":790,"o":"m 790 253 q 746 110 790 172 q 618 12 701 47 q 421 -24 535 -24 q 225 12 307 -24 q 100 110 143 47 q 57 251 57 172 q 110 416 57 351 q 275 526 163 481 q 144 619 183 567 q 104 756 104 671 q 147 887 104 829 q 264 976 190 944 q 425 1007 338 1007 q 585 978 513 1007 q 701 892 658 949 q 744 760 744 836 q 702 624 744 682 q 569 515 660 565 q 740 413 690 471 q 790 253 790 354 m 399 574 l 471 549 q 587 641 551 594 q 622 751 622 688 q 567 871 622 826 q 425 915 511 915 q 283 871 340 915 q 225 751 225 826 q 264 649 225 689 q 399 574 303 608 m 665 260 q 644 349 665 314 q 578 408 624 383 q 449 464 533 433 l 374 490 q 228 399 272 454 q 183 263 183 344 q 247 123 183 172 q 424 74 310 74 q 601 124 538 74 q 665 260 665 174 z "},"9":{"ha":847,"x_min":58,"x_max":783,"o":"m 783 553 q 714 245 783 374 q 509 49 644 117 q 179 -19 374 -19 l 179 82 q 519 182 396 82 q 658 461 643 282 q 376 344 542 344 q 214 382 286 344 q 100 490 142 419 q 58 660 58 561 q 101 838 58 760 q 227 962 144 917 q 422 1007 310 1007 q 694 889 604 1007 q 783 553 783 771 m 660 569 q 603 824 658 742 q 421 907 547 907 q 244 841 306 907 q 182 664 182 775 q 242 497 182 556 q 404 439 301 439 q 548 474 483 439 q 660 569 613 508 z "},"\r":{"ha":358,"x_min":0,"x_max":0,"o":""}," ":{"ha":358,"x_min":0,"x_max":0,"o":""},"A":{"ha":917,"x_min":6,"x_max":910,"o":"m 688 239 l 226 239 l 135 0 l 6 0 l 394 983 l 524 983 l 910 0 l 776 0 l 688 239 m 261 335 l 653 335 l 457 867 l 261 335 z "},"Á":{"ha":917,"x_min":6,"x_max":910,"o":"m 688 239 l 226 239 l 135 0 l 6 0 l 394 983 l 524 983 l 910 0 l 776 0 l 688 239 m 261 335 l 653 335 l 457 867 l 261 335 m 368 1074 l 328 1138 l 567 1293 l 617 1204 l 368 1074 z "},"Ă":{"ha":917,"x_min":6,"x_max":910,"o":"m 688 239 l 226 239 l 135 0 l 6 0 l 394 983 l 524 983 l 910 0 l 776 0 l 688 239 m 261 335 l 653 335 l 457 867 l 261 335 m 658 1243 q 594 1119 646 1164 q 458 1074 542 1074 q 323 1119 375 1074 q 258 1243 271 1164 l 329 1251 q 375 1182 342 1207 q 458 1157 408 1157 q 542 1181 508 1157 q 589 1251 575 1206 l 658 1243 z "},"Â":{"ha":917,"x_min":6,"x_max":910,"o":"m 688 239 l 226 239 l 135 0 l 6 0 l 394 983 l 524 983 l 910 0 l 776 0 l 688 239 m 261 335 l 653 335 l 457 867 l 261 335 m 679 1131 l 635 1076 l 460 1194 l 286 1075 l 242 1131 l 413 1268 l 506 1268 l 679 1131 z "},"Ä":{"ha":917,"x_min":6,"x_max":910,"o":"m 688 239 l 226 239 l 135 0 l 6 0 l 394 983 l 524 983 l 910 0 l 776 0 l 688 239 m 261 335 l 653 335 l 457 867 l 261 335 m 265 1183 q 282 1235 265 1215 q 336 1254 299 1254 q 406 1183 406 1254 q 336 1114 406 1114 q 282 1133 299 1114 q 265 1183 265 1153 m 522 1183 q 593 1254 522 1254 q 646 1235 629 1254 q 663 1183 663 1215 q 646 1133 663 1153 q 593 1114 629 1114 q 522 1183 522 1114 z "},"À":{"ha":917,"x_min":6,"x_max":910,"o":"m 688 239 l 226 239 l 135 0 l 6 0 l 394 983 l 524 983 l 910 0 l 776 0 l 688 239 m 261 335 l 653 335 l 457 867 l 261 335 m 351 1293 l 589 1138 l 550 1074 l 300 1204 l 351 1293 z "},"Ā":{"ha":917,"x_min":6,"x_max":910,"o":"m 688 239 l 226 239 l 135 0 l 6 0 l 394 983 l 524 983 l 910 0 l 776 0 l 688 239 m 261 335 l 653 335 l 457 867 l 261 335 m 654 1117 l 272 1117 l 272 1199 l 654 1199 l 654 1117 z "},"Ą":{"ha":917,"x_min":6,"x_max":914,"o":"m 914 -296 q 786 -331 857 -331 q 678 -297 721 -331 q 636 -200 636 -262 q 673 -91 636 -143 q 775 3 710 -39 l 688 239 l 226 239 l 135 0 l 6 0 l 394 983 l 524 983 l 910 0 l 868 0 q 760 -95 794 -51 q 725 -185 725 -139 q 745 -235 725 -218 q 799 -253 765 -253 q 889 -229 842 -253 l 914 -296 m 261 335 l 653 335 l 457 867 l 261 335 z "},"Å":{"ha":917,"x_min":6,"x_max":910,"o":"m 688 239 l 226 239 l 135 0 l 6 0 l 376 939 q 324 990 343 958 q 306 1063 306 1022 q 348 1167 306 1128 q 460 1207 390 1207 q 572 1167 529 1207 q 614 1063 614 1128 q 595 989 614 1022 q 542 938 576 956 l 910 0 l 776 0 l 688 239 m 385 1063 q 405 1005 385 1025 q 460 985 425 985 q 513 1005 493 985 q 533 1063 533 1025 q 515 1122 533 1101 q 460 1142 496 1142 q 404 1122 424 1142 q 385 1063 385 1101 m 457 867 l 261 335 l 653 335 l 457 867 z "},"Ã":{"ha":917,"x_min":6,"x_max":910,"o":"m 688 239 l 226 239 l 135 0 l 6 0 l 394 983 l 524 983 l 910 0 l 776 0 l 688 239 m 261 335 l 653 335 l 457 867 l 261 335 m 242 1117 q 382 1233 293 1233 q 426 1224 406 1233 q 472 1196 447 1214 q 490 1185 476 1193 q 514 1172 503 1176 q 535 1168 525 1168 q 577 1183 558 1168 q 615 1231 596 1197 l 676 1204 q 618 1117 653 1146 q 536 1089 583 1089 q 492 1099 513 1089 q 447 1125 471 1108 q 413 1146 426 1139 q 383 1153 399 1153 q 341 1138 360 1153 q 303 1092 322 1124 l 242 1117 z "},"Æ":{"ha":1238,"x_min":6,"x_max":1211,"o":"m 1211 101 l 1211 0 l 742 0 l 663 239 l 226 239 l 135 0 l 6 0 l 394 983 l 1135 983 l 1135 885 l 558 885 l 675 554 l 1089 554 l 1089 460 l 708 460 l 833 101 l 1211 101 m 632 335 l 457 867 l 261 335 l 632 335 z "},"B":{"ha":871,"x_min":125,"x_max":810,"o":"m 767 743 q 717 597 767 656 q 589 521 667 539 l 589 518 q 750 442 690 506 q 810 272 810 379 q 717 66 810 132 q 478 0 625 0 l 125 0 l 125 983 l 471 983 q 685 926 604 983 q 767 743 767 869 m 244 889 l 244 557 l 442 557 q 588 601 533 557 q 643 729 643 644 q 443 889 643 889 l 244 889 m 244 468 l 244 96 l 453 96 q 620 141 557 96 q 683 285 683 186 q 625 422 683 375 q 460 468 567 468 l 244 468 z "},"C":{"ha":936,"x_min":68,"x_max":906,"o":"m 889 888 l 817 808 q 699 878 765 854 q 560 903 633 903 q 288 790 379 903 q 196 493 196 678 q 288 197 196 310 q 557 85 379 85 q 707 115 636 85 q 831 196 778 144 l 906 114 q 751 13 842 50 q 553 -24 660 -24 q 290 42 399 -24 q 124 224 181 107 q 68 493 68 340 q 124 763 68 646 q 290 944 181 879 q 556 1008 400 1008 q 740 977 654 1008 q 889 888 826 946 z "},"Ć":{"ha":936,"x_min":68,"x_max":906,"o":"m 889 888 l 817 808 q 699 878 765 854 q 560 903 633 903 q 288 790 379 903 q 196 493 196 678 q 288 197 196 310 q 557 85 379 85 q 707 115 636 85 q 831 196 778 144 l 906 114 q 751 13 842 50 q 553 -24 660 -24 q 290 42 399 -24 q 124 224 181 107 q 68 493 68 340 q 124 763 68 646 q 290 944 181 879 q 556 1008 400 1008 q 740 977 654 1008 q 889 888 826 946 m 456 1074 l 415 1138 l 654 1293 l 704 1204 l 456 1074 z "},"Č":{"ha":936,"x_min":68,"x_max":906,"o":"m 889 888 l 817 808 q 699 878 765 854 q 560 903 633 903 q 288 790 379 903 q 196 493 196 678 q 288 197 196 310 q 557 85 379 85 q 707 115 636 85 q 831 196 778 144 l 906 114 q 751 13 842 50 q 553 -24 660 -24 q 290 42 399 -24 q 124 224 181 107 q 68 493 68 340 q 124 763 68 646 q 290 944 181 879 q 556 1008 400 1008 q 740 977 654 1008 q 889 888 826 946 m 765 1222 l 592 1085 l 499 1085 l 328 1222 l 372 1278 l 546 1160 l 721 1276 l 765 1222 z "},"Ç":{"ha":936,"x_min":68,"x_max":906,"o":"m 725 -197 q 677 -299 725 -265 q 557 -333 629 -333 q 414 -300 474 -333 l 443 -236 q 553 -261 493 -261 q 615 -245 593 -261 q 636 -199 636 -229 q 575 -146 636 -146 q 521 -153 549 -146 l 465 -153 l 517 -22 q 273 52 374 -15 q 120 233 172 119 q 68 493 68 347 q 124 763 68 646 q 290 944 181 879 q 556 1008 400 1008 q 740 977 654 1008 q 889 888 826 946 l 817 808 q 699 878 765 854 q 560 903 633 903 q 288 790 379 903 q 196 493 196 678 q 288 197 196 310 q 557 85 379 85 q 707 115 636 85 q 831 196 778 144 l 906 114 q 769 21 849 57 q 594 -22 689 -15 l 571 -89 q 610 -86 585 -86 q 692 -115 660 -86 q 725 -197 725 -144 z "},"Ĉ":{"ha":936,"x_min":68,"x_max":906,"o":"m 889 888 l 817 808 q 699 878 765 854 q 560 903 633 903 q 288 790 379 903 q 196 493 196 678 q 288 197 196 310 q 557 85 379 85 q 707 115 636 85 q 831 196 778 144 l 906 114 q 751 13 842 50 q 553 -24 660 -24 q 290 42 399 -24 q 124 224 181 107 q 68 493 68 340 q 124 763 68 646 q 290 944 181 879 q 556 1008 400 1008 q 740 977 654 1008 q 889 888 826 946 m 767 1131 l 722 1076 l 547 1194 l 374 1075 l 329 1131 l 500 1268 l 593 1268 l 767 1131 z "},"Ċ":{"ha":936,"x_min":68,"x_max":906,"o":"m 889 888 l 817 808 q 699 878 765 854 q 560 903 633 903 q 288 790 379 903 q 196 493 196 678 q 288 197 196 310 q 557 85 379 85 q 707 115 636 85 q 831 196 778 144 l 906 114 q 751 13 842 50 q 553 -24 660 -24 q 290 42 399 -24 q 124 224 181 107 q 68 493 68 340 q 124 763 68 646 q 290 944 181 879 q 556 1008 400 1008 q 740 977 654 1008 q 889 888 826 946 m 469 1194 q 547 1269 469 1269 q 624 1194 624 1269 q 606 1142 624 1163 q 547 1122 588 1122 q 488 1142 506 1122 q 469 1194 469 1163 z "},"D":{"ha":1017,"x_min":125,"x_max":949,"o":"m 949 493 q 815 126 949 253 q 442 0 681 0 l 125 0 l 125 983 l 439 983 q 816 862 683 983 q 949 493 949 740 m 247 882 l 247 103 l 429 103 q 722 199 621 103 q 822 493 822 294 q 431 882 822 882 l 247 882 z "},"Ð":{"ha":1017,"x_min":14,"x_max":949,"o":"m 949 493 q 815 126 949 253 q 442 0 681 0 l 125 0 l 125 450 l 14 450 l 14 532 l 125 532 l 125 983 l 439 983 q 816 862 683 983 q 949 493 949 740 m 822 493 q 431 882 822 882 l 247 882 l 247 532 l 472 532 l 472 450 l 247 450 l 247 103 l 429 103 q 722 199 621 103 q 822 493 822 294 z "},"Ď":{"ha":1017,"x_min":125,"x_max":949,"o":"m 949 493 q 815 126 949 253 q 442 0 681 0 l 125 0 l 125 983 l 439 983 q 816 862 683 983 q 949 493 949 740 m 247 882 l 247 103 l 429 103 q 722 199 621 103 q 822 493 822 294 q 431 882 822 882 l 247 882 m 686 1222 l 513 1085 l 419 1085 l 249 1222 l 293 1278 l 467 1160 l 642 1276 l 686 1222 z "},"Đ":{"ha":1017,"x_min":14,"x_max":949,"o":"m 949 493 q 815 126 949 253 q 442 0 681 0 l 125 0 l 125 450 l 14 450 l 14 532 l 125 532 l 125 983 l 439 983 q 816 862 683 983 q 949 493 949 740 m 822 493 q 431 882 822 882 l 247 882 l 247 532 l 472 532 l 472 450 l 247 450 l 247 103 l 429 103 q 722 199 621 103 q 822 493 822 294 z "},"E":{"ha":782,"x_min":125,"x_max":744,"o":"m 721 885 l 247 885 l 247 554 l 660 554 l 660 460 l 247 460 l 247 101 l 744 101 l 744 0 l 125 0 l 125 983 l 721 983 l 721 885 z "},"É":{"ha":782,"x_min":125,"x_max":744,"o":"m 721 885 l 247 885 l 247 554 l 660 554 l 660 460 l 247 460 l 247 101 l 744 101 l 744 0 l 125 0 l 125 983 l 721 983 l 721 885 m 353 1074 l 313 1138 l 551 1293 l 601 1204 l 353 1074 z "},"Ĕ":{"ha":782,"x_min":125,"x_max":744,"o":"m 721 885 l 247 885 l 247 554 l 660 554 l 660 460 l 247 460 l 247 101 l 744 101 l 744 0 l 125 0 l 125 983 l 721 983 l 721 885 m 644 1243 q 580 1119 632 1164 q 444 1074 528 1074 q 309 1119 361 1074 q 244 1243 257 1164 l 315 1251 q 361 1182 328 1207 q 444 1157 394 1157 q 528 1181 494 1157 q 575 1251 561 1206 l 644 1243 z "},"Ě":{"ha":782,"x_min":125,"x_max":744,"o":"m 721 885 l 247 885 l 247 554 l 660 554 l 660 460 l 247 460 l 247 101 l 744 101 l 744 0 l 125 0 l 125 983 l 721 983 l 721 885 m 664 1222 l 490 1085 l 397 1085 l 226 1222 l 271 1278 l 444 1160 l 619 1276 l 664 1222 z "},"Ê":{"ha":782,"x_min":125,"x_max":744,"o":"m 721 885 l 247 885 l 247 554 l 660 554 l 660 460 l 247 460 l 247 101 l 744 101 l 744 0 l 125 0 l 125 983 l 721 983 l 721 885 m 664 1131 l 619 1076 l 444 1194 l 271 1075 l 226 1131 l 397 1268 l 490 1268 l 664 1131 z "},"Ë":{"ha":782,"x_min":125,"x_max":744,"o":"m 721 885 l 247 885 l 247 554 l 660 554 l 660 460 l 247 460 l 247 101 l 744 101 l 744 0 l 125 0 l 125 983 l 721 983 l 721 885 m 250 1183 q 267 1235 250 1215 q 321 1254 283 1254 q 390 1183 390 1254 q 321 1114 390 1114 q 267 1133 283 1114 q 250 1183 250 1153 m 507 1183 q 578 1254 507 1254 q 631 1235 614 1254 q 647 1183 647 1215 q 631 1133 647 1153 q 578 1114 614 1114 q 507 1183 507 1114 z "},"Ė":{"ha":782,"x_min":125,"x_max":744,"o":"m 721 885 l 247 885 l 247 554 l 660 554 l 660 460 l 247 460 l 247 101 l 744 101 l 744 0 l 125 0 l 125 983 l 721 983 l 721 885 m 368 1194 q 446 1269 368 1269 q 522 1194 522 1269 q 504 1142 522 1163 q 446 1122 486 1122 q 386 1142 404 1122 q 368 1194 368 1163 z "},"È":{"ha":782,"x_min":125,"x_max":744,"o":"m 721 885 l 247 885 l 247 554 l 660 554 l 660 460 l 247 460 l 247 101 l 744 101 l 744 0 l 125 0 l 125 983 l 721 983 l 721 885 m 336 1293 l 574 1138 l 535 1074 l 285 1204 l 336 1293 z "},"Ē":{"ha":782,"x_min":125,"x_max":744,"o":"m 721 885 l 247 885 l 247 554 l 660 554 l 660 460 l 247 460 l 247 101 l 744 101 l 744 0 l 125 0 l 125 983 l 721 983 l 721 885 m 639 1117 l 257 1117 l 257 1199 l 639 1199 l 639 1117 z "},"Ę":{"ha":782,"x_min":125,"x_max":744,"o":"m 540 -185 q 560 -235 540 -218 q 614 -253 581 -253 q 704 -229 657 -253 l 729 -296 q 601 -331 672 -331 q 494 -297 536 -331 q 451 -200 451 -262 q 487 -93 451 -144 q 585 0 522 -42 l 125 0 l 125 983 l 721 983 l 721 885 l 247 885 l 247 554 l 660 554 l 660 460 l 247 460 l 247 101 l 744 101 l 744 0 l 683 0 q 575 -95 610 -51 q 540 -185 540 -139 z "},"F":{"ha":747,"x_min":125,"x_max":722,"o":"m 722 882 l 249 882 l 249 546 l 668 546 l 668 446 l 249 446 l 249 0 l 125 0 l 125 983 l 722 983 l 722 882 z "},"G":{"ha":1035,"x_min":68,"x_max":922,"o":"m 68 493 q 126 762 68 646 q 297 942 185 878 q 563 1007 408 1007 q 747 975 660 1007 q 894 886 833 943 l 825 807 q 706 876 772 851 q 567 901 639 901 q 290 789 385 901 q 194 493 194 676 q 285 190 194 301 q 561 79 376 79 q 691 94 633 79 q 808 135 749 108 l 808 403 l 581 403 l 581 499 l 922 499 l 922 68 q 755 1 842 25 q 560 -24 668 -24 q 290 41 401 -24 q 124 222 179 106 q 68 493 68 339 z "},"Ğ":{"ha":1035,"x_min":68,"x_max":922,"o":"m 68 493 q 126 762 68 646 q 297 942 185 878 q 563 1007 408 1007 q 747 975 660 1007 q 894 886 833 943 l 825 807 q 706 876 772 851 q 567 901 639 901 q 290 789 385 901 q 194 493 194 676 q 285 190 194 301 q 561 79 376 79 q 691 94 633 79 q 808 135 749 108 l 808 403 l 581 403 l 581 499 l 922 499 l 922 68 q 755 1 842 25 q 560 -24 668 -24 q 290 41 401 -24 q 124 222 179 106 q 68 493 68 339 m 757 1243 q 692 1119 744 1164 q 557 1074 640 1074 q 422 1119 474 1074 q 357 1243 369 1164 l 428 1251 q 474 1182 440 1207 q 557 1157 507 1157 q 640 1181 607 1157 q 688 1251 674 1206 l 757 1243 z "},"Ĝ":{"ha":1035,"x_min":68,"x_max":922,"o":"m 68 493 q 126 762 68 646 q 297 942 185 878 q 563 1007 408 1007 q 747 975 660 1007 q 894 886 833 943 l 825 807 q 706 876 772 851 q 567 901 639 901 q 290 789 385 901 q 194 493 194 676 q 285 190 194 301 q 561 79 376 79 q 691 94 633 79 q 808 135 749 108 l 808 403 l 581 403 l 581 499 l 922 499 l 922 68 q 755 1 842 25 q 560 -24 668 -24 q 290 41 401 -24 q 124 222 179 106 q 68 493 68 339 m 778 1131 l 733 1076 l 558 1194 l 385 1075 l 340 1131 l 511 1268 l 604 1268 l 778 1131 z "},"Ģ":{"ha":1035,"x_min":68,"x_max":922,"o":"m 68 493 q 126 762 68 646 q 297 942 185 878 q 563 1007 408 1007 q 747 975 660 1007 q 894 886 833 943 l 825 807 q 706 876 772 851 q 567 901 639 901 q 290 789 385 901 q 194 493 194 676 q 285 190 194 301 q 561 79 376 79 q 691 94 633 79 q 808 135 749 108 l 808 403 l 581 403 l 581 499 l 922 499 l 922 68 q 755 1 842 25 q 560 -24 668 -24 q 290 41 401 -24 q 124 222 179 106 q 68 493 68 339 m 493 -346 q 544 -207 540 -272 q 504 -150 504 -197 q 574 -87 504 -87 q 644 -154 644 -87 q 622 -252 644 -200 q 544 -371 599 -304 l 493 -346 z "},"Ġ":{"ha":1035,"x_min":68,"x_max":922,"o":"m 68 493 q 126 762 68 646 q 297 942 185 878 q 563 1007 408 1007 q 747 975 660 1007 q 894 886 833 943 l 825 807 q 706 876 772 851 q 567 901 639 901 q 290 789 385 901 q 194 493 194 676 q 285 190 194 301 q 561 79 376 79 q 691 94 633 79 q 808 135 749 108 l 808 403 l 581 403 l 581 499 l 922 499 l 922 68 q 755 1 842 25 q 560 -24 668 -24 q 290 41 401 -24 q 124 222 179 106 q 68 493 68 339 m 481 1194 q 558 1269 481 1269 q 635 1194 635 1269 q 617 1142 635 1163 q 558 1122 599 1122 q 499 1142 517 1122 q 481 1194 481 1163 z "},"H":{"ha":1026,"x_min":125,"x_max":903,"o":"m 903 0 l 779 0 l 779 457 l 249 457 l 249 0 l 125 0 l 125 983 l 249 983 l 249 557 l 779 557 l 779 983 l 903 983 l 903 0 z "},"Ħ":{"ha":1026,"x_min":11,"x_max":1022,"o":"m 1022 750 l 903 750 l 903 0 l 779 0 l 779 457 l 249 457 l 249 0 l 125 0 l 125 750 l 11 750 l 11 832 l 125 832 l 125 983 l 249 983 l 249 832 l 779 832 l 779 983 l 903 983 l 903 832 l 1022 832 l 1022 750 m 779 750 l 249 750 l 249 557 l 779 557 l 779 750 z "},"Ĥ":{"ha":1026,"x_min":125,"x_max":903,"o":"m 903 0 l 779 0 l 779 457 l 249 457 l 249 0 l 125 0 l 125 983 l 249 983 l 249 557 l 779 557 l 779 983 l 903 983 l 903 0 m 733 1131 l 689 1076 l 514 1194 l 340 1075 l 296 1131 l 467 1268 l 560 1268 l 733 1131 z "},"I":{"ha":506,"x_min":75,"x_max":431,"o":"m 314 94 l 431 94 l 431 0 l 75 0 l 75 94 l 192 94 l 192 892 l 75 892 l 75 983 l 431 983 l 431 892 l 314 892 l 314 94 z "},"Ĳ":{"ha":1086,"x_min":75,"x_max":974,"o":"m 314 94 l 431 94 l 431 0 l 75 0 l 75 94 l 192 94 l 192 892 l 75 892 l 75 983 l 431 983 l 431 892 l 314 892 l 314 94 m 514 24 l 560 114 q 617 92 585 100 q 683 83 650 83 q 810 136 771 83 q 850 279 850 189 l 850 983 l 974 983 l 974 281 q 903 62 974 147 q 690 -24 833 -24 q 514 24 592 -24 z "},"Í":{"ha":506,"x_min":75,"x_max":431,"o":"m 314 94 l 431 94 l 431 0 l 75 0 l 75 94 l 192 94 l 192 892 l 75 892 l 75 983 l 431 983 l 431 892 l 314 892 l 314 94 m 163 1074 l 122 1138 l 361 1293 l 411 1204 l 163 1074 z "},"Ĭ":{"ha":506,"x_min":53,"x_max":453,"o":"m 314 94 l 431 94 l 431 0 l 75 0 l 75 94 l 192 94 l 192 892 l 75 892 l 75 983 l 431 983 l 431 892 l 314 892 l 314 94 m 453 1243 q 388 1119 440 1164 q 253 1074 336 1074 q 117 1119 169 1074 q 53 1243 65 1164 l 124 1251 q 169 1182 136 1207 q 253 1157 203 1157 q 336 1181 303 1157 q 383 1251 369 1206 l 453 1243 z "},"Î":{"ha":506,"x_min":36,"x_max":474,"o":"m 314 94 l 431 94 l 431 0 l 75 0 l 75 94 l 192 94 l 192 892 l 75 892 l 75 983 l 431 983 l 431 892 l 314 892 l 314 94 m 474 1131 l 429 1076 l 254 1194 l 81 1075 l 36 1131 l 207 1268 l 300 1268 l 474 1131 z "},"Ï":{"ha":506,"x_min":60,"x_max":457,"o":"m 314 94 l 431 94 l 431 0 l 75 0 l 75 94 l 192 94 l 192 892 l 75 892 l 75 983 l 431 983 l 431 892 l 314 892 l 314 94 m 60 1183 q 76 1235 60 1215 q 131 1254 93 1254 q 200 1183 200 1254 q 131 1114 200 1114 q 76 1133 93 1114 q 60 1183 60 1153 m 317 1183 q 388 1254 317 1254 q 440 1235 424 1254 q 457 1183 457 1215 q 440 1133 457 1153 q 388 1114 424 1114 q 317 1183 317 1114 z "},"İ":{"ha":506,"x_min":75,"x_max":431,"o":"m 314 94 l 431 94 l 431 0 l 75 0 l 75 94 l 192 94 l 192 892 l 75 892 l 75 983 l 431 983 l 431 892 l 314 892 l 314 94 m 176 1194 q 254 1269 176 1269 q 331 1194 331 1269 q 313 1142 331 1163 q 254 1122 294 1122 q 194 1142 213 1122 q 176 1194 176 1163 z "},"Ì":{"ha":506,"x_min":75,"x_max":431,"o":"m 314 94 l 431 94 l 431 0 l 75 0 l 75 94 l 192 94 l 192 892 l 75 892 l 75 983 l 431 983 l 431 892 l 314 892 l 314 94 m 146 1293 l 383 1138 l 344 1074 l 94 1204 l 146 1293 z "},"Ī":{"ha":506,"x_min":65,"x_max":447,"o":"m 314 94 l 431 94 l 431 0 l 75 0 l 75 94 l 192 94 l 192 892 l 75 892 l 75 983 l 431 983 l 431 892 l 314 892 l 314 94 m 447 1117 l 65 1117 l 65 1199 l 447 1199 l 447 1117 z "},"Į":{"ha":506,"x_min":64,"x_max":431,"o":"m 314 892 l 314 94 l 431 94 l 431 0 l 296 0 q 188 -95 222 -51 q 153 -185 153 -139 q 173 -235 153 -218 q 226 -253 193 -253 q 317 -229 269 -253 l 342 -296 q 214 -331 285 -331 q 106 -297 149 -331 q 64 -200 64 -262 q 99 -93 64 -144 q 197 0 135 -42 l 75 0 l 75 94 l 192 94 l 192 892 l 75 892 l 75 983 l 431 983 l 431 892 l 314 892 z "},"Ĩ":{"ha":506,"x_min":35,"x_max":469,"o":"m 314 94 l 431 94 l 431 0 l 75 0 l 75 94 l 192 94 l 192 892 l 75 892 l 75 983 l 431 983 l 431 892 l 314 892 l 314 94 m 35 1117 q 175 1233 86 1233 q 219 1224 199 1233 q 265 1196 240 1214 q 283 1185 269 1193 q 307 1172 296 1176 q 328 1168 318 1168 q 370 1183 351 1168 q 408 1231 389 1197 l 469 1204 q 411 1117 446 1146 q 329 1089 376 1089 q 285 1099 306 1089 q 240 1125 264 1108 q 206 1146 219 1139 q 176 1153 192 1153 q 134 1138 153 1153 q 96 1092 115 1124 l 35 1117 z "},"J":{"ha":581,"x_min":8,"x_max":468,"o":"m 8 24 l 54 114 q 112 92 79 100 q 178 83 144 83 q 305 136 265 83 q 344 279 344 189 l 344 983 l 468 983 l 468 281 q 398 62 468 147 q 185 -24 328 -24 q 8 24 86 -24 z "},"Ĵ":{"ha":581,"x_min":8,"x_max":626,"o":"m 8 24 l 54 114 q 112 92 79 100 q 178 83 144 83 q 305 136 265 83 q 344 279 344 189 l 344 983 l 468 983 l 468 281 q 398 62 468 147 q 185 -24 328 -24 q 8 24 86 -24 m 626 1131 l 582 1076 l 407 1194 l 233 1075 l 189 1131 l 360 1268 l 453 1268 l 626 1131 z "},"K":{"ha":860,"x_min":125,"x_max":858,"o":"m 314 451 l 249 383 l 249 0 l 125 0 l 125 983 l 249 983 l 249 533 l 679 983 l 824 983 l 392 533 l 858 0 l 708 0 l 314 451 z "},"Ķ":{"ha":860,"x_min":125,"x_max":858,"o":"m 314 451 l 249 383 l 249 0 l 125 0 l 125 983 l 249 983 l 249 533 l 679 983 l 824 983 l 392 533 l 858 0 l 708 0 l 314 451 m 385 -346 q 436 -207 432 -272 q 396 -150 396 -197 q 465 -87 396 -87 q 536 -154 536 -87 q 513 -252 536 -200 q 436 -371 490 -304 l 385 -346 z "},"L":{"ha":703,"x_min":125,"x_max":699,"o":"m 249 104 l 699 104 l 699 0 l 125 0 l 125 983 l 249 983 l 249 104 z "},"Ĺ":{"ha":703,"x_min":56,"x_max":699,"o":"m 249 104 l 699 104 l 699 0 l 125 0 l 125 983 l 249 983 l 249 104 m 96 1074 l 56 1138 l 294 1293 l 344 1204 l 96 1074 z "},"Ľ":{"ha":703,"x_min":125,"x_max":699,"o":"m 249 104 l 699 104 l 699 0 l 125 0 l 125 983 l 249 983 l 249 104 m 431 756 l 358 774 l 399 1007 l 497 979 l 431 756 z "},"Ļ":{"ha":703,"x_min":125,"x_max":699,"o":"m 249 104 l 699 104 l 699 0 l 125 0 l 125 983 l 249 983 l 249 104 m 332 -346 q 383 -207 379 -272 q 343 -150 343 -197 q 413 -87 343 -87 q 483 -154 483 -87 q 460 -252 483 -200 q 383 -371 438 -304 l 332 -346 z "},"Ŀ":{"ha":703,"x_min":125,"x_max":699,"o":"m 249 104 l 699 104 l 699 0 l 125 0 l 125 983 l 249 983 l 249 104 m 457 539 q 535 614 457 614 q 611 539 611 614 q 593 487 611 507 q 535 467 575 467 q 475 487 493 467 q 457 539 457 507 z "},"Ł":{"ha":703,"x_min":26,"x_max":699,"o":"m 699 104 l 699 0 l 125 0 l 125 363 l 124 361 l 67 331 l 26 406 l 125 458 l 125 983 l 249 983 l 249 524 l 521 668 l 560 593 l 249 428 l 249 104 l 699 104 z "},"M":{"ha":1282,"x_min":125,"x_max":1158,"o":"m 1158 0 l 1038 0 l 1040 840 l 1038 840 l 685 0 l 592 0 l 240 840 l 238 840 l 240 0 l 125 0 l 125 983 l 307 983 l 639 165 l 642 165 l 975 983 l 1158 983 l 1158 0 z "},"N":{"ha":1078,"x_min":125,"x_max":954,"o":"m 125 983 l 267 983 l 839 167 l 842 167 l 839 983 l 954 983 l 954 0 l 813 0 l 240 817 l 238 817 l 240 0 l 125 0 l 125 983 z "},"Ń":{"ha":1078,"x_min":125,"x_max":954,"o":"m 125 983 l 267 983 l 839 167 l 842 167 l 839 983 l 954 983 l 954 0 l 813 0 l 240 817 l 238 817 l 240 0 l 125 0 l 125 983 m 447 1074 l 407 1138 l 646 1293 l 696 1204 l 447 1074 z "},"Ň":{"ha":1078,"x_min":125,"x_max":954,"o":"m 125 983 l 267 983 l 839 167 l 842 167 l 839 983 l 954 983 l 954 0 l 813 0 l 240 817 l 238 817 l 240 0 l 125 0 l 125 983 m 758 1222 l 585 1085 l 492 1085 l 321 1222 l 365 1278 l 539 1160 l 714 1276 l 758 1222 z "},"Ņ":{"ha":1078,"x_min":125,"x_max":954,"o":"m 125 983 l 267 983 l 839 167 l 842 167 l 839 983 l 954 983 l 954 0 l 813 0 l 240 817 l 238 817 l 240 0 l 125 0 l 125 983 m 460 -346 q 511 -207 507 -272 q 471 -150 471 -197 q 540 -87 471 -87 q 611 -154 611 -87 q 588 -252 611 -200 q 511 -371 565 -304 l 460 -346 z "},"Ŋ":{"ha":1078,"x_min":125,"x_max":954,"o":"m 954 0 l 953 0 l 953 -124 q 744 -358 953 -358 q 667 -347 704 -358 l 688 -260 q 729 -264 704 -264 q 811 -230 788 -264 q 835 -125 835 -196 l 835 0 l 813 0 l 240 817 l 238 817 l 240 0 l 125 0 l 125 983 l 267 983 l 839 167 l 842 167 l 839 983 l 954 983 l 954 0 z "},"Ñ":{"ha":1078,"x_min":125,"x_max":954,"o":"m 125 983 l 267 983 l 839 167 l 842 167 l 839 983 l 954 983 l 954 0 l 813 0 l 240 817 l 238 817 l 240 0 l 125 0 l 125 983 m 321 1117 q 461 1233 372 1233 q 506 1224 485 1233 q 551 1196 526 1214 q 569 1185 556 1193 q 593 1172 582 1176 q 614 1168 604 1168 q 656 1183 638 1168 q 694 1231 675 1197 l 756 1204 q 697 1117 732 1146 q 615 1089 663 1089 q 571 1099 592 1089 q 526 1125 550 1108 q 492 1146 506 1139 q 463 1153 478 1153 q 420 1138 439 1153 q 382 1092 401 1124 l 321 1117 z "},"O":{"ha":1124,"x_min":68,"x_max":1054,"o":"m 68 492 q 126 761 68 644 q 296 942 185 878 q 561 1007 407 1007 q 826 942 715 1007 q 996 761 938 878 q 1054 492 1054 644 q 996 222 1054 339 q 826 41 938 106 q 561 -24 715 -24 q 296 41 407 -24 q 126 222 185 106 q 68 492 68 339 m 929 492 q 835 789 929 678 q 563 900 740 900 q 289 789 383 900 q 194 492 194 678 q 289 194 194 306 q 563 83 383 83 q 835 194 740 83 q 929 492 929 306 z "},"Ó":{"ha":1124,"x_min":68,"x_max":1054,"o":"m 68 492 q 126 761 68 644 q 296 942 185 878 q 561 1007 407 1007 q 826 942 715 1007 q 996 761 938 878 q 1054 492 1054 644 q 996 222 1054 339 q 826 41 938 106 q 561 -24 715 -24 q 296 41 407 -24 q 126 222 185 106 q 68 492 68 339 m 929 492 q 835 789 929 678 q 563 900 740 900 q 289 789 383 900 q 194 492 194 678 q 289 194 194 306 q 563 83 383 83 q 835 194 740 83 q 929 492 929 306 m 471 1074 l 431 1138 l 669 1293 l 719 1204 l 471 1074 z "},"Ŏ":{"ha":1124,"x_min":68,"x_max":1054,"o":"m 68 492 q 126 761 68 644 q 296 942 185 878 q 561 1007 407 1007 q 826 942 715 1007 q 996 761 938 878 q 1054 492 1054 644 q 996 222 1054 339 q 826 41 938 106 q 561 -24 715 -24 q 296 41 407 -24 q 126 222 185 106 q 68 492 68 339 m 929 492 q 835 789 929 678 q 563 900 740 900 q 289 789 383 900 q 194 492 194 678 q 289 194 194 306 q 563 83 383 83 q 835 194 740 83 q 929 492 929 306 m 761 1243 q 697 1119 749 1164 q 561 1074 644 1074 q 426 1119 478 1074 q 361 1243 374 1164 l 432 1251 q 478 1182 444 1207 q 561 1157 511 1157 q 644 1181 611 1157 q 692 1251 678 1206 l 761 1243 z "},"Ô":{"ha":1124,"x_min":68,"x_max":1054,"o":"m 68 492 q 126 761 68 644 q 296 942 185 878 q 561 1007 407 1007 q 826 942 715 1007 q 996 761 938 878 q 1054 492 1054 644 q 996 222 1054 339 q 826 41 938 106 q 561 -24 715 -24 q 296 41 407 -24 q 126 222 185 106 q 68 492 68 339 m 929 492 q 835 789 929 678 q 563 900 740 900 q 289 789 383 900 q 194 492 194 678 q 289 194 194 306 q 563 83 383 83 q 835 194 740 83 q 929 492 929 306 m 782 1131 l 738 1076 l 563 1194 l 389 1075 l 344 1131 l 515 1268 l 608 1268 l 782 1131 z "},"Ö":{"ha":1124,"x_min":68,"x_max":1054,"o":"m 68 492 q 126 761 68 644 q 296 942 185 878 q 561 1007 407 1007 q 826 942 715 1007 q 996 761 938 878 q 1054 492 1054 644 q 996 222 1054 339 q 826 41 938 106 q 561 -24 715 -24 q 296 41 407 -24 q 126 222 185 106 q 68 492 68 339 m 929 492 q 835 789 929 678 q 563 900 740 900 q 289 789 383 900 q 194 492 194 678 q 289 194 194 306 q 563 83 383 83 q 835 194 740 83 q 929 492 929 306 m 368 1183 q 385 1235 368 1215 q 439 1254 401 1254 q 508 1183 508 1254 q 439 1114 508 1114 q 385 1133 401 1114 q 368 1183 368 1153 m 625 1183 q 696 1254 625 1254 q 749 1235 732 1254 q 765 1183 765 1215 q 749 1133 765 1153 q 696 1114 732 1114 q 625 1183 625 1114 z "},"Ò":{"ha":1124,"x_min":68,"x_max":1054,"o":"m 68 492 q 126 761 68 644 q 296 942 185 878 q 561 1007 407 1007 q 826 942 715 1007 q 996 761 938 878 q 1054 492 1054 644 q 996 222 1054 339 q 826 41 938 106 q 561 -24 715 -24 q 296 41 407 -24 q 126 222 185 106 q 68 492 68 339 m 929 492 q 835 789 929 678 q 563 900 740 900 q 289 789 383 900 q 194 492 194 678 q 289 194 194 306 q 563 83 383 83 q 835 194 740 83 q 929 492 929 306 m 454 1293 l 692 1138 l 653 1074 l 403 1204 l 454 1293 z "},"Ő":{"ha":1124,"x_min":68,"x_max":1054,"o":"m 68 492 q 126 761 68 644 q 296 942 185 878 q 561 1007 407 1007 q 826 942 715 1007 q 996 761 938 878 q 1054 492 1054 644 q 996 222 1054 339 q 826 41 938 106 q 561 -24 715 -24 q 296 41 407 -24 q 126 222 185 106 q 68 492 68 339 m 929 492 q 835 789 929 678 q 563 900 740 900 q 289 789 383 900 q 194 492 194 678 q 289 194 194 306 q 563 83 383 83 q 835 194 740 83 q 929 492 929 306 m 489 1065 l 432 1094 l 553 1324 l 631 1281 l 489 1065 m 660 1057 l 604 1092 l 739 1313 l 813 1263 l 660 1057 z "},"Ō":{"ha":1124,"x_min":68,"x_max":1054,"o":"m 68 492 q 126 761 68 644 q 296 942 185 878 q 561 1007 407 1007 q 826 942 715 1007 q 996 761 938 878 q 1054 492 1054 644 q 996 222 1054 339 q 826 41 938 106 q 561 -24 715 -24 q 296 41 407 -24 q 126 222 185 106 q 68 492 68 339 m 929 492 q 835 789 929 678 q 563 900 740 900 q 289 789 383 900 q 194 492 194 678 q 289 194 194 306 q 563 83 383 83 q 835 194 740 83 q 929 492 929 306 m 757 1117 l 375 1117 l 375 1199 l 757 1199 l 757 1117 z "},"Ø":{"ha":1124,"x_min":68,"x_max":1054,"o":"m 1054 492 q 996 222 1054 339 q 826 41 938 106 q 561 -24 715 -24 q 483 -19 521 -24 l 458 -125 l 356 -103 l 385 3 q 151 180 233 51 q 68 492 68 308 q 126 761 68 644 q 296 942 185 878 q 561 1007 407 1007 q 643 1001 608 1007 l 667 1103 l 768 1081 l 740 981 q 972 802 890 931 q 1054 492 1054 674 m 418 106 l 621 897 q 563 900 585 900 q 289 789 383 900 q 194 492 194 678 q 251 244 194 343 q 418 106 307 144 m 929 492 q 874 739 929 639 q 708 878 818 839 l 504 86 q 563 83 540 83 q 835 194 740 83 q 929 492 929 306 z "},"Õ":{"ha":1124,"x_min":68,"x_max":1054,"o":"m 68 492 q 126 761 68 644 q 296 942 185 878 q 561 1007 407 1007 q 826 942 715 1007 q 996 761 938 878 q 1054 492 1054 644 q 996 222 1054 339 q 826 41 938 106 q 561 -24 715 -24 q 296 41 407 -24 q 126 222 185 106 q 68 492 68 339 m 929 492 q 835 789 929 678 q 563 900 740 900 q 289 789 383 900 q 194 492 194 678 q 289 194 194 306 q 563 83 383 83 q 835 194 740 83 q 929 492 929 306 m 344 1117 q 485 1233 396 1233 q 529 1224 508 1233 q 575 1196 550 1214 q 592 1185 579 1193 q 617 1172 606 1176 q 638 1168 628 1168 q 680 1183 661 1168 q 718 1231 699 1197 l 779 1204 q 721 1117 756 1146 q 639 1089 686 1089 q 594 1099 615 1089 q 550 1125 574 1108 q 515 1146 529 1139 q 486 1153 501 1153 q 444 1138 463 1153 q 406 1092 425 1124 l 344 1117 z "},"Œ":{"ha":1415,"x_min":68,"x_max":1378,"o":"m 1378 0 l 688 0 q 546 -24 625 -24 q 291 41 399 -24 q 126 223 183 106 q 68 492 68 340 q 126 760 68 643 q 291 942 183 878 q 546 1007 399 1007 q 690 983 626 1007 l 1354 983 l 1354 885 l 839 885 q 942 744 903 829 q 992 554 982 660 l 1293 554 l 1293 460 l 993 460 q 947 253 989 344 q 829 101 904 161 l 1378 101 l 1378 0 m 546 83 q 786 194 703 83 q 869 492 869 306 q 786 789 869 678 q 546 900 703 900 q 286 788 378 900 q 194 492 194 676 q 286 195 194 307 q 546 83 378 83 z "},"P":{"ha":849,"x_min":125,"x_max":808,"o":"m 808 664 q 760 485 808 558 q 631 376 711 413 q 460 340 551 340 l 249 340 l 249 0 l 125 0 l 125 983 l 457 983 q 710 906 611 983 q 808 664 808 828 m 247 885 l 247 440 l 449 440 q 615 497 547 440 q 682 663 682 554 q 615 832 682 779 q 446 885 547 885 l 247 885 z "},"Þ":{"ha":857,"x_min":125,"x_max":808,"o":"m 808 514 q 760 340 808 411 q 631 233 711 268 q 458 197 550 197 l 249 197 l 249 0 l 125 0 l 125 983 l 249 983 l 249 826 l 457 826 q 709 749 610 826 q 808 514 808 672 m 682 513 q 615 676 682 625 q 447 728 547 728 l 249 728 l 249 297 l 449 297 q 614 353 546 297 q 682 513 682 408 z "},"Q":{"ha":1124,"x_min":69,"x_max":1056,"o":"m 636 -19 q 701 -98 664 -69 q 806 -141 739 -126 q 982 -156 872 -156 l 982 -257 q 744 -231 836 -257 q 599 -154 653 -206 q 508 -21 544 -103 q 272 58 371 -10 q 121 237 172 125 q 69 492 69 349 q 128 761 69 644 q 297 942 186 878 q 563 1007 408 1007 q 828 942 717 1007 q 997 761 939 878 q 1056 492 1056 644 q 1006 242 1056 351 q 863 64 957 132 q 636 -19 768 -4 m 194 492 q 289 194 194 306 q 563 83 383 83 q 835 194 742 83 q 929 492 929 306 q 835 789 929 678 q 563 900 742 900 q 289 789 383 900 q 194 492 194 678 z "},"R":{"ha":874,"x_min":125,"x_max":819,"o":"m 678 0 l 454 360 l 249 360 l 249 0 l 125 0 l 125 983 l 449 983 q 623 948 544 983 q 747 841 701 913 q 793 667 793 769 q 733 479 793 550 q 572 379 672 408 l 819 0 l 678 0 m 444 454 q 603 508 540 454 q 667 667 667 563 q 601 830 667 775 q 440 885 536 885 l 247 885 l 247 454 l 444 454 z "},"Ŕ":{"ha":874,"x_min":125,"x_max":819,"o":"m 678 0 l 454 360 l 249 360 l 249 0 l 125 0 l 125 983 l 449 983 q 623 948 544 983 q 747 841 701 913 q 793 667 793 769 q 733 479 793 550 q 572 379 672 408 l 819 0 l 678 0 m 444 454 q 603 508 540 454 q 667 667 667 563 q 601 830 667 775 q 440 885 536 885 l 247 885 l 247 454 l 444 454 m 332 1074 l 292 1138 l 531 1293 l 581 1204 l 332 1074 z "},"Ř":{"ha":874,"x_min":125,"x_max":819,"o":"m 678 0 l 454 360 l 249 360 l 249 0 l 125 0 l 125 983 l 449 983 q 623 948 544 983 q 747 841 701 913 q 793 667 793 769 q 733 479 793 550 q 572 379 672 408 l 819 0 l 678 0 m 444 454 q 603 508 540 454 q 667 667 667 563 q 601 830 667 775 q 440 885 536 885 l 247 885 l 247 454 l 444 454 m 642 1222 l 468 1085 l 375 1085 l 204 1222 l 249 1278 l 422 1160 l 597 1276 l 642 1222 z "},"Ŗ":{"ha":874,"x_min":125,"x_max":819,"o":"m 678 0 l 454 360 l 249 360 l 249 0 l 125 0 l 125 983 l 449 983 q 623 948 544 983 q 747 841 701 913 q 793 667 793 769 q 733 479 793 550 q 572 379 672 408 l 819 0 l 678 0 m 444 454 q 603 508 540 454 q 667 667 667 563 q 601 830 667 775 q 440 885 536 885 l 247 885 l 247 454 l 444 454 m 371 -346 q 422 -207 418 -272 q 382 -150 382 -197 q 451 -87 382 -87 q 522 -154 522 -87 q 499 -252 522 -200 q 422 -371 476 -304 l 371 -346 z "},"S":{"ha":776,"x_min":42,"x_max":721,"o":"m 42 92 l 104 169 q 228 101 164 122 q 372 81 292 81 q 534 127 472 81 q 596 263 596 174 q 567 364 596 325 q 486 426 538 403 q 350 472 435 450 q 144 570 213 508 q 76 743 76 632 q 169 936 76 867 q 404 1006 261 1006 q 567 982 494 1006 q 703 913 640 958 l 647 832 q 531 888 589 869 q 404 906 474 906 q 254 866 311 906 q 197 751 197 826 q 249 638 197 676 q 419 569 301 600 q 644 464 568 531 q 721 267 721 397 q 674 107 721 172 q 549 9 628 42 q 371 -24 469 -24 q 42 92 179 -24 z "},"Ś":{"ha":776,"x_min":42,"x_max":721,"o":"m 42 92 l 104 169 q 228 101 164 122 q 372 81 292 81 q 534 127 472 81 q 596 263 596 174 q 567 364 596 325 q 486 426 538 403 q 350 472 435 450 q 144 570 213 508 q 76 743 76 632 q 169 936 76 867 q 404 1006 261 1006 q 567 982 494 1006 q 703 913 640 958 l 647 832 q 531 888 589 869 q 404 906 474 906 q 254 866 311 906 q 197 751 197 826 q 249 638 197 676 q 419 569 301 600 q 644 464 568 531 q 721 267 721 397 q 674 107 721 172 q 549 9 628 42 q 371 -24 469 -24 q 42 92 179 -24 m 322 1074 l 282 1138 l 521 1293 l 571 1204 l 322 1074 z "},"Š":{"ha":776,"x_min":42,"x_max":721,"o":"m 42 92 l 104 169 q 228 101 164 122 q 372 81 292 81 q 534 127 472 81 q 596 263 596 174 q 567 364 596 325 q 486 426 538 403 q 350 472 435 450 q 144 570 213 508 q 76 743 76 632 q 169 936 76 867 q 404 1006 261 1006 q 567 982 494 1006 q 703 913 640 958 l 647 832 q 531 888 589 869 q 404 906 474 906 q 254 866 311 906 q 197 751 197 826 q 249 638 197 676 q 419 569 301 600 q 644 464 568 531 q 721 267 721 397 q 674 107 721 172 q 549 9 628 42 q 371 -24 469 -24 q 42 92 179 -24 m 632 1222 l 458 1085 l 365 1085 l 194 1222 l 239 1278 l 413 1160 l 588 1276 l 632 1222 z "},"Ş":{"ha":776,"x_min":42,"x_max":721,"o":"m 435 -19 l 410 -89 q 449 -86 424 -86 q 531 -115 499 -86 q 564 -197 564 -144 q 516 -299 564 -265 q 396 -333 468 -333 q 253 -300 313 -333 l 282 -236 q 392 -261 332 -261 q 453 -245 432 -261 q 475 -199 475 -229 q 414 -146 475 -146 q 360 -153 388 -146 l 304 -153 l 354 -24 q 42 92 169 -18 l 104 169 q 228 101 164 122 q 372 81 292 81 q 534 127 472 81 q 596 263 596 174 q 567 364 596 325 q 486 426 538 403 q 350 472 435 450 q 144 570 213 508 q 76 743 76 632 q 169 936 76 867 q 404 1006 261 1006 q 567 982 494 1006 q 703 913 640 958 l 647 832 q 531 888 589 869 q 404 906 474 906 q 254 866 311 906 q 197 751 197 826 q 249 638 197 676 q 419 569 301 600 q 644 464 568 531 q 721 267 721 397 q 642 69 721 143 q 435 -19 563 -4 z "},"Ŝ":{"ha":776,"x_min":42,"x_max":721,"o":"m 42 92 l 104 169 q 228 101 164 122 q 372 81 292 81 q 534 127 472 81 q 596 263 596 174 q 567 364 596 325 q 486 426 538 403 q 350 472 435 450 q 144 570 213 508 q 76 743 76 632 q 169 936 76 867 q 404 1006 261 1006 q 567 982 494 1006 q 703 913 640 958 l 647 832 q 531 888 589 869 q 404 906 474 906 q 254 866 311 906 q 197 751 197 826 q 249 638 197 676 q 419 569 301 600 q 644 464 568 531 q 721 267 721 397 q 674 107 721 172 q 549 9 628 42 q 371 -24 469 -24 q 42 92 179 -24 m 633 1131 l 589 1076 l 414 1194 l 240 1075 l 196 1131 l 367 1268 l 460 1268 l 633 1131 z "},"Ș":{"ha":776,"x_min":42,"x_max":721,"o":"m 42 92 l 104 169 q 228 101 164 122 q 372 81 292 81 q 534 127 472 81 q 596 263 596 174 q 567 364 596 325 q 486 426 538 403 q 350 472 435 450 q 144 570 213 508 q 76 743 76 632 q 169 936 76 867 q 404 1006 261 1006 q 567 982 494 1006 q 703 913 640 958 l 647 832 q 531 888 589 869 q 404 906 474 906 q 254 866 311 906 q 197 751 197 826 q 249 638 197 676 q 419 569 301 600 q 644 464 568 531 q 721 267 721 397 q 674 107 721 172 q 549 9 628 42 q 371 -24 469 -24 q 42 92 179 -24 m 319 -346 q 371 -207 367 -272 q 331 -150 331 -197 q 400 -87 331 -87 q 471 -154 471 -87 q 448 -252 471 -200 q 371 -371 425 -304 l 319 -346 z "},"ẞ":{"ha":975,"x_min":106,"x_max":921,"o":"m 585 -24 q 350 32 453 -24 l 394 119 q 484 88 440 97 q 579 78 528 78 q 738 128 681 78 q 794 281 794 179 q 723 440 794 382 q 490 518 651 497 l 490 594 l 676 843 q 454 906 567 906 q 289 856 349 906 q 229 690 229 807 l 229 0 l 106 0 l 107 699 q 201 929 107 853 q 446 1006 294 1006 q 646 969 557 1006 q 819 861 735 933 l 610 589 q 839 488 757 561 q 921 279 921 414 q 826 54 921 132 q 585 -24 732 -24 z "},"T":{"ha":757,"x_min":6,"x_max":750,"o":"m 750 879 l 440 879 l 440 0 l 317 0 l 317 879 l 6 879 l 6 983 l 750 983 l 750 879 z "},"Ŧ":{"ha":757,"x_min":6,"x_max":750,"o":"m 440 879 l 440 532 l 608 532 l 608 450 l 440 450 l 440 0 l 317 0 l 317 450 l 150 450 l 150 532 l 317 532 l 317 879 l 6 879 l 6 983 l 750 983 l 750 879 l 440 879 z "},"Ť":{"ha":757,"x_min":6,"x_max":750,"o":"m 750 879 l 440 879 l 440 0 l 317 0 l 317 879 l 6 879 l 6 983 l 750 983 l 750 879 m 597 1222 l 424 1085 l 331 1085 l 160 1222 l 204 1278 l 378 1160 l 553 1276 l 597 1222 z "},"Ţ":{"ha":757,"x_min":6,"x_max":750,"o":"m 543 -197 q 495 -299 543 -265 q 375 -333 447 -333 q 232 -300 292 -333 l 261 -236 q 371 -261 311 -261 q 433 -245 411 -261 q 454 -199 454 -229 q 393 -146 454 -146 q 339 -153 367 -146 l 283 -153 l 343 0 l 317 0 l 317 879 l 6 879 l 6 983 l 750 983 l 750 879 l 440 879 l 440 0 l 421 0 l 389 -89 q 428 -86 403 -86 q 510 -115 478 -86 q 543 -197 543 -144 z "},"Ț":{"ha":757,"x_min":6,"x_max":750,"o":"m 750 879 l 440 879 l 440 0 l 317 0 l 317 879 l 6 879 l 6 983 l 750 983 l 750 879 m 300 -346 q 351 -207 347 -272 q 311 -150 311 -197 q 381 -87 311 -87 q 451 -154 451 -87 q 428 -252 451 -200 q 351 -371 406 -304 l 300 -346 z "},"U":{"ha":1021,"x_min":113,"x_max":908,"o":"m 113 353 l 113 983 l 235 983 l 235 363 q 300 154 235 225 q 510 83 365 83 q 719 154 654 83 q 785 363 785 225 l 785 983 l 908 983 l 908 353 q 806 74 908 172 q 510 -24 704 -24 q 214 74 315 -24 q 113 353 113 172 z "},"Ú":{"ha":1021,"x_min":113,"x_max":908,"o":"m 113 353 l 113 983 l 235 983 l 235 363 q 300 154 235 225 q 510 83 365 83 q 719 154 654 83 q 785 363 785 225 l 785 983 l 908 983 l 908 353 q 806 74 908 172 q 510 -24 704 -24 q 214 74 315 -24 q 113 353 113 172 m 419 1074 l 379 1138 l 618 1293 l 668 1204 l 419 1074 z "},"Ŭ":{"ha":1021,"x_min":113,"x_max":908,"o":"m 113 353 l 113 983 l 235 983 l 235 363 q 300 154 235 225 q 510 83 365 83 q 719 154 654 83 q 785 363 785 225 l 785 983 l 908 983 l 908 353 q 806 74 908 172 q 510 -24 704 -24 q 214 74 315 -24 q 113 353 113 172 m 711 1243 q 647 1119 699 1164 q 511 1074 594 1074 q 376 1119 428 1074 q 311 1243 324 1164 l 382 1251 q 428 1182 394 1207 q 511 1157 461 1157 q 594 1181 561 1157 q 642 1251 628 1206 l 711 1243 z "},"Û":{"ha":1021,"x_min":113,"x_max":908,"o":"m 113 353 l 113 983 l 235 983 l 235 363 q 300 154 235 225 q 510 83 365 83 q 719 154 654 83 q 785 363 785 225 l 785 983 l 908 983 l 908 353 q 806 74 908 172 q 510 -24 704 -24 q 214 74 315 -24 q 113 353 113 172 m 731 1131 l 686 1076 l 511 1194 l 338 1075 l 293 1131 l 464 1268 l 557 1268 l 731 1131 z "},"Ü":{"ha":1021,"x_min":113,"x_max":908,"o":"m 113 353 l 113 983 l 235 983 l 235 363 q 300 154 235 225 q 510 83 365 83 q 719 154 654 83 q 785 363 785 225 l 785 983 l 908 983 l 908 353 q 806 74 908 172 q 510 -24 704 -24 q 214 74 315 -24 q 113 353 113 172 m 317 1183 q 333 1235 317 1215 q 388 1254 350 1254 q 457 1183 457 1254 q 388 1114 457 1114 q 333 1133 350 1114 q 317 1183 317 1153 m 574 1183 q 644 1254 574 1254 q 697 1235 681 1254 q 714 1183 714 1215 q 697 1133 714 1153 q 644 1114 681 1114 q 574 1183 574 1114 z "},"Ù":{"ha":1021,"x_min":113,"x_max":908,"o":"m 113 353 l 113 983 l 235 983 l 235 363 q 300 154 235 225 q 510 83 365 83 q 719 154 654 83 q 785 363 785 225 l 785 983 l 908 983 l 908 353 q 806 74 908 172 q 510 -24 704 -24 q 214 74 315 -24 q 113 353 113 172 m 403 1293 l 640 1138 l 601 1074 l 351 1204 l 403 1293 z "},"Ű":{"ha":1021,"x_min":113,"x_max":908,"o":"m 113 353 l 113 983 l 235 983 l 235 363 q 300 154 235 225 q 510 83 365 83 q 719 154 654 83 q 785 363 785 225 l 785 983 l 908 983 l 908 353 q 806 74 908 172 q 510 -24 704 -24 q 214 74 315 -24 q 113 353 113 172 m 439 1065 l 382 1094 l 503 1324 l 581 1281 l 439 1065 m 610 1057 l 554 1092 l 689 1313 l 763 1263 l 610 1057 z "},"Ū":{"ha":1021,"x_min":113,"x_max":908,"o":"m 113 353 l 113 983 l 235 983 l 235 363 q 300 154 235 225 q 510 83 365 83 q 719 154 654 83 q 785 363 785 225 l 785 983 l 908 983 l 908 353 q 806 74 908 172 q 510 -24 704 -24 q 214 74 315 -24 q 113 353 113 172 m 706 1117 l 324 1117 l 324 1199 l 706 1199 l 706 1117 z "},"Ų":{"ha":1021,"x_min":113,"x_max":908,"o":"m 908 983 l 908 353 q 853 133 908 222 q 693 6 799 44 q 550 -185 550 -99 q 570 -235 550 -218 q 624 -253 590 -253 q 714 -229 667 -253 l 739 -296 q 611 -331 682 -331 q 503 -297 546 -331 q 461 -200 461 -262 q 572 -21 461 -101 q 510 -24 533 -24 q 214 74 315 -24 q 113 353 113 172 l 113 983 l 235 983 l 235 363 q 300 154 235 225 q 510 83 365 83 q 719 154 654 83 q 785 363 785 225 l 785 983 l 908 983 z "},"Ů":{"ha":1021,"x_min":113,"x_max":908,"o":"m 113 353 l 113 983 l 235 983 l 235 363 q 300 154 235 225 q 510 83 365 83 q 719 154 654 83 q 785 363 785 225 l 785 983 l 908 983 l 908 353 q 806 74 908 172 q 510 -24 704 -24 q 214 74 315 -24 q 113 353 113 172 m 667 1211 q 625 1108 667 1149 q 513 1068 583 1068 q 400 1108 442 1068 q 358 1211 358 1149 q 401 1316 358 1276 q 513 1356 443 1356 q 624 1316 582 1356 q 667 1211 667 1276 m 586 1211 q 567 1270 586 1250 q 513 1290 549 1290 q 457 1270 476 1290 q 438 1211 438 1250 q 458 1153 438 1174 q 513 1133 478 1133 q 566 1153 546 1133 q 586 1211 586 1174 z "},"Ũ":{"ha":1021,"x_min":113,"x_max":908,"o":"m 113 353 l 113 983 l 235 983 l 235 363 q 300 154 235 225 q 510 83 365 83 q 719 154 654 83 q 785 363 785 225 l 785 983 l 908 983 l 908 353 q 806 74 908 172 q 510 -24 704 -24 q 214 74 315 -24 q 113 353 113 172 m 293 1117 q 433 1233 344 1233 q 478 1224 457 1233 q 524 1196 499 1214 q 541 1185 528 1193 q 565 1172 554 1176 q 586 1168 576 1168 q 628 1183 610 1168 q 667 1231 647 1197 l 728 1204 q 669 1117 704 1146 q 588 1089 635 1089 q 543 1099 564 1089 q 499 1125 522 1108 q 464 1146 478 1139 q 435 1153 450 1153 q 392 1138 411 1153 q 354 1092 374 1124 l 293 1117 z "},"V":{"ha":881,"x_min":3,"x_max":876,"o":"m 503 0 l 375 0 l 3 983 l 135 983 l 440 138 l 444 138 l 746 983 l 876 983 l 503 0 z "},"W":{"ha":1361,"x_min":19,"x_max":1340,"o":"m 1053 0 l 924 0 l 679 828 l 675 828 l 435 0 l 306 0 l 19 983 l 147 983 l 375 160 l 378 160 l 614 983 l 746 983 l 985 160 l 988 160 l 1219 983 l 1340 983 l 1053 0 z "},"Ẃ":{"ha":1361,"x_min":19,"x_max":1340,"o":"m 1053 0 l 924 0 l 679 828 l 675 828 l 435 0 l 306 0 l 19 983 l 147 983 l 375 160 l 378 160 l 614 983 l 746 983 l 985 160 l 988 160 l 1219 983 l 1340 983 l 1053 0 m 590 1074 l 550 1138 l 789 1293 l 839 1204 l 590 1074 z "},"Ŵ":{"ha":1361,"x_min":19,"x_max":1340,"o":"m 1053 0 l 924 0 l 679 828 l 675 828 l 435 0 l 306 0 l 19 983 l 147 983 l 375 160 l 378 160 l 614 983 l 746 983 l 985 160 l 988 160 l 1219 983 l 1340 983 l 1053 0 m 900 1131 l 856 1076 l 681 1194 l 507 1075 l 463 1131 l 633 1268 l 726 1268 l 900 1131 z "},"Ẅ":{"ha":1361,"x_min":19,"x_max":1340,"o":"m 1053 0 l 924 0 l 679 828 l 675 828 l 435 0 l 306 0 l 19 983 l 147 983 l 375 160 l 378 160 l 614 983 l 746 983 l 985 160 l 988 160 l 1219 983 l 1340 983 l 1053 0 m 486 1183 q 503 1235 486 1215 q 557 1254 519 1254 q 626 1183 626 1254 q 557 1114 626 1114 q 503 1133 519 1114 q 486 1183 486 1153 m 743 1183 q 814 1254 743 1254 q 867 1235 850 1254 q 883 1183 883 1215 q 867 1133 883 1153 q 814 1114 850 1114 q 743 1183 743 1114 z "},"Ẁ":{"ha":1361,"x_min":19,"x_max":1340,"o":"m 1053 0 l 924 0 l 679 828 l 675 828 l 435 0 l 306 0 l 19 983 l 147 983 l 375 160 l 378 160 l 614 983 l 746 983 l 985 160 l 988 160 l 1219 983 l 1340 983 l 1053 0 m 574 1293 l 811 1138 l 772 1074 l 522 1204 l 574 1293 z "},"X":{"ha":857,"x_min":10,"x_max":847,"o":"m 847 0 l 704 0 l 428 431 l 428 432 l 426 431 l 154 0 l 10 0 l 354 518 l 356 519 l 47 983 l 189 983 l 431 599 l 671 983 l 810 983 l 501 518 l 503 517 l 847 0 z "},"Y":{"ha":782,"x_min":-15,"x_max":796,"o":"m 450 422 l 450 0 l 328 0 l 328 425 l -15 983 l 125 983 l 393 524 l 396 524 l 661 983 l 796 983 l 450 422 z "},"Ý":{"ha":782,"x_min":-15,"x_max":796,"o":"m 450 422 l 450 0 l 328 0 l 328 425 l -15 983 l 125 983 l 393 524 l 396 524 l 661 983 l 796 983 l 450 422 m 300 1074 l 260 1138 l 499 1293 l 549 1204 l 300 1074 z "},"Ŷ":{"ha":782,"x_min":-15,"x_max":796,"o":"m 450 422 l 450 0 l 328 0 l 328 425 l -15 983 l 125 983 l 393 524 l 396 524 l 661 983 l 796 983 l 450 422 m 611 1131 l 567 1076 l 392 1194 l 218 1075 l 174 1131 l 344 1268 l 438 1268 l 611 1131 z "},"Ÿ":{"ha":782,"x_min":-15,"x_max":796,"o":"m 450 422 l 450 0 l 328 0 l 328 425 l -15 983 l 125 983 l 393 524 l 396 524 l 661 983 l 796 983 l 450 422 m 197 1183 q 214 1235 197 1215 q 268 1254 231 1254 q 338 1183 338 1254 q 268 1114 338 1114 q 214 1133 231 1114 q 197 1183 197 1153 m 454 1183 q 525 1254 454 1254 q 578 1235 561 1254 q 594 1183 594 1215 q 578 1133 594 1153 q 525 1114 561 1114 q 454 1183 454 1114 z "},"Ỳ":{"ha":782,"x_min":-15,"x_max":796,"o":"m 450 422 l 450 0 l 328 0 l 328 425 l -15 983 l 125 983 l 393 524 l 396 524 l 661 983 l 796 983 l 450 422 m 283 1293 l 521 1138 l 482 1074 l 232 1204 l 283 1293 z "},"Z":{"ha":818,"x_min":50,"x_max":756,"o":"m 742 882 l 194 103 l 756 103 l 756 0 l 50 0 l 50 107 l 596 885 l 67 885 l 67 983 l 742 983 l 742 882 z "},"Ź":{"ha":818,"x_min":50,"x_max":756,"o":"m 742 882 l 194 103 l 756 103 l 756 0 l 50 0 l 50 107 l 596 885 l 67 885 l 67 983 l 742 983 l 742 882 m 319 1074 l 279 1138 l 518 1293 l 568 1204 l 319 1074 z "},"Ž":{"ha":818,"x_min":50,"x_max":756,"o":"m 742 882 l 194 103 l 756 103 l 756 0 l 50 0 l 50 107 l 596 885 l 67 885 l 67 983 l 742 983 l 742 882 m 629 1222 l 456 1085 l 363 1085 l 192 1222 l 236 1278 l 410 1160 l 585 1276 l 629 1222 z "},"Ż":{"ha":818,"x_min":50,"x_max":756,"o":"m 742 882 l 194 103 l 756 103 l 756 0 l 50 0 l 50 107 l 596 885 l 67 885 l 67 983 l 742 983 l 742 882 m 333 1194 q 411 1269 333 1269 q 488 1194 488 1269 q 469 1142 488 1163 q 411 1122 451 1122 q 351 1142 369 1122 q 333 1194 333 1163 z "},"a":{"ha":758,"x_min":58,"x_max":658,"o":"m 58 193 q 158 384 58 331 q 457 438 257 438 q 531 436 506 438 l 531 476 q 488 594 531 556 q 356 633 444 633 q 143 574 243 633 l 101 653 q 363 726 221 726 q 580 657 511 726 q 649 446 649 588 l 649 157 q 658 0 649 81 l 550 0 q 540 96 540 61 l 536 96 q 438 10 497 39 q 286 -19 379 -19 q 121 35 183 -19 q 58 193 58 90 m 531 261 l 531 353 l 468 354 q 302 340 364 354 q 210 293 240 326 q 181 200 181 260 q 217 106 181 139 q 317 74 253 74 q 432 102 383 74 q 506 174 481 131 q 531 261 531 217 z "},"á":{"ha":758,"x_min":58,"x_max":658,"o":"m 58 193 q 158 384 58 331 q 457 438 257 438 q 531 436 506 438 l 531 476 q 488 594 531 556 q 356 633 444 633 q 143 574 243 633 l 101 653 q 363 726 221 726 q 580 657 511 726 q 649 446 649 588 l 649 157 q 658 0 649 81 l 550 0 q 540 96 540 61 l 536 96 q 438 10 497 39 q 286 -19 379 -19 q 121 35 183 -19 q 58 193 58 90 m 531 261 l 531 353 l 468 354 q 302 340 364 354 q 210 293 240 326 q 181 200 181 260 q 217 106 181 139 q 317 74 253 74 q 432 102 383 74 q 506 174 481 131 q 531 261 531 217 m 300 800 l 254 864 l 478 1046 l 536 960 l 300 800 z "},"ă":{"ha":758,"x_min":58,"x_max":658,"o":"m 58 193 q 158 384 58 331 q 457 438 257 438 q 531 436 506 438 l 531 476 q 488 594 531 556 q 356 633 444 633 q 143 574 243 633 l 101 653 q 363 726 221 726 q 580 657 511 726 q 649 446 649 588 l 649 157 q 658 0 649 81 l 550 0 q 540 96 540 61 l 536 96 q 438 10 497 39 q 286 -19 379 -19 q 121 35 183 -19 q 58 193 58 90 m 531 261 l 531 353 l 468 354 q 302 340 364 354 q 210 293 240 326 q 181 200 181 260 q 217 106 181 139 q 317 74 253 74 q 432 102 383 74 q 506 174 481 131 q 531 261 531 217 m 586 996 q 520 853 572 901 q 381 804 468 804 q 241 853 293 804 q 175 996 189 901 l 247 1004 q 381 889 275 889 q 514 1004 486 889 l 586 996 z "},"â":{"ha":758,"x_min":58,"x_max":658,"o":"m 58 193 q 158 384 58 331 q 457 438 257 438 q 531 436 506 438 l 531 476 q 488 594 531 556 q 356 633 444 633 q 143 574 243 633 l 101 653 q 363 726 221 726 q 580 657 511 726 q 649 446 649 588 l 649 157 q 658 0 649 81 l 550 0 q 540 96 540 61 l 536 96 q 438 10 497 39 q 286 -19 379 -19 q 121 35 183 -19 q 58 193 58 90 m 531 261 l 531 353 l 468 354 q 302 340 364 354 q 210 293 240 326 q 181 200 181 260 q 217 106 181 139 q 317 74 253 74 q 432 102 383 74 q 506 174 481 131 q 531 261 531 217 m 603 851 l 556 803 l 381 944 l 206 800 l 158 851 l 333 1022 l 428 1022 l 603 851 z "},"ä":{"ha":758,"x_min":58,"x_max":658,"o":"m 58 193 q 158 384 58 331 q 457 438 257 438 q 531 436 506 438 l 531 476 q 488 594 531 556 q 356 633 444 633 q 143 574 243 633 l 101 653 q 363 726 221 726 q 580 657 511 726 q 649 446 649 588 l 649 157 q 658 0 649 81 l 550 0 q 540 96 540 61 l 536 96 q 438 10 497 39 q 286 -19 379 -19 q 121 35 183 -19 q 58 193 58 90 m 531 261 l 531 353 l 468 354 q 302 340 364 354 q 210 293 240 326 q 181 200 181 260 q 217 106 181 139 q 317 74 253 74 q 432 102 383 74 q 506 174 481 131 q 531 261 531 217 m 182 915 q 199 967 182 947 q 253 986 215 986 q 322 915 322 986 q 253 846 322 846 q 199 865 215 846 q 182 915 182 885 m 439 915 q 510 986 439 986 q 563 967 546 986 q 579 915 579 947 q 563 865 579 885 q 510 846 546 846 q 439 915 439 846 z "},"à":{"ha":758,"x_min":58,"x_max":658,"o":"m 58 193 q 158 384 58 331 q 457 438 257 438 q 531 436 506 438 l 531 476 q 488 594 531 556 q 356 633 444 633 q 143 574 243 633 l 101 653 q 363 726 221 726 q 580 657 511 726 q 649 446 649 588 l 649 157 q 658 0 649 81 l 550 0 q 540 96 540 61 l 536 96 q 438 10 497 39 q 286 -19 379 -19 q 121 35 183 -19 q 58 193 58 90 m 531 261 l 531 353 l 468 354 q 302 340 364 354 q 210 293 240 326 q 181 200 181 260 q 217 106 181 139 q 317 74 253 74 q 432 102 383 74 q 506 174 481 131 q 531 261 531 217 m 283 1046 l 507 864 l 460 800 l 225 960 l 283 1046 z "},"ā":{"ha":758,"x_min":58,"x_max":658,"o":"m 58 193 q 158 384 58 331 q 457 438 257 438 q 531 436 506 438 l 531 476 q 488 594 531 556 q 356 633 444 633 q 143 574 243 633 l 101 653 q 363 726 221 726 q 580 657 511 726 q 649 446 649 588 l 649 157 q 658 0 649 81 l 550 0 q 540 96 540 61 l 536 96 q 438 10 497 39 q 286 -19 379 -19 q 121 35 183 -19 q 58 193 58 90 m 531 261 l 531 353 l 468 354 q 302 340 364 354 q 210 293 240 326 q 181 200 181 260 q 217 106 181 139 q 317 74 253 74 q 432 102 383 74 q 506 174 481 131 q 531 261 531 217 m 571 849 l 189 849 l 189 931 l 571 931 l 571 849 z "},"ą":{"ha":758,"x_min":58,"x_max":683,"o":"m 683 -296 q 556 -331 626 -331 q 448 -297 490 -331 q 406 -200 406 -262 q 444 -89 406 -142 q 549 6 482 -36 q 540 96 540 72 l 536 96 q 438 10 497 39 q 286 -19 379 -19 q 121 35 183 -19 q 58 193 58 90 q 158 384 58 331 q 457 438 257 438 q 531 436 506 438 l 531 476 q 488 594 531 556 q 356 633 444 633 q 143 574 243 633 l 101 653 q 363 726 221 726 q 580 657 511 726 q 649 446 649 588 l 649 157 q 658 0 649 81 l 638 0 q 529 -95 564 -51 q 494 -185 494 -139 q 515 -235 494 -218 q 568 -253 535 -253 q 658 -229 611 -253 l 683 -296 m 531 353 l 468 354 q 302 340 364 354 q 210 293 240 326 q 181 200 181 260 q 217 106 181 139 q 317 74 253 74 q 432 102 383 74 q 506 174 481 131 q 531 261 531 217 l 531 353 z "},"å":{"ha":758,"x_min":58,"x_max":658,"o":"m 58 193 q 158 384 58 331 q 457 438 257 438 q 531 436 506 438 l 531 476 q 488 594 531 556 q 356 633 444 633 q 143 574 243 633 l 101 653 q 363 726 221 726 q 580 657 511 726 q 649 446 649 588 l 649 157 q 658 0 649 81 l 550 0 q 540 96 540 61 l 536 96 q 438 10 497 39 q 286 -19 379 -19 q 121 35 183 -19 q 58 193 58 90 m 531 261 l 531 353 l 468 354 q 302 340 364 354 q 210 293 240 326 q 181 200 181 260 q 217 106 181 139 q 317 74 253 74 q 432 102 383 74 q 506 174 481 131 q 531 261 531 217 m 535 943 q 493 840 535 881 q 381 800 451 800 q 268 840 310 800 q 226 943 226 881 q 269 1048 226 1008 q 381 1088 311 1088 q 492 1048 450 1088 q 535 943 535 1008 m 454 943 q 435 1002 454 982 q 381 1022 417 1022 q 325 1002 344 1022 q 306 943 306 982 q 326 885 306 906 q 381 865 346 865 q 434 885 414 865 q 454 943 454 906 z "},"ã":{"ha":758,"x_min":58,"x_max":658,"o":"m 58 193 q 158 384 58 331 q 457 438 257 438 q 531 436 506 438 l 531 476 q 488 594 531 556 q 356 633 444 633 q 143 574 243 633 l 101 653 q 363 726 221 726 q 580 657 511 726 q 649 446 649 588 l 649 157 q 658 0 649 81 l 550 0 q 540 96 540 61 l 536 96 q 438 10 497 39 q 286 -19 379 -19 q 121 35 183 -19 q 58 193 58 90 m 531 261 l 531 353 l 468 354 q 302 340 364 354 q 210 293 240 326 q 181 200 181 260 q 217 106 181 139 q 317 74 253 74 q 432 102 383 74 q 506 174 481 131 q 531 261 531 217 m 164 849 q 304 965 215 965 q 349 956 328 965 q 394 928 369 946 q 412 917 399 925 q 436 904 425 908 q 457 900 447 900 q 499 915 481 900 q 538 963 518 929 l 599 936 q 540 849 575 878 q 458 821 506 821 q 414 831 435 821 q 369 857 393 840 q 335 878 349 871 q 306 885 321 885 q 263 870 282 885 q 225 824 244 856 l 164 849 z "},"æ":{"ha":1204,"x_min":58,"x_max":1135,"o":"m 1132 311 l 629 311 q 693 140 636 204 q 850 75 750 75 q 955 92 907 75 q 1056 144 1003 110 l 1108 68 q 844 -19 985 -19 q 676 24 747 -19 q 567 140 604 67 q 462 21 528 61 q 310 -19 396 -19 q 126 35 194 -19 q 58 193 58 90 q 156 384 58 331 q 442 438 253 438 q 510 436 486 438 l 510 476 q 354 633 510 633 q 143 574 244 633 l 101 653 q 224 707 157 688 q 360 726 290 726 q 503 694 449 726 q 588 588 558 661 q 691 692 626 657 q 833 726 756 726 q 1056 626 976 726 q 1135 363 1135 525 q 1132 311 1135 344 m 1019 403 q 967 572 1017 507 q 831 636 918 636 q 684 569 738 636 q 628 403 631 503 l 1019 403 m 510 353 l 453 354 q 244 320 308 354 q 181 200 181 286 q 218 106 181 139 q 324 74 256 74 q 424 102 382 74 q 488 174 465 131 q 510 261 510 217 l 510 353 z "},"b":{"ha":864,"x_min":121,"x_max":796,"o":"m 796 354 q 757 164 796 249 q 642 30 718 79 q 460 -19 565 -19 q 229 74 326 -19 l 218 0 l 121 0 l 121 983 l 239 983 l 239 606 l 243 606 q 339 694 278 663 q 483 726 400 726 q 656 677 585 726 q 761 544 726 628 q 796 354 796 460 m 675 354 q 619 557 675 482 q 463 632 563 632 q 346 601 397 632 q 267 518 294 571 q 239 403 239 465 l 239 168 q 335 98 286 121 q 446 75 385 75 q 615 152 556 75 q 675 354 675 229 z "},"c":{"ha":699,"x_min":69,"x_max":654,"o":"m 419 726 q 547 706 486 726 q 654 650 607 686 l 607 568 q 419 628 526 628 q 247 553 306 628 q 189 354 189 479 q 247 156 189 232 q 418 81 306 81 q 608 140 514 81 l 651 57 q 410 -19 546 -19 q 214 34 290 -19 q 103 172 138 88 q 69 354 69 257 q 163 625 69 524 q 419 726 256 726 z "},"ć":{"ha":699,"x_min":69,"x_max":654,"o":"m 419 726 q 547 706 486 726 q 654 650 607 686 l 607 568 q 419 628 526 628 q 247 553 306 628 q 189 354 189 479 q 247 156 189 232 q 418 81 306 81 q 608 140 514 81 l 651 57 q 410 -19 546 -19 q 214 34 290 -19 q 103 172 138 88 q 69 354 69 257 q 163 625 69 524 q 419 726 256 726 m 333 800 l 288 864 l 511 1046 l 569 960 l 333 800 z "},"č":{"ha":699,"x_min":69,"x_max":654,"o":"m 419 726 q 547 706 486 726 q 654 650 607 686 l 607 568 q 419 628 526 628 q 247 553 306 628 q 189 354 189 479 q 247 156 189 232 q 418 81 306 81 q 608 140 514 81 l 651 57 q 410 -19 546 -19 q 214 34 290 -19 q 103 172 138 88 q 69 354 69 257 q 163 625 69 524 q 419 726 256 726 m 636 978 l 460 808 l 365 808 l 190 978 l 238 1031 l 413 886 l 588 1029 l 636 978 z "},"ç":{"ha":699,"x_min":69,"x_max":654,"o":"m 439 -18 l 414 -89 q 453 -86 428 -86 q 535 -115 503 -86 q 568 -197 568 -144 q 520 -299 568 -265 q 400 -333 472 -333 q 257 -300 317 -333 l 286 -236 q 396 -261 336 -261 q 458 -245 436 -261 q 479 -199 479 -229 q 418 -146 479 -146 q 364 -153 392 -146 l 308 -153 l 361 -17 q 140 106 211 -1 q 69 354 69 213 q 163 625 69 524 q 419 726 256 726 q 547 706 486 726 q 654 650 607 686 l 607 568 q 419 628 526 628 q 247 553 306 628 q 189 354 189 479 q 247 156 189 232 q 418 81 306 81 q 608 140 514 81 l 651 57 q 439 -18 558 -10 z "},"ĉ":{"ha":699,"x_min":69,"x_max":654,"o":"m 419 726 q 547 706 486 726 q 654 650 607 686 l 607 568 q 419 628 526 628 q 247 553 306 628 q 189 354 189 479 q 247 156 189 232 q 418 81 306 81 q 608 140 514 81 l 651 57 q 410 -19 546 -19 q 214 34 290 -19 q 103 172 138 88 q 69 354 69 257 q 163 625 69 524 q 419 726 256 726 m 635 851 l 588 803 l 413 944 l 238 800 l 190 851 l 365 1022 l 460 1022 l 635 851 z "},"ċ":{"ha":699,"x_min":69,"x_max":654,"o":"m 419 726 q 547 706 486 726 q 654 650 607 686 l 607 568 q 419 628 526 628 q 247 553 306 628 q 189 354 189 479 q 247 156 189 232 q 418 81 306 81 q 608 140 514 81 l 651 57 q 410 -19 546 -19 q 214 34 290 -19 q 103 172 138 88 q 69 354 69 257 q 163 625 69 524 q 419 726 256 726 m 336 949 q 414 1024 336 1024 q 490 949 490 1024 q 472 897 490 917 q 414 876 454 876 q 354 897 372 876 q 336 949 336 917 z "},"d":{"ha":863,"x_min":69,"x_max":754,"o":"m 754 0 l 644 0 q 635 106 635 61 l 632 106 q 379 -19 553 -19 q 149 83 229 -19 q 69 351 69 186 q 109 542 69 457 q 222 677 149 628 q 396 726 296 726 q 626 635 538 726 l 626 983 l 744 983 l 744 157 q 754 0 744 81 m 626 304 l 626 526 q 533 605 585 579 q 413 631 481 631 q 251 553 310 631 q 192 351 192 475 q 249 149 192 224 q 406 75 306 75 q 566 140 506 75 q 626 304 626 204 z "},"ð":{"ha":871,"x_min":69,"x_max":794,"o":"m 794 443 q 755 207 794 311 q 633 42 715 103 q 429 -19 551 -19 q 238 24 319 -19 q 113 144 157 67 q 69 326 69 222 q 112 514 69 433 q 231 639 154 594 q 408 683 308 683 q 553 655 490 683 q 668 568 617 626 q 463 847 636 742 l 321 774 l 283 838 l 382 889 q 268 929 329 910 l 314 1007 q 479 940 414 975 l 606 1007 l 643 942 l 556 896 q 731 710 668 825 q 794 443 794 596 m 671 447 q 558 553 618 517 q 417 589 499 589 q 253 518 313 589 q 193 322 193 447 q 255 145 193 208 q 428 82 317 82 q 613 178 556 82 q 671 447 671 274 z "},"ď":{"ha":929,"x_min":69,"x_max":954,"o":"m 754 0 l 644 0 q 635 106 635 61 l 632 106 q 379 -19 553 -19 q 149 83 229 -19 q 69 351 69 186 q 109 542 69 457 q 222 677 149 628 q 396 726 296 726 q 626 635 538 726 l 626 983 l 744 983 l 744 157 q 754 0 744 81 m 626 304 l 626 526 q 533 605 585 579 q 413 631 481 631 q 251 553 310 631 q 192 351 192 475 q 249 149 192 224 q 406 75 306 75 q 566 140 506 75 q 626 304 626 204 m 888 756 l 815 774 l 856 1007 l 954 979 l 888 756 z "},"đ":{"ha":863,"x_min":69,"x_max":846,"o":"m 744 814 l 744 157 q 754 0 744 81 l 644 0 q 635 106 635 61 l 632 106 q 379 -19 553 -19 q 149 83 229 -19 q 69 351 69 186 q 109 542 69 457 q 222 677 149 628 q 396 726 296 726 q 626 635 538 726 l 626 814 l 406 814 l 406 893 l 626 893 l 626 983 l 744 983 l 744 893 l 846 893 l 846 814 l 744 814 m 626 304 l 626 526 q 533 605 585 579 q 413 631 481 631 q 251 553 310 631 q 192 351 192 475 q 249 149 192 224 q 406 75 306 75 q 566 140 506 75 q 626 304 626 204 z "},"e":{"ha":785,"x_min":69,"x_max":717,"o":"m 714 311 l 189 311 q 254 139 196 203 q 421 75 313 75 q 535 92 485 75 q 638 144 586 110 l 690 68 q 563 3 631 25 q 414 -19 496 -19 q 160 83 251 -19 q 69 357 69 186 q 108 550 69 467 q 222 680 147 633 q 400 726 296 726 q 635 626 554 726 q 717 361 717 526 q 714 311 717 328 m 601 403 q 547 572 599 508 q 399 636 496 636 q 246 570 300 636 q 188 403 192 504 l 601 403 z "},"é":{"ha":785,"x_min":69,"x_max":717,"o":"m 714 311 l 189 311 q 254 139 196 203 q 421 75 313 75 q 535 92 485 75 q 638 144 586 110 l 690 68 q 563 3 631 25 q 414 -19 496 -19 q 160 83 251 -19 q 69 357 69 186 q 108 550 69 467 q 222 680 147 633 q 400 726 296 726 q 635 626 554 726 q 717 361 717 526 q 714 311 717 328 m 601 403 q 547 572 599 508 q 399 636 496 636 q 246 570 300 636 q 188 403 192 504 l 601 403 m 326 800 l 281 864 l 504 1046 l 563 960 l 326 800 z "},"ĕ":{"ha":785,"x_min":69,"x_max":717,"o":"m 714 311 l 189 311 q 254 139 196 203 q 421 75 313 75 q 535 92 485 75 q 638 144 586 110 l 690 68 q 563 3 631 25 q 414 -19 496 -19 q 160 83 251 -19 q 69 357 69 186 q 108 550 69 467 q 222 680 147 633 q 400 726 296 726 q 635 626 554 726 q 717 361 717 526 q 714 311 717 328 m 601 403 q 547 572 599 508 q 399 636 496 636 q 246 570 300 636 q 188 403 192 504 l 601 403 m 611 996 q 545 853 597 901 q 406 804 493 804 q 266 853 318 804 q 200 996 214 901 l 272 1004 q 406 889 300 889 q 539 1004 511 889 l 611 996 z "},"ě":{"ha":785,"x_min":69,"x_max":717,"o":"m 714 311 l 189 311 q 254 139 196 203 q 421 75 313 75 q 535 92 485 75 q 638 144 586 110 l 690 68 q 563 3 631 25 q 414 -19 496 -19 q 160 83 251 -19 q 69 357 69 186 q 108 550 69 467 q 222 680 147 633 q 400 726 296 726 q 635 626 554 726 q 717 361 717 526 q 714 311 717 328 m 601 403 q 547 572 599 508 q 399 636 496 636 q 246 570 300 636 q 188 403 192 504 l 601 403 m 629 978 l 453 808 l 358 808 l 183 978 l 231 1031 l 406 886 l 581 1029 l 629 978 z "},"ê":{"ha":785,"x_min":69,"x_max":717,"o":"m 714 311 l 189 311 q 254 139 196 203 q 421 75 313 75 q 535 92 485 75 q 638 144 586 110 l 690 68 q 563 3 631 25 q 414 -19 496 -19 q 160 83 251 -19 q 69 357 69 186 q 108 550 69 467 q 222 680 147 633 q 400 726 296 726 q 635 626 554 726 q 717 361 717 526 q 714 311 717 328 m 601 403 q 547 572 599 508 q 399 636 496 636 q 246 570 300 636 q 188 403 192 504 l 601 403 m 628 851 l 581 803 l 406 944 l 231 800 l 183 851 l 358 1022 l 453 1022 l 628 851 z "},"ë":{"ha":785,"x_min":69,"x_max":717,"o":"m 714 311 l 189 311 q 254 139 196 203 q 421 75 313 75 q 535 92 485 75 q 638 144 586 110 l 690 68 q 563 3 631 25 q 414 -19 496 -19 q 160 83 251 -19 q 69 357 69 186 q 108 550 69 467 q 222 680 147 633 q 400 726 296 726 q 635 626 554 726 q 717 361 717 526 q 714 311 717 328 m 601 403 q 547 572 599 508 q 399 636 496 636 q 246 570 300 636 q 188 403 192 504 l 601 403 m 207 915 q 224 967 207 947 q 278 986 240 986 q 347 915 347 986 q 278 846 347 846 q 224 865 240 846 q 207 915 207 885 m 464 915 q 535 986 464 986 q 588 967 571 986 q 604 915 604 947 q 588 865 604 885 q 535 846 571 846 q 464 915 464 846 z "},"ė":{"ha":785,"x_min":69,"x_max":717,"o":"m 714 311 l 189 311 q 254 139 196 203 q 421 75 313 75 q 535 92 485 75 q 638 144 586 110 l 690 68 q 563 3 631 25 q 414 -19 496 -19 q 160 83 251 -19 q 69 357 69 186 q 108 550 69 467 q 222 680 147 633 q 400 726 296 726 q 635 626 554 726 q 717 361 717 526 q 714 311 717 328 m 601 403 q 547 572 599 508 q 399 636 496 636 q 246 570 300 636 q 188 403 192 504 l 601 403 m 329 949 q 407 1024 329 1024 q 483 949 483 1024 q 465 897 483 917 q 407 876 447 876 q 347 897 365 876 q 329 949 329 917 z "},"è":{"ha":785,"x_min":69,"x_max":717,"o":"m 714 311 l 189 311 q 254 139 196 203 q 421 75 313 75 q 535 92 485 75 q 638 144 586 110 l 690 68 q 563 3 631 25 q 414 -19 496 -19 q 160 83 251 -19 q 69 357 69 186 q 108 550 69 467 q 222 680 147 633 q 400 726 296 726 q 635 626 554 726 q 717 361 717 526 q 714 311 717 328 m 601 403 q 547 572 599 508 q 399 636 496 636 q 246 570 300 636 q 188 403 192 504 l 601 403 m 308 1046 l 532 864 l 485 800 l 250 960 l 308 1046 z "},"ē":{"ha":785,"x_min":69,"x_max":717,"o":"m 714 311 l 189 311 q 254 139 196 203 q 421 75 313 75 q 535 92 485 75 q 638 144 586 110 l 690 68 q 563 3 631 25 q 414 -19 496 -19 q 160 83 251 -19 q 69 357 69 186 q 108 550 69 467 q 222 680 147 633 q 400 726 296 726 q 635 626 554 726 q 717 361 717 526 q 714 311 717 328 m 601 403 q 547 572 599 508 q 399 636 496 636 q 246 570 300 636 q 188 403 192 504 l 601 403 m 597 849 l 215 849 l 215 931 l 597 931 l 597 849 z "},"ę":{"ha":785,"x_min":69,"x_max":717,"o":"m 714 311 l 189 311 q 254 139 196 203 q 421 75 313 75 q 535 92 485 75 q 638 144 586 110 l 690 68 q 582 10 640 33 q 433 -185 433 -97 q 453 -235 433 -218 q 507 -253 474 -253 q 597 -229 550 -253 l 622 -296 q 494 -331 565 -331 q 387 -297 429 -331 q 344 -200 344 -262 q 460 -18 344 -99 q 414 -19 444 -19 q 160 83 251 -19 q 69 357 69 186 q 108 550 69 467 q 222 680 147 633 q 400 726 296 726 q 635 626 554 726 q 717 361 717 526 q 714 311 717 328 m 601 403 q 547 572 599 508 q 399 636 496 636 q 246 570 300 636 q 188 403 192 504 l 601 403 z "},"f":{"ha":458,"x_min":21,"x_max":506,"o":"m 506 985 l 479 900 q 393 908 435 910 q 263 765 263 907 l 263 707 l 440 707 l 440 617 l 263 617 l 263 0 l 144 0 l 144 617 l 21 617 l 21 692 l 144 707 l 144 768 q 204 941 144 881 q 382 1003 264 1001 q 506 985 450 1003 z "},"g":{"ha":767,"x_min":28,"x_max":735,"o":"m 28 -144 q 62 -37 28 -85 q 174 50 96 11 q 106 143 106 81 q 133 210 106 181 q 208 253 160 239 q 106 333 143 279 q 69 471 69 388 q 147 657 69 589 q 364 725 225 725 q 427 721 401 725 q 489 707 453 717 l 735 707 l 735 613 l 578 629 q 632 563 611 606 q 653 460 653 519 q 576 284 653 347 q 363 221 500 221 q 253 203 293 221 q 214 153 214 185 q 349 94 214 96 q 633 42 544 92 q 721 -107 721 -7 q 622 -292 721 -226 q 343 -357 522 -357 q 108 -301 188 -357 q 28 -144 28 -246 m 543 469 q 497 592 543 546 q 361 638 451 638 q 228 593 278 638 q 179 474 179 549 q 224 350 179 394 q 361 306 269 306 q 543 469 543 306 m 604 -117 q 573 -49 604 -75 q 467 -8 542 -22 q 261 6 392 6 q 171 -58 199 -22 q 143 -139 143 -93 q 347 -268 143 -268 q 539 -229 474 -268 q 604 -117 604 -190 z "},"ğ":{"ha":767,"x_min":28,"x_max":735,"o":"m 28 -144 q 62 -37 28 -85 q 174 50 96 11 q 106 143 106 81 q 133 210 106 181 q 208 253 160 239 q 106 333 143 279 q 69 471 69 388 q 147 657 69 589 q 364 725 225 725 q 427 721 401 725 q 489 707 453 717 l 735 707 l 735 613 l 578 629 q 632 563 611 606 q 653 460 653 519 q 576 284 653 347 q 363 221 500 221 q 253 203 293 221 q 214 153 214 185 q 349 94 214 96 q 633 42 544 92 q 721 -107 721 -7 q 622 -292 721 -226 q 343 -357 522 -357 q 108 -301 188 -357 q 28 -144 28 -246 m 543 469 q 497 592 543 546 q 361 638 451 638 q 228 593 278 638 q 179 474 179 549 q 224 350 179 394 q 361 306 269 306 q 543 469 543 306 m 604 -117 q 573 -49 604 -75 q 467 -8 542 -22 q 261 6 392 6 q 171 -58 199 -22 q 143 -139 143 -93 q 347 -268 143 -268 q 539 -229 474 -268 q 604 -117 604 -190 m 574 996 q 508 853 560 901 q 368 804 456 804 q 228 853 281 804 q 163 996 176 901 l 235 1004 q 368 889 263 889 q 501 1004 474 889 l 574 996 z "},"ĝ":{"ha":767,"x_min":28,"x_max":735,"o":"m 28 -144 q 62 -37 28 -85 q 174 50 96 11 q 106 143 106 81 q 133 210 106 181 q 208 253 160 239 q 106 333 143 279 q 69 471 69 388 q 147 657 69 589 q 364 725 225 725 q 427 721 401 725 q 489 707 453 717 l 735 707 l 735 613 l 578 629 q 632 563 611 606 q 653 460 653 519 q 576 284 653 347 q 363 221 500 221 q 253 203 293 221 q 214 153 214 185 q 349 94 214 96 q 633 42 544 92 q 721 -107 721 -7 q 622 -292 721 -226 q 343 -357 522 -357 q 108 -301 188 -357 q 28 -144 28 -246 m 543 469 q 497 592 543 546 q 361 638 451 638 q 228 593 278 638 q 179 474 179 549 q 224 350 179 394 q 361 306 269 306 q 543 469 543 306 m 604 -117 q 573 -49 604 -75 q 467 -8 542 -22 q 261 6 392 6 q 171 -58 199 -22 q 143 -139 143 -93 q 347 -268 143 -268 q 539 -229 474 -268 q 604 -117 604 -190 m 589 851 l 542 803 l 367 944 l 192 800 l 144 851 l 319 1022 l 414 1022 l 589 851 z "},"ģ":{"ha":767,"x_min":28,"x_max":735,"o":"m 28 -144 q 62 -37 28 -85 q 174 50 96 11 q 106 143 106 81 q 133 210 106 181 q 208 253 160 239 q 106 333 143 279 q 69 471 69 388 q 147 657 69 589 q 364 725 225 725 q 427 721 401 725 q 489 707 453 717 l 735 707 l 735 613 l 578 629 q 632 563 611 606 q 653 460 653 519 q 576 284 653 347 q 363 221 500 221 q 253 203 293 221 q 214 153 214 185 q 349 94 214 96 q 633 42 544 92 q 721 -107 721 -7 q 622 -292 721 -226 q 343 -357 522 -357 q 108 -301 188 -357 q 28 -144 28 -246 m 543 469 q 497 592 543 546 q 361 638 451 638 q 228 593 278 638 q 179 474 179 549 q 224 350 179 394 q 361 306 269 306 q 543 469 543 306 m 604 -117 q 573 -49 604 -75 q 467 -8 542 -22 q 261 6 392 6 q 171 -58 199 -22 q 143 -139 143 -93 q 347 -268 143 -268 q 539 -229 474 -268 q 604 -117 604 -190 m 446 1113 q 394 974 399 1039 q 435 917 435 964 q 365 854 435 854 q 294 921 294 854 q 317 1019 294 967 q 394 1138 340 1071 l 446 1113 z "},"ġ":{"ha":767,"x_min":28,"x_max":735,"o":"m 28 -144 q 62 -37 28 -85 q 174 50 96 11 q 106 143 106 81 q 133 210 106 181 q 208 253 160 239 q 106 333 143 279 q 69 471 69 388 q 147 657 69 589 q 364 725 225 725 q 427 721 401 725 q 489 707 453 717 l 735 707 l 735 613 l 578 629 q 632 563 611 606 q 653 460 653 519 q 576 284 653 347 q 363 221 500 221 q 253 203 293 221 q 214 153 214 185 q 349 94 214 96 q 633 42 544 92 q 721 -107 721 -7 q 622 -292 721 -226 q 343 -357 522 -357 q 108 -301 188 -357 q 28 -144 28 -246 m 543 469 q 497 592 543 546 q 361 638 451 638 q 228 593 278 638 q 179 474 179 549 q 224 350 179 394 q 361 306 269 306 q 543 469 543 306 m 604 -117 q 573 -49 604 -75 q 467 -8 542 -22 q 261 6 392 6 q 171 -58 199 -22 q 143 -139 143 -93 q 347 -268 143 -268 q 539 -229 474 -268 q 604 -117 604 -190 m 290 949 q 368 1024 290 1024 q 444 949 444 1024 q 426 897 444 917 q 368 876 408 876 q 308 897 326 876 q 290 949 290 917 z "},"h":{"ha":854,"x_min":121,"x_max":744,"o":"m 121 983 l 239 983 l 239 608 l 242 608 q 336 694 276 661 q 483 726 396 726 q 681 649 617 726 q 744 457 744 572 l 744 0 l 626 0 l 626 433 q 585 573 626 518 q 450 628 543 628 q 297 565 354 628 q 239 406 239 501 l 239 0 l 121 0 l 121 983 z "},"ħ":{"ha":854,"x_min":17,"x_max":744,"o":"m 744 457 l 744 0 l 626 0 l 626 433 q 585 573 626 518 q 450 628 543 628 q 297 565 354 628 q 239 406 239 501 l 239 0 l 121 0 l 121 814 l 17 814 l 17 893 l 121 893 l 121 983 l 239 983 l 239 893 l 457 893 l 457 814 l 239 814 l 239 608 l 242 608 q 336 694 276 661 q 483 726 396 726 q 681 649 617 726 q 744 457 744 572 z "},"ĥ":{"ha":854,"x_min":121,"x_max":744,"o":"m 121 983 l 239 983 l 239 608 l 242 608 q 336 694 276 661 q 483 726 396 726 q 681 649 617 726 q 744 457 744 572 l 744 0 l 626 0 l 626 433 q 585 573 626 518 q 450 628 543 628 q 297 565 354 628 q 239 406 239 501 l 239 0 l 121 0 l 121 983 m 647 1131 l 603 1076 l 428 1194 l 254 1075 l 210 1131 l 381 1268 l 474 1268 l 647 1131 z "},"i":{"ha":358,"x_min":103,"x_max":257,"o":"m 239 0 l 121 0 l 121 707 l 239 707 l 239 0 m 103 949 q 181 1024 103 1024 q 257 949 257 1024 q 239 897 257 917 q 181 876 221 876 q 121 897 139 876 q 103 949 103 917 z "},"ı":{"ha":358,"x_min":121,"x_max":239,"o":"m 239 0 l 121 0 l 121 707 l 239 707 l 239 0 z "},"í":{"ha":358,"x_min":54,"x_max":336,"o":"m 239 0 l 121 0 l 121 707 l 239 707 l 239 0 m 100 800 l 54 864 l 278 1046 l 336 960 l 100 800 z "},"ĭ":{"ha":358,"x_min":-26,"x_max":385,"o":"m 239 0 l 121 0 l 121 707 l 239 707 l 239 0 m 385 996 q 319 853 371 901 q 179 804 267 804 q 40 853 92 804 q -26 996 -12 901 l 46 1004 q 179 889 74 889 q 313 1004 285 889 l 385 996 z "},"î":{"ha":358,"x_min":-43,"x_max":401,"o":"m 239 0 l 121 0 l 121 707 l 239 707 l 239 0 m 401 851 l 354 803 l 179 944 l 4 800 l -43 851 l 132 1022 l 226 1022 l 401 851 z "},"ï":{"ha":358,"x_min":-19,"x_max":378,"o":"m 239 0 l 121 0 l 121 707 l 239 707 l 239 0 m -19 915 q -3 967 -19 947 q 51 986 14 986 q 121 915 121 986 q 51 846 121 846 q -3 865 14 846 q -19 915 -19 885 m 238 915 q 308 986 238 986 q 361 967 344 986 q 378 915 378 947 q 361 865 378 885 q 308 846 344 846 q 238 915 238 846 z "},"ì":{"ha":358,"x_min":24,"x_max":306,"o":"m 239 0 l 121 0 l 121 707 l 239 707 l 239 0 m 82 1046 l 306 864 l 258 800 l 24 960 l 82 1046 z "},"ĳ":{"ha":718,"x_min":103,"x_max":615,"o":"m 103 949 q 181 1024 103 1024 q 257 949 257 1024 q 239 897 257 917 q 181 876 221 876 q 121 897 139 876 q 103 949 103 917 m 461 949 q 539 1024 461 1024 q 615 949 615 1024 q 597 897 615 917 q 539 876 579 876 q 479 897 497 876 q 461 949 461 917 m 239 0 l 121 0 l 121 707 l 239 707 l 239 0 m 596 -124 q 388 -358 596 -358 q 310 -347 347 -358 l 331 -260 q 372 -264 350 -264 q 454 -230 431 -264 q 478 -125 478 -196 l 478 707 l 596 707 l 596 -124 z "},"ī":{"ha":358,"x_min":-12,"x_max":369,"o":"m 239 0 l 121 0 l 121 707 l 239 707 l 239 0 m 369 849 l -12 849 l -12 931 l 369 931 l 369 849 z "},"į":{"ha":358,"x_min":-21,"x_max":257,"o":"m 103 949 q 181 1024 103 1024 q 257 949 257 1024 q 239 897 257 917 q 181 876 221 876 q 121 897 139 876 q 103 949 103 917 m 232 -229 l 257 -296 q 129 -331 200 -331 q 22 -297 64 -331 q -21 -200 -21 -262 q 17 -90 -21 -143 q 121 6 54 -37 l 121 707 l 239 707 l 239 0 l 211 0 q 103 -95 138 -51 q 68 -185 68 -139 q 88 -235 68 -218 q 142 -253 108 -253 q 232 -229 185 -253 z "},"ĩ":{"ha":358,"x_min":-37,"x_max":397,"o":"m 239 0 l 121 0 l 121 707 l 239 707 l 239 0 m -37 849 q 103 965 14 965 q 147 956 126 965 q 193 928 168 946 q 210 917 197 925 q 235 904 224 908 q 256 900 246 900 q 298 915 279 900 q 336 963 317 929 l 397 936 q 339 849 374 878 q 257 821 304 821 q 213 831 233 821 q 168 857 192 840 q 133 878 147 871 q 104 885 119 885 q 62 870 81 885 q 24 824 43 856 l -37 849 z "},"j":{"ha":358,"x_min":-49,"x_max":257,"o":"m 238 -124 q 29 -358 238 -358 q -49 -347 -11 -358 l -28 -260 q 14 -264 -10 -264 q 96 -230 72 -264 q 119 -125 119 -196 l 119 707 l 238 707 l 238 -124 m 103 949 q 181 1024 103 1024 q 257 949 257 1024 q 239 897 257 917 q 181 876 221 876 q 121 897 139 876 q 103 949 103 917 z "},"ȷ":{"ha":358,"x_min":-49,"x_max":238,"o":"m 238 -124 q 29 -358 238 -358 q -49 -347 -11 -358 l -28 -260 q 14 -264 -10 -264 q 96 -230 72 -264 q 119 -125 119 -196 l 119 707 l 238 707 l 238 -124 z "},"ĵ":{"ha":358,"x_min":-49,"x_max":401,"o":"m 238 -124 q 29 -358 238 -358 q -49 -347 -11 -358 l -28 -260 q 14 -264 -10 -264 q 96 -230 72 -264 q 119 -125 119 -196 l 119 707 l 238 707 l 238 -124 m 401 851 l 354 803 l 179 944 l 4 800 l -43 851 l 132 1022 l 226 1022 l 401 851 z "},"k":{"ha":735,"x_min":121,"x_max":732,"o":"m 307 339 l 239 275 l 239 0 l 121 0 l 121 983 l 239 983 l 239 408 l 560 707 l 701 707 l 389 415 l 732 0 l 585 0 l 307 339 z "},"ķ":{"ha":735,"x_min":121,"x_max":732,"o":"m 307 339 l 239 275 l 239 0 l 121 0 l 121 983 l 239 983 l 239 408 l 560 707 l 701 707 l 389 415 l 732 0 l 585 0 l 307 339 m 333 -346 q 385 -207 381 -272 q 344 -150 344 -197 q 414 -87 344 -87 q 485 -154 485 -87 q 462 -252 485 -200 q 385 -371 439 -304 l 333 -346 z "},"ĸ":{"ha":735,"x_min":121,"x_max":732,"o":"m 307 317 l 239 249 l 239 0 l 121 0 l 121 707 l 239 707 l 239 382 l 560 707 l 701 707 l 386 394 l 732 0 l 586 0 l 307 317 z "},"l":{"ha":358,"x_min":121,"x_max":239,"o":"m 239 983 l 239 0 l 121 0 l 121 983 l 239 983 z "},"ĺ":{"ha":358,"x_min":49,"x_max":338,"o":"m 239 983 l 239 0 l 121 0 l 121 983 l 239 983 m 89 1074 l 49 1138 l 288 1293 l 338 1204 l 89 1074 z "},"ľ":{"ha":418,"x_min":121,"x_max":444,"o":"m 239 983 l 239 0 l 121 0 l 121 983 l 239 983 m 378 756 l 306 774 l 346 1007 l 444 979 l 378 756 z "},"ļ":{"ha":358,"x_min":99,"x_max":250,"o":"m 239 983 l 239 0 l 121 0 l 121 983 l 239 983 m 99 -346 q 150 -207 146 -272 q 110 -150 110 -197 q 179 -87 110 -87 q 250 -154 250 -87 q 227 -252 250 -200 q 150 -371 204 -304 l 99 -346 z "},"ŀ":{"ha":396,"x_min":121,"x_max":454,"o":"m 239 983 l 239 0 l 121 0 l 121 983 l 239 983 m 300 474 q 378 549 300 549 q 454 474 454 549 q 436 422 454 442 q 378 401 418 401 q 318 422 336 401 q 300 474 300 442 z "},"ł":{"ha":374,"x_min":8,"x_max":365,"o":"m 246 442 l 246 0 l 128 0 l 128 378 l 44 333 l 8 408 l 128 474 l 128 983 l 246 983 l 246 538 l 329 582 l 365 506 l 246 442 z "},"m":{"ha":1319,"x_min":110,"x_max":1210,"o":"m 119 549 q 110 707 119 626 l 222 707 q 232 607 229 669 l 235 607 q 328 693 268 660 q 468 726 389 726 q 615 688 558 726 q 699 583 672 650 l 701 583 q 800 688 738 650 q 950 726 863 726 q 1096 688 1038 726 q 1182 588 1154 650 q 1210 453 1210 526 l 1210 0 l 1092 0 l 1092 436 q 1052 574 1092 518 q 925 629 1013 629 q 815 596 861 629 q 746 507 769 563 q 722 388 722 451 l 722 0 l 604 0 l 604 439 q 564 574 604 519 q 438 629 524 629 q 292 565 346 629 q 238 406 238 500 l 238 0 l 119 0 l 119 549 z "},"n":{"ha":853,"x_min":110,"x_max":743,"o":"m 119 549 q 110 707 119 626 l 222 707 q 232 607 229 669 l 235 607 q 332 694 269 661 q 481 726 394 726 q 678 649 614 726 q 743 457 743 572 l 743 0 l 625 0 l 625 433 q 583 573 625 518 q 449 628 542 628 q 295 565 353 628 q 238 406 238 501 l 238 0 l 119 0 l 119 549 z "},"ń":{"ha":853,"x_min":110,"x_max":743,"o":"m 119 549 q 110 707 119 626 l 222 707 q 232 607 229 669 l 235 607 q 332 694 269 661 q 481 726 394 726 q 678 649 614 726 q 743 457 743 572 l 743 0 l 625 0 l 625 433 q 583 573 625 518 q 449 628 542 628 q 295 565 353 628 q 238 406 238 501 l 238 0 l 119 0 l 119 549 m 360 800 l 314 864 l 538 1046 l 596 960 l 360 800 z "},"ŉ":{"ha":853,"x_min":49,"x_max":743,"o":"m 119 549 q 110 707 119 626 l 222 707 q 232 607 229 669 l 235 607 q 332 694 269 661 q 481 726 394 726 q 678 649 614 726 q 743 457 743 572 l 743 0 l 625 0 l 625 433 q 583 573 625 518 q 449 628 542 628 q 295 565 353 628 q 238 406 238 501 l 238 0 l 119 0 l 119 549 m 49 807 q 100 946 93 878 q 58 1001 58 956 q 128 1064 58 1064 q 199 999 199 1064 q 176 901 199 953 q 100 782 154 850 l 49 807 z "},"ň":{"ha":853,"x_min":110,"x_max":743,"o":"m 119 549 q 110 707 119 626 l 222 707 q 232 607 229 669 l 235 607 q 332 694 269 661 q 481 726 394 726 q 678 649 614 726 q 743 457 743 572 l 743 0 l 625 0 l 625 433 q 583 573 625 518 q 449 628 542 628 q 295 565 353 628 q 238 406 238 501 l 238 0 l 119 0 l 119 549 m 664 978 l 488 808 l 393 808 l 218 978 l 265 1031 l 440 886 l 615 1029 l 664 978 z "},"ņ":{"ha":853,"x_min":110,"x_max":743,"o":"m 119 549 q 110 707 119 626 l 222 707 q 232 607 229 669 l 235 607 q 332 694 269 661 q 481 726 394 726 q 678 649 614 726 q 743 457 743 572 l 743 0 l 625 0 l 625 433 q 583 573 625 518 q 449 628 542 628 q 295 565 353 628 q 238 406 238 501 l 238 0 l 119 0 l 119 549 m 349 -346 q 400 -207 396 -272 q 360 -150 360 -197 q 429 -87 360 -87 q 500 -154 500 -87 q 477 -252 500 -200 q 400 -371 454 -304 l 349 -346 z "},"ŋ":{"ha":853,"x_min":110,"x_max":743,"o":"m 743 457 l 743 -124 q 535 -358 743 -358 q 457 -347 494 -358 l 478 -260 q 519 -264 494 -264 q 601 -230 578 -264 q 625 -125 625 -196 l 625 433 q 583 573 625 518 q 449 628 542 628 q 295 565 353 628 q 238 406 238 501 l 238 0 l 119 0 l 119 549 q 110 707 119 626 l 222 707 q 232 607 229 669 l 235 607 q 332 694 269 661 q 481 726 394 726 q 678 649 614 726 q 743 457 743 572 z "},"ñ":{"ha":853,"x_min":110,"x_max":743,"o":"m 119 549 q 110 707 119 626 l 222 707 q 232 607 229 669 l 235 607 q 332 694 269 661 q 481 726 394 726 q 678 649 614 726 q 743 457 743 572 l 743 0 l 625 0 l 625 433 q 583 573 625 518 q 449 628 542 628 q 295 565 353 628 q 238 406 238 501 l 238 0 l 119 0 l 119 549 m 224 849 q 364 965 275 965 q 408 956 388 965 q 454 928 429 946 q 472 917 458 925 q 496 904 485 908 q 517 900 507 900 q 559 915 540 900 q 597 963 578 929 l 658 936 q 600 849 635 878 q 518 821 565 821 q 474 831 494 821 q 429 857 453 840 q 394 878 408 871 q 365 885 381 885 q 323 870 342 885 q 285 824 304 856 l 224 849 z "},"o":{"ha":849,"x_min":69,"x_max":779,"o":"m 779 356 q 737 160 779 246 q 615 28 694 75 q 424 -19 535 -19 q 233 28 314 -19 q 111 161 153 76 q 69 356 69 246 q 163 626 69 525 q 424 726 256 726 q 616 680 536 726 q 738 550 696 633 q 779 356 779 467 m 192 356 q 249 152 192 229 q 424 75 307 75 q 600 152 542 75 q 658 356 658 229 q 600 557 658 482 q 424 632 542 632 q 249 557 306 632 q 192 356 192 482 z "},"ó":{"ha":849,"x_min":69,"x_max":779,"o":"m 779 356 q 737 160 779 246 q 615 28 694 75 q 424 -19 535 -19 q 233 28 314 -19 q 111 161 153 76 q 69 356 69 246 q 163 626 69 525 q 424 726 256 726 q 616 680 536 726 q 738 550 696 633 q 779 356 779 467 m 192 356 q 249 152 192 229 q 424 75 307 75 q 600 152 542 75 q 658 356 658 229 q 600 557 658 482 q 424 632 542 632 q 249 557 306 632 q 192 356 192 482 m 344 800 l 299 864 l 522 1046 l 581 960 l 344 800 z "},"ŏ":{"ha":849,"x_min":69,"x_max":779,"o":"m 779 356 q 737 160 779 246 q 615 28 694 75 q 424 -19 535 -19 q 233 28 314 -19 q 111 161 153 76 q 69 356 69 246 q 163 626 69 525 q 424 726 256 726 q 616 680 536 726 q 738 550 696 633 q 779 356 779 467 m 192 356 q 249 152 192 229 q 424 75 307 75 q 600 152 542 75 q 658 356 658 229 q 600 557 658 482 q 424 632 542 632 q 249 557 306 632 q 192 356 192 482 m 631 996 q 565 853 617 901 q 425 804 513 804 q 285 853 338 804 q 219 996 233 901 l 292 1004 q 425 889 319 889 q 558 1004 531 889 l 631 996 z "},"ô":{"ha":849,"x_min":69,"x_max":779,"o":"m 779 356 q 737 160 779 246 q 615 28 694 75 q 424 -19 535 -19 q 233 28 314 -19 q 111 161 153 76 q 69 356 69 246 q 163 626 69 525 q 424 726 256 726 q 616 680 536 726 q 738 550 696 633 q 779 356 779 467 m 192 356 q 249 152 192 229 q 424 75 307 75 q 600 152 542 75 q 658 356 658 229 q 600 557 658 482 q 424 632 542 632 q 249 557 306 632 q 192 356 192 482 m 646 851 l 599 803 l 424 944 l 249 800 l 201 851 l 376 1022 l 471 1022 l 646 851 z "},"ö":{"ha":849,"x_min":69,"x_max":779,"o":"m 779 356 q 737 160 779 246 q 615 28 694 75 q 424 -19 535 -19 q 233 28 314 -19 q 111 161 153 76 q 69 356 69 246 q 163 626 69 525 q 424 726 256 726 q 616 680 536 726 q 738 550 696 633 q 779 356 779 467 m 192 356 q 249 152 192 229 q 424 75 307 75 q 600 152 542 75 q 658 356 658 229 q 600 557 658 482 q 424 632 542 632 q 249 557 306 632 q 192 356 192 482 m 225 915 q 242 967 225 947 q 296 986 258 986 q 365 915 365 986 q 296 846 365 846 q 242 865 258 846 q 225 915 225 885 m 482 915 q 553 986 482 986 q 606 967 589 986 q 622 915 622 947 q 606 865 622 885 q 553 846 589 846 q 482 915 482 846 z "},"ò":{"ha":849,"x_min":69,"x_max":779,"o":"m 779 356 q 737 160 779 246 q 615 28 694 75 q 424 -19 535 -19 q 233 28 314 -19 q 111 161 153 76 q 69 356 69 246 q 163 626 69 525 q 424 726 256 726 q 616 680 536 726 q 738 550 696 633 q 779 356 779 467 m 192 356 q 249 152 192 229 q 424 75 307 75 q 600 152 542 75 q 658 356 658 229 q 600 557 658 482 q 424 632 542 632 q 249 557 306 632 q 192 356 192 482 m 328 1046 l 551 864 l 504 800 l 269 960 l 328 1046 z "},"ő":{"ha":849,"x_min":69,"x_max":779,"o":"m 779 356 q 737 160 779 246 q 615 28 694 75 q 424 -19 535 -19 q 233 28 314 -19 q 111 161 153 76 q 69 356 69 246 q 163 626 69 525 q 424 726 256 726 q 616 680 536 726 q 738 550 696 633 q 779 356 779 467 m 192 356 q 249 152 192 229 q 424 75 307 75 q 600 152 542 75 q 658 356 658 229 q 600 557 658 482 q 424 632 542 632 q 249 557 306 632 q 192 356 192 482 m 349 797 l 292 826 l 413 1056 l 490 1013 l 349 797 m 519 789 l 464 824 l 599 1044 l 672 994 l 519 789 z "},"ō":{"ha":849,"x_min":69,"x_max":779,"o":"m 779 356 q 737 160 779 246 q 615 28 694 75 q 424 -19 535 -19 q 233 28 314 -19 q 111 161 153 76 q 69 356 69 246 q 163 626 69 525 q 424 726 256 726 q 616 680 536 726 q 738 550 696 633 q 779 356 779 467 m 192 356 q 249 152 192 229 q 424 75 307 75 q 600 152 542 75 q 658 356 658 229 q 600 557 658 482 q 424 632 542 632 q 249 557 306 632 q 192 356 192 482 m 615 849 l 233 849 l 233 931 l 615 931 l 615 849 z "},"ø":{"ha":849,"x_min":69,"x_max":779,"o":"m 779 356 q 737 160 779 246 q 615 28 694 75 q 424 -19 535 -19 q 381 -18 394 -19 l 354 -125 l 253 -103 l 283 4 q 125 136 181 43 q 69 356 69 229 q 163 626 69 525 q 424 726 256 726 q 468 725 454 726 l 494 831 l 596 810 l 567 703 q 724 574 669 665 q 779 356 779 483 m 317 94 l 456 633 q 422 635 446 635 q 247 559 304 635 q 189 356 189 483 q 220 190 189 257 q 317 94 251 122 m 660 356 q 628 518 660 451 q 533 614 597 585 l 393 75 q 422 74 403 74 q 601 151 542 74 q 660 356 660 228 z "},"õ":{"ha":849,"x_min":69,"x_max":779,"o":"m 779 356 q 737 160 779 246 q 615 28 694 75 q 424 -19 535 -19 q 233 28 314 -19 q 111 161 153 76 q 69 356 69 246 q 163 626 69 525 q 424 726 256 726 q 616 680 536 726 q 738 550 696 633 q 779 356 779 467 m 192 356 q 249 152 192 229 q 424 75 307 75 q 600 152 542 75 q 658 356 658 229 q 600 557 658 482 q 424 632 542 632 q 249 557 306 632 q 192 356 192 482 m 208 849 q 349 965 260 965 q 393 956 372 965 q 439 928 414 946 q 456 917 443 925 q 481 904 469 908 q 501 900 492 900 q 544 915 525 900 q 582 963 563 929 l 643 936 q 585 849 619 878 q 503 821 550 821 q 458 831 479 821 q 414 857 438 840 q 379 878 393 871 q 350 885 365 885 q 308 870 326 885 q 269 824 289 856 l 208 849 z "},"œ":{"ha":1328,"x_min":69,"x_max":1261,"o":"m 1258 311 l 756 311 q 819 140 763 204 q 975 75 875 75 q 1081 92 1032 75 q 1182 144 1129 110 l 1233 68 q 969 -19 1110 -19 q 694 150 779 -19 q 413 -19 608 -19 q 230 28 307 -19 q 111 161 153 76 q 69 356 69 246 q 110 550 69 467 q 228 680 151 633 q 413 726 306 726 q 693 558 610 726 q 960 726 778 726 q 1183 626 1104 726 q 1261 361 1261 525 q 1258 311 1261 344 m 1144 403 q 1094 572 1143 507 q 958 636 1044 636 q 812 569 865 636 q 754 403 758 503 l 1144 403 m 635 356 q 578 556 635 481 q 411 632 522 632 q 246 556 301 632 q 190 356 190 481 q 247 153 190 231 q 411 75 303 75 q 578 153 522 75 q 635 356 635 231 z "},"p":{"ha":864,"x_min":110,"x_max":796,"o":"m 796 354 q 757 164 796 249 q 644 30 718 79 q 469 -19 569 -19 q 238 68 335 -19 l 238 -339 l 119 -339 l 119 549 q 110 707 119 626 l 222 707 q 232 599 229 661 l 235 599 q 332 692 269 657 q 485 726 394 726 q 656 677 586 726 q 760 544 725 628 q 796 354 796 460 m 674 354 q 617 557 674 482 q 461 632 561 632 q 344 601 396 632 q 265 518 293 571 q 238 403 238 465 l 238 168 q 334 97 286 119 q 444 75 382 75 q 615 152 556 75 q 674 354 674 229 z "},"þ":{"ha":865,"x_min":121,"x_max":796,"o":"m 796 354 q 757 164 796 249 q 644 30 718 79 q 471 -19 571 -19 q 239 68 336 -19 l 239 -339 l 121 -339 l 121 983 l 239 983 l 239 604 l 242 604 q 335 693 274 660 q 486 726 396 726 q 657 677 588 726 q 761 544 726 628 q 796 354 796 460 m 675 354 q 619 557 675 482 q 463 632 563 632 q 346 601 397 632 q 267 516 294 569 q 239 399 239 463 l 239 168 q 335 97 288 119 q 446 75 383 75 q 616 152 557 75 q 675 354 675 229 z "},"q":{"ha":864,"x_min":69,"x_max":744,"o":"m 744 707 l 744 -339 l 626 -339 l 626 96 l 624 96 q 526 11 586 42 q 386 -19 465 -19 q 150 84 231 -19 q 69 353 69 188 q 110 542 69 457 q 224 677 150 628 q 394 726 297 726 q 635 628 539 726 l 649 707 l 744 707 m 626 304 l 626 526 q 533 604 585 578 q 413 631 481 631 q 251 553 310 631 q 192 353 192 476 q 249 149 192 224 q 406 75 306 75 q 565 140 504 75 q 626 304 626 204 z "},"r":{"ha":506,"x_min":110,"x_max":497,"o":"m 119 549 q 110 707 119 626 l 222 707 q 232 594 229 660 l 235 594 q 457 726 296 726 q 497 722 468 726 l 490 621 q 447 624 476 624 q 292 556 346 624 q 238 379 238 488 l 238 0 l 119 0 l 119 549 z "},"ŕ":{"ha":506,"x_min":110,"x_max":497,"o":"m 119 549 q 110 707 119 626 l 222 707 q 232 594 229 660 l 235 594 q 457 726 296 726 q 497 722 468 726 l 490 621 q 447 624 476 624 q 292 556 346 624 q 238 379 238 488 l 238 0 l 119 0 l 119 549 m 217 800 l 171 864 l 394 1046 l 453 960 l 217 800 z "},"ř":{"ha":506,"x_min":75,"x_max":521,"o":"m 119 549 q 110 707 119 626 l 222 707 q 232 594 229 660 l 235 594 q 457 726 296 726 q 497 722 468 726 l 490 621 q 447 624 476 624 q 292 556 346 624 q 238 379 238 488 l 238 0 l 119 0 l 119 549 m 521 978 l 344 808 l 250 808 l 75 978 l 122 1031 l 297 886 l 472 1029 l 521 978 z "},"ŗ":{"ha":506,"x_min":97,"x_max":497,"o":"m 119 549 q 110 707 119 626 l 222 707 q 232 594 229 660 l 235 594 q 457 726 296 726 q 497 722 468 726 l 490 621 q 447 624 476 624 q 292 556 346 624 q 238 379 238 488 l 238 0 l 119 0 l 119 549 m 97 -346 q 149 -207 144 -272 q 108 -150 108 -197 q 178 -87 108 -87 q 249 -154 249 -87 q 226 -252 249 -200 q 149 -371 203 -304 l 97 -346 z "},"s":{"ha":614,"x_min":35,"x_max":560,"o":"m 547 651 l 494 578 q 317 635 413 635 q 213 609 250 635 q 175 536 175 583 q 190 479 175 501 q 242 442 206 457 q 347 410 278 426 q 508 333 456 383 q 560 200 560 282 q 482 38 560 96 q 290 -19 404 -19 q 35 63 138 -19 l 89 136 q 182 89 136 104 q 286 74 228 74 q 398 104 357 74 q 439 192 439 135 q 424 252 439 229 q 373 290 408 275 q 267 324 338 306 q 107 399 157 351 q 57 529 57 446 q 127 673 57 619 q 313 726 197 726 q 547 651 449 726 z "},"ś":{"ha":614,"x_min":35,"x_max":560,"o":"m 547 651 l 494 578 q 317 635 413 635 q 213 609 250 635 q 175 536 175 583 q 190 479 175 501 q 242 442 206 457 q 347 410 278 426 q 508 333 456 383 q 560 200 560 282 q 482 38 560 96 q 290 -19 404 -19 q 35 63 138 -19 l 89 136 q 182 89 136 104 q 286 74 228 74 q 398 104 357 74 q 439 192 439 135 q 424 252 439 229 q 373 290 408 275 q 267 324 338 306 q 107 399 157 351 q 57 529 57 446 q 127 673 57 619 q 313 726 197 726 q 547 651 449 726 m 235 800 l 189 864 l 413 1046 l 471 960 l 235 800 z "},"š":{"ha":614,"x_min":35,"x_max":560,"o":"m 547 651 l 494 578 q 317 635 413 635 q 213 609 250 635 q 175 536 175 583 q 190 479 175 501 q 242 442 206 457 q 347 410 278 426 q 508 333 456 383 q 560 200 560 282 q 482 38 560 96 q 290 -19 404 -19 q 35 63 138 -19 l 89 136 q 182 89 136 104 q 286 74 228 74 q 398 104 357 74 q 439 192 439 135 q 424 252 439 229 q 373 290 408 275 q 267 324 338 306 q 107 399 157 351 q 57 529 57 446 q 127 673 57 619 q 313 726 197 726 q 547 651 449 726 m 539 978 l 363 808 l 268 808 l 93 978 l 140 1031 l 315 886 l 490 1029 l 539 978 z "},"ş":{"ha":614,"x_min":35,"x_max":560,"o":"m 336 -17 l 310 -89 q 349 -86 324 -86 q 431 -115 399 -86 q 464 -197 464 -144 q 416 -299 464 -265 q 296 -333 368 -333 q 153 -300 213 -333 l 182 -236 q 292 -261 232 -261 q 353 -245 332 -261 q 375 -199 375 -229 q 314 -146 375 -146 q 260 -153 288 -146 l 204 -153 l 257 -18 q 35 63 126 -10 l 89 136 q 182 89 136 104 q 286 74 228 74 q 398 104 357 74 q 439 192 439 135 q 424 252 439 229 q 373 290 408 275 q 267 324 338 306 q 107 399 157 351 q 57 529 57 446 q 127 673 57 619 q 313 726 197 726 q 547 651 449 726 l 494 578 q 317 635 413 635 q 213 609 250 635 q 175 536 175 583 q 190 479 175 501 q 242 442 206 457 q 347 410 278 426 q 508 333 456 383 q 560 200 560 282 q 497 51 560 107 q 336 -17 433 -6 z "},"ŝ":{"ha":614,"x_min":35,"x_max":560,"o":"m 547 651 l 494 578 q 317 635 413 635 q 213 609 250 635 q 175 536 175 583 q 190 479 175 501 q 242 442 206 457 q 347 410 278 426 q 508 333 456 383 q 560 200 560 282 q 482 38 560 96 q 290 -19 404 -19 q 35 63 138 -19 l 89 136 q 182 89 136 104 q 286 74 228 74 q 398 104 357 74 q 439 192 439 135 q 424 252 439 229 q 373 290 408 275 q 267 324 338 306 q 107 399 157 351 q 57 529 57 446 q 127 673 57 619 q 313 726 197 726 q 547 651 449 726 m 536 851 l 489 803 l 314 944 l 139 800 l 92 851 l 267 1022 l 361 1022 l 536 851 z "},"ș":{"ha":614,"x_min":35,"x_max":560,"o":"m 547 651 l 494 578 q 317 635 413 635 q 213 609 250 635 q 175 536 175 583 q 190 479 175 501 q 242 442 206 457 q 347 410 278 426 q 508 333 456 383 q 560 200 560 282 q 482 38 560 96 q 290 -19 404 -19 q 35 63 138 -19 l 89 136 q 182 89 136 104 q 286 74 228 74 q 398 104 357 74 q 439 192 439 135 q 424 252 439 229 q 373 290 408 275 q 267 324 338 306 q 107 399 157 351 q 57 529 57 446 q 127 673 57 619 q 313 726 197 726 q 547 651 449 726 m 221 -346 q 272 -207 268 -272 q 232 -150 232 -197 q 301 -87 232 -87 q 372 -154 372 -87 q 349 -252 372 -200 q 272 -371 326 -304 l 221 -346 z "},"ß":{"ha":857,"x_min":21,"x_max":813,"o":"m 340 17 l 375 101 q 499 76 435 76 q 637 131 581 76 q 693 281 693 185 q 633 438 693 385 q 454 510 572 490 l 454 583 l 561 863 q 407 913 493 913 q 263 764 263 913 l 263 0 l 144 0 l 144 617 l 21 617 l 21 692 l 144 707 l 144 768 q 210 942 144 881 q 400 1003 275 1003 q 685 896 546 1003 l 560 581 q 739 482 665 553 q 813 279 813 411 q 767 115 813 182 q 651 14 721 47 q 507 -19 581 -19 q 340 17 413 -19 z "},"t":{"ha":496,"x_min":21,"x_max":456,"o":"m 264 707 l 451 707 l 451 617 l 264 617 l 264 190 q 368 76 264 76 q 438 86 406 76 l 456 -1 q 346 -19 408 -19 q 199 33 253 -19 q 146 181 146 85 l 146 617 l 21 617 l 21 693 l 144 707 l 144 881 l 264 922 l 264 707 z "},"ŧ":{"ha":496,"x_min":21,"x_max":456,"o":"m 456 -1 q 346 -19 408 -19 q 199 33 253 -19 q 146 181 146 85 l 146 372 l 21 372 l 21 458 l 146 458 l 146 617 l 21 617 l 21 693 l 144 707 l 144 881 l 264 922 l 264 707 l 451 707 l 451 617 l 264 617 l 264 458 l 410 458 l 410 372 l 264 372 l 264 190 q 368 76 264 76 q 438 86 406 76 l 456 -1 z "},"ť":{"ha":496,"x_min":21,"x_max":501,"o":"m 264 707 l 451 707 l 451 617 l 264 617 l 264 190 q 368 76 264 76 q 438 86 406 76 l 456 -1 q 346 -19 408 -19 q 199 33 253 -19 q 146 181 146 85 l 146 617 l 21 617 l 21 693 l 144 707 l 144 881 l 264 922 l 264 707 m 435 756 l 363 774 l 403 1007 l 501 979 l 435 756 z "},"ţ":{"ha":496,"x_min":21,"x_max":478,"o":"m 478 -197 q 430 -299 478 -265 q 310 -333 382 -333 q 167 -300 226 -333 l 196 -236 q 306 -261 246 -261 q 367 -245 346 -261 q 389 -199 389 -229 q 328 -146 389 -146 q 274 -153 301 -146 l 218 -153 l 274 -10 q 179 56 213 7 q 146 181 146 104 l 146 617 l 21 617 l 21 693 l 144 707 l 144 881 l 264 922 l 264 707 l 451 707 l 451 617 l 264 617 l 264 190 q 368 76 264 76 q 438 86 406 76 l 456 -1 q 349 -19 408 -19 l 324 -89 q 363 -86 338 -86 q 445 -115 413 -86 q 478 -197 478 -144 z "},"ț":{"ha":496,"x_min":21,"x_max":456,"o":"m 264 707 l 451 707 l 451 617 l 264 617 l 264 190 q 368 76 264 76 q 438 86 406 76 l 456 -1 q 346 -19 408 -19 q 199 33 253 -19 q 146 181 146 85 l 146 617 l 21 617 l 21 693 l 144 707 l 144 881 l 264 922 l 264 707 m 235 -346 q 286 -207 282 -272 q 246 -150 246 -197 q 315 -87 246 -87 q 386 -154 386 -87 q 363 -252 386 -200 q 286 -371 340 -304 l 235 -346 z "},"u":{"ha":854,"x_min":110,"x_max":744,"o":"m 110 274 l 110 707 l 229 707 l 229 290 q 272 134 229 193 q 403 75 314 75 q 558 148 500 75 q 617 329 617 221 l 617 707 l 735 707 l 735 157 q 744 0 735 81 l 632 0 q 622 113 625 44 l 619 113 q 375 -19 543 -19 q 176 62 243 -19 q 110 274 110 143 z "},"ú":{"ha":854,"x_min":110,"x_max":744,"o":"m 110 274 l 110 707 l 229 707 l 229 290 q 272 134 229 193 q 403 75 314 75 q 558 148 500 75 q 617 329 617 221 l 617 707 l 735 707 l 735 157 q 744 0 735 81 l 632 0 q 622 113 625 44 l 619 113 q 375 -19 543 -19 q 176 62 243 -19 q 110 274 110 143 m 350 800 l 304 864 l 528 1046 l 586 960 l 350 800 z "},"ŭ":{"ha":854,"x_min":110,"x_max":744,"o":"m 110 274 l 110 707 l 229 707 l 229 290 q 272 134 229 193 q 403 75 314 75 q 558 148 500 75 q 617 329 617 221 l 617 707 l 735 707 l 735 157 q 744 0 735 81 l 632 0 q 622 113 625 44 l 619 113 q 375 -19 543 -19 q 176 62 243 -19 q 110 274 110 143 m 635 996 q 569 853 621 901 q 429 804 517 804 q 290 853 342 804 q 224 996 238 901 l 296 1004 q 429 889 324 889 q 563 1004 535 889 l 635 996 z "},"û":{"ha":854,"x_min":110,"x_max":744,"o":"m 110 274 l 110 707 l 229 707 l 229 290 q 272 134 229 193 q 403 75 314 75 q 558 148 500 75 q 617 329 617 221 l 617 707 l 735 707 l 735 157 q 744 0 735 81 l 632 0 q 622 113 625 44 l 619 113 q 375 -19 543 -19 q 176 62 243 -19 q 110 274 110 143 m 651 851 l 604 803 l 429 944 l 254 800 l 207 851 l 382 1022 l 476 1022 l 651 851 z "},"ü":{"ha":854,"x_min":110,"x_max":744,"o":"m 110 274 l 110 707 l 229 707 l 229 290 q 272 134 229 193 q 403 75 314 75 q 558 148 500 75 q 617 329 617 221 l 617 707 l 735 707 l 735 157 q 744 0 735 81 l 632 0 q 622 113 625 44 l 619 113 q 375 -19 543 -19 q 176 62 243 -19 q 110 274 110 143 m 231 915 q 247 967 231 947 q 301 986 264 986 q 371 915 371 986 q 301 846 371 846 q 247 865 264 846 q 231 915 231 885 m 488 915 q 558 986 488 986 q 611 967 594 986 q 628 915 628 947 q 611 865 628 885 q 558 846 594 846 q 488 915 488 846 z "},"ù":{"ha":854,"x_min":110,"x_max":744,"o":"m 110 274 l 110 707 l 229 707 l 229 290 q 272 134 229 193 q 403 75 314 75 q 558 148 500 75 q 617 329 617 221 l 617 707 l 735 707 l 735 157 q 744 0 735 81 l 632 0 q 622 113 625 44 l 619 113 q 375 -19 543 -19 q 176 62 243 -19 q 110 274 110 143 m 332 1046 l 556 864 l 508 800 l 274 960 l 332 1046 z "},"ű":{"ha":854,"x_min":110,"x_max":744,"o":"m 110 274 l 110 707 l 229 707 l 229 290 q 272 134 229 193 q 403 75 314 75 q 558 148 500 75 q 617 329 617 221 l 617 707 l 735 707 l 735 157 q 744 0 735 81 l 632 0 q 622 113 625 44 l 619 113 q 375 -19 543 -19 q 176 62 243 -19 q 110 274 110 143 m 353 797 l 296 826 l 417 1056 l 494 1013 l 353 797 m 524 789 l 468 824 l 603 1044 l 676 994 l 524 789 z "},"ū":{"ha":854,"x_min":110,"x_max":744,"o":"m 110 274 l 110 707 l 229 707 l 229 290 q 272 134 229 193 q 403 75 314 75 q 558 148 500 75 q 617 329 617 221 l 617 707 l 735 707 l 735 157 q 744 0 735 81 l 632 0 q 622 113 625 44 l 619 113 q 375 -19 543 -19 q 176 62 243 -19 q 110 274 110 143 m 621 849 l 239 849 l 239 931 l 621 931 l 621 849 z "},"ų":{"ha":854,"x_min":110,"x_max":769,"o":"m 769 -296 q 642 -331 713 -331 q 534 -297 576 -331 q 492 -200 492 -262 q 528 -91 492 -143 q 632 4 565 -39 q 622 113 625 47 l 619 113 q 375 -19 543 -19 q 176 62 243 -19 q 110 274 110 143 l 110 707 l 229 707 l 229 290 q 272 134 229 193 q 403 75 314 75 q 558 148 500 75 q 617 329 617 221 l 617 707 l 735 707 l 735 157 q 744 0 735 81 l 724 0 q 615 -95 650 -51 q 581 -185 581 -139 q 601 -235 581 -218 q 654 -253 621 -253 q 744 -229 697 -253 l 769 -296 z "},"ů":{"ha":854,"x_min":110,"x_max":744,"o":"m 110 274 l 110 707 l 229 707 l 229 290 q 272 134 229 193 q 403 75 314 75 q 558 148 500 75 q 617 329 617 221 l 617 707 l 735 707 l 735 157 q 744 0 735 81 l 632 0 q 622 113 625 44 l 619 113 q 375 -19 543 -19 q 176 62 243 -19 q 110 274 110 143 m 585 943 q 543 840 585 881 q 431 800 501 800 q 318 840 360 800 q 276 943 276 881 q 319 1048 276 1008 q 431 1088 361 1088 q 542 1048 500 1088 q 585 943 585 1008 m 504 943 q 485 1002 504 982 q 431 1022 467 1022 q 375 1002 394 1022 q 356 943 356 982 q 376 885 356 906 q 431 865 396 865 q 484 885 464 865 q 504 943 504 906 z "},"ũ":{"ha":854,"x_min":110,"x_max":744,"o":"m 110 274 l 110 707 l 229 707 l 229 290 q 272 134 229 193 q 403 75 314 75 q 558 148 500 75 q 617 329 617 221 l 617 707 l 735 707 l 735 157 q 744 0 735 81 l 632 0 q 622 113 625 44 l 619 113 q 375 -19 543 -19 q 176 62 243 -19 q 110 274 110 143 m 213 849 q 353 965 264 965 q 397 956 376 965 q 443 928 418 946 q 460 917 447 925 q 485 904 474 908 q 506 900 496 900 q 548 915 529 900 q 586 963 567 929 l 647 936 q 589 849 624 878 q 507 821 554 821 q 463 831 483 821 q 418 857 442 840 q 383 878 397 871 q 354 885 369 885 q 312 870 331 885 q 274 824 293 856 l 213 849 z "},"v":{"ha":678,"x_min":6,"x_max":671,"o":"m 407 0 l 275 0 l 6 707 l 132 707 l 342 118 l 346 118 l 549 707 l 671 707 l 407 0 z "},"w":{"ha":1075,"x_min":24,"x_max":1050,"o":"m 851 0 l 719 0 l 536 581 l 533 581 l 353 0 l 222 0 l 24 707 l 147 707 l 292 128 l 294 128 l 474 707 l 601 707 l 782 128 l 785 128 l 931 707 l 1050 707 l 851 0 z "},"ẃ":{"ha":1075,"x_min":24,"x_max":1050,"o":"m 851 0 l 719 0 l 536 581 l 533 581 l 353 0 l 222 0 l 24 707 l 147 707 l 292 128 l 294 128 l 474 707 l 601 707 l 782 128 l 785 128 l 931 707 l 1050 707 l 851 0 m 458 800 l 413 864 l 636 1046 l 694 960 l 458 800 z "},"ŵ":{"ha":1075,"x_min":24,"x_max":1050,"o":"m 851 0 l 719 0 l 536 581 l 533 581 l 353 0 l 222 0 l 24 707 l 147 707 l 292 128 l 294 128 l 474 707 l 601 707 l 782 128 l 785 128 l 931 707 l 1050 707 l 851 0 m 761 851 l 714 803 l 539 944 l 364 800 l 317 851 l 492 1022 l 586 1022 l 761 851 z "},"ẅ":{"ha":1075,"x_min":24,"x_max":1050,"o":"m 851 0 l 719 0 l 536 581 l 533 581 l 353 0 l 222 0 l 24 707 l 147 707 l 292 128 l 294 128 l 474 707 l 601 707 l 782 128 l 785 128 l 931 707 l 1050 707 l 851 0 m 340 915 q 357 967 340 947 q 411 986 374 986 q 481 915 481 986 q 411 846 481 846 q 357 865 374 846 q 340 915 340 885 m 597 915 q 668 986 597 986 q 721 967 704 986 q 738 915 738 947 q 721 865 738 885 q 668 846 704 846 q 597 915 597 846 z "},"ẁ":{"ha":1075,"x_min":24,"x_max":1050,"o":"m 851 0 l 719 0 l 536 581 l 533 581 l 353 0 l 222 0 l 24 707 l 147 707 l 292 128 l 294 128 l 474 707 l 601 707 l 782 128 l 785 128 l 931 707 l 1050 707 l 851 0 m 442 1046 l 665 864 l 618 800 l 383 960 l 442 1046 z "},"x":{"ha":731,"x_min":13,"x_max":718,"o":"m 718 0 l 576 0 l 360 297 l 151 0 l 13 0 l 288 371 l 43 707 l 178 707 l 365 439 l 551 707 l 679 707 l 438 371 l 718 0 z "},"y":{"ha":658,"x_min":6,"x_max":651,"o":"m 340 -172 q 254 -312 306 -268 q 118 -357 203 -357 q 19 -340 64 -357 l 43 -253 q 103 -261 74 -261 q 183 -232 154 -261 q 232 -144 211 -203 l 281 -4 l 6 707 l 133 707 l 339 125 l 342 125 l 531 707 l 651 707 l 340 -172 z "},"ý":{"ha":658,"x_min":6,"x_max":651,"o":"m 340 -172 q 254 -312 306 -268 q 118 -357 203 -357 q 19 -340 64 -357 l 43 -253 q 103 -261 74 -261 q 183 -232 154 -261 q 232 -144 211 -203 l 281 -4 l 6 707 l 133 707 l 339 125 l 342 125 l 531 707 l 651 707 l 340 -172 m 250 800 l 204 864 l 428 1046 l 486 960 l 250 800 z "},"ŷ":{"ha":658,"x_min":6,"x_max":651,"o":"m 340 -172 q 254 -312 306 -268 q 118 -357 203 -357 q 19 -340 64 -357 l 43 -253 q 103 -261 74 -261 q 183 -232 154 -261 q 232 -144 211 -203 l 281 -4 l 6 707 l 133 707 l 339 125 l 342 125 l 531 707 l 651 707 l 340 -172 m 551 851 l 504 803 l 329 944 l 154 800 l 107 851 l 282 1022 l 376 1022 l 551 851 z "},"ÿ":{"ha":658,"x_min":6,"x_max":651,"o":"m 340 -172 q 254 -312 306 -268 q 118 -357 203 -357 q 19 -340 64 -357 l 43 -253 q 103 -261 74 -261 q 183 -232 154 -261 q 232 -144 211 -203 l 281 -4 l 6 707 l 133 707 l 339 125 l 342 125 l 531 707 l 651 707 l 340 -172 m 131 915 q 147 967 131 947 q 201 986 164 986 q 271 915 271 986 q 201 846 271 846 q 147 865 164 846 q 131 915 131 885 m 388 915 q 458 986 388 986 q 511 967 494 986 q 528 915 528 947 q 511 865 528 885 q 458 846 494 846 q 388 915 388 846 z "},"ỳ":{"ha":658,"x_min":6,"x_max":651,"o":"m 340 -172 q 254 -312 306 -268 q 118 -357 203 -357 q 19 -340 64 -357 l 43 -253 q 103 -261 74 -261 q 183 -232 154 -261 q 232 -144 211 -203 l 281 -4 l 6 707 l 133 707 l 339 125 l 342 125 l 531 707 l 651 707 l 340 -172 m 233 1046 l 457 864 l 410 800 l 175 960 l 233 1046 z "},"z":{"ha":621,"x_min":46,"x_max":575,"o":"m 558 617 l 186 93 l 575 93 l 575 0 l 46 0 l 46 96 l 417 617 l 64 617 l 64 707 l 558 707 l 558 617 z "},"ź":{"ha":621,"x_min":46,"x_max":575,"o":"m 558 617 l 186 93 l 575 93 l 575 0 l 46 0 l 46 96 l 417 617 l 64 617 l 64 707 l 558 707 l 558 617 m 236 800 l 190 864 l 414 1046 l 472 960 l 236 800 z "},"ž":{"ha":621,"x_min":46,"x_max":575,"o":"m 558 617 l 186 93 l 575 93 l 575 0 l 46 0 l 46 96 l 417 617 l 64 617 l 64 707 l 558 707 l 558 617 m 540 978 l 364 808 l 269 808 l 94 978 l 142 1031 l 317 886 l 492 1029 l 540 978 z "},"ż":{"ha":621,"x_min":46,"x_max":575,"o":"m 558 617 l 186 93 l 575 93 l 575 0 l 46 0 l 46 96 l 417 617 l 64 617 l 64 707 l 558 707 l 558 617 m 239 949 q 317 1024 239 1024 q 393 949 393 1024 q 375 897 393 917 q 317 876 357 876 q 257 897 275 876 q 239 949 239 917 z "},"ﬀ":{"ha":906,"x_min":21,"x_max":953,"o":"m 710 765 l 710 707 l 888 707 l 888 617 l 710 617 l 710 0 l 592 0 l 592 617 l 263 617 l 263 0 l 144 0 l 144 617 l 21 617 l 21 692 l 144 707 l 144 768 q 212 941 144 879 q 415 1003 279 1003 q 654 944 540 1003 q 829 1003 717 1003 q 953 985 897 1003 l 926 900 q 840 908 882 910 q 710 765 710 907 m 592 707 l 592 768 q 606 865 592 824 q 417 908 510 908 q 299 872 335 908 q 263 765 263 836 l 263 707 l 592 707 z "},"ﬃ":{"ha":1276,"x_min":21,"x_max":1156,"o":"m 1156 0 l 1038 0 l 1038 617 l 721 617 l 721 0 l 603 0 l 603 617 l 263 617 l 263 0 l 144 0 l 144 617 l 21 617 l 21 692 l 144 707 l 144 768 q 212 941 144 879 q 415 1003 279 1003 q 667 938 547 1003 q 874 1003 736 1003 q 1146 926 1014 1003 l 1104 844 q 875 908 992 908 q 757 872 793 908 q 721 765 721 836 l 721 707 l 1156 707 l 1156 0 m 603 707 l 603 768 q 617 860 603 819 q 417 908 517 908 q 299 872 335 908 q 263 765 263 836 l 263 707 l 603 707 z "},"ﬄ":{"ha":1275,"x_min":21,"x_max":1156,"o":"m 1156 936 l 1156 0 l 1038 0 l 1038 889 q 881 908 963 910 q 758 873 794 908 q 721 765 721 838 l 721 707 l 899 707 l 899 617 l 721 617 l 721 0 l 603 0 l 603 617 l 263 617 l 263 0 l 144 0 l 144 617 l 21 617 l 21 692 l 144 707 l 144 768 q 212 941 144 879 q 415 1003 279 1003 q 668 938 547 1003 q 888 1003 740 1003 q 1156 936 1026 1003 m 603 707 l 603 768 q 617 860 603 819 q 417 908 517 908 q 299 872 335 908 q 263 765 263 836 l 263 707 l 603 707 z "},"ﬁ":{"ha":817,"x_min":21,"x_max":697,"o":"m 697 0 l 579 0 l 579 617 l 263 617 l 263 0 l 144 0 l 144 617 l 21 617 l 21 692 l 144 707 l 144 768 q 212 941 144 879 q 415 1003 279 1003 q 688 926 556 1003 l 646 844 q 417 908 533 908 q 299 872 335 908 q 263 765 263 836 l 263 707 l 697 707 l 697 0 z "},"ﬂ":{"ha":817,"x_min":21,"x_max":697,"o":"m 697 936 l 697 0 l 579 0 l 579 889 q 422 908 504 910 q 299 873 336 908 q 263 765 263 838 l 263 707 l 440 707 l 440 617 l 263 617 l 263 0 l 144 0 l 144 617 l 21 617 l 21 692 l 144 707 l 144 768 q 214 941 144 879 q 429 1003 283 1003 q 697 936 568 1003 z "},"ª":{"ha":804,"x_min":93,"x_max":708,"o":"m 93 490 q 189 675 93 624 q 478 726 285 726 q 549 725 525 726 l 549 764 q 507 878 549 840 q 379 915 465 915 q 174 858 271 915 l 135 935 q 386 1006 250 1006 q 596 939 529 1006 q 663 735 663 872 l 663 456 q 672 304 663 382 l 568 304 q 558 397 558 364 l 554 397 q 460 313 517 342 q 313 285 403 285 q 153 338 214 285 q 93 490 93 392 m 549 557 l 549 644 l 489 646 q 328 633 388 646 q 240 588 268 619 q 211 497 211 556 q 246 407 211 439 q 342 375 281 375 q 453 403 407 375 q 524 472 500 431 q 549 557 549 514 m 708 4 l 114 4 l 114 100 l 708 100 l 708 4 z "},"º":{"ha":885,"x_min":93,"x_max":779,"o":"m 779 647 q 738 459 779 542 q 620 331 697 376 q 436 285 543 285 q 251 331 329 285 q 133 460 174 378 q 93 647 93 542 q 183 908 93 811 q 436 1006 274 1006 q 622 960 544 1006 q 739 835 699 915 q 779 647 779 756 m 211 647 q 267 451 211 525 q 436 376 322 376 q 606 451 550 376 q 663 647 663 525 q 606 842 663 769 q 436 915 550 915 q 267 842 322 915 q 211 647 211 769 m 746 4 l 151 4 l 151 100 l 746 100 l 746 4 z "},"Δ":{"ha":917,"x_min":6,"x_max":910,"o":"m 910 0 l 6 0 l 394 983 l 524 983 l 910 0 m 740 97 l 457 867 l 171 97 l 740 97 z "},"Ω":{"ha":1096,"x_min":68,"x_max":1028,"o":"m 1028 103 l 1028 0 l 646 0 l 646 101 l 644 103 q 834 243 767 140 q 901 492 901 346 q 809 788 901 676 q 547 900 717 900 q 286 789 378 900 q 194 492 194 678 q 261 243 194 346 q 450 103 328 140 l 450 0 l 68 0 l 68 103 l 272 103 q 123 260 178 161 q 68 497 68 360 q 126 763 68 647 q 292 942 183 878 q 547 1007 400 1007 q 803 942 694 1007 q 969 763 911 878 q 1026 497 1026 647 q 972 260 1026 360 q 824 103 918 161 l 1028 103 z "},"μ":{"ha":847,"x_min":101,"x_max":746,"o":"m 111 -182 l 111 707 l 231 707 l 231 293 q 273 135 231 194 q 404 76 315 76 q 560 149 501 76 q 618 332 618 222 l 618 707 l 736 707 l 736 157 q 746 0 736 81 l 633 0 q 624 113 626 44 l 621 113 q 527 16 585 51 q 396 -19 469 -19 q 226 69 281 -19 l 224 69 l 224 -187 q 211 -339 224 -271 l 101 -339 q 111 -182 111 -258 z "},"π":{"ha":813,"x_min":8,"x_max":799,"o":"m 668 181 q 693 0 668 94 l 578 0 q 556 85 564 43 q 549 181 549 126 l 549 613 l 249 611 l 249 0 l 131 0 l 131 611 l 8 611 l 8 707 l 644 707 q 781 726 715 707 l 799 635 q 668 613 740 614 l 668 181 z "},"⁄":{"ha":299,"x_min":-182,"x_max":508,"o":"m 508 985 l -72 0 l -182 0 l 399 985 l 508 985 z "},"½":{"ha":1667,"x_min":47,"x_max":1618,"o":"m 556 361 l 556 265 l 85 265 l 85 360 l 285 360 l 285 865 l 92 774 l 47 856 l 296 983 l 399 983 l 399 361 l 556 361 m 1185 985 l 604 0 l 494 0 l 1075 985 l 1185 985 m 1596 524 q 1567 398 1596 453 q 1467 278 1538 343 q 1246 96 1397 214 l 1618 96 l 1618 0 l 1094 0 l 1094 89 q 1345 302 1272 236 q 1449 415 1418 368 q 1479 513 1479 461 q 1441 606 1479 571 q 1333 640 1403 640 q 1233 619 1276 640 q 1146 557 1189 599 l 1078 617 q 1194 706 1133 676 q 1343 735 1254 735 q 1481 706 1424 735 q 1567 630 1538 678 q 1596 524 1596 582 z "},"¼":{"ha":1667,"x_min":56,"x_max":1611,"o":"m 564 361 l 564 265 l 93 265 l 93 360 l 293 360 l 293 865 l 100 774 l 56 856 l 304 983 l 407 983 l 407 361 l 564 361 m 1193 985 l 613 0 l 503 0 l 1083 985 l 1193 985 m 1611 164 l 1506 164 l 1506 0 l 1396 0 l 1396 164 l 1021 164 l 1021 250 l 1267 718 l 1388 718 l 1149 260 l 1394 260 l 1394 450 l 1506 450 l 1506 260 l 1611 260 l 1611 164 z "},"¾":{"ha":1667,"x_min":43,"x_max":1622,"o":"m 574 808 q 535 694 574 733 q 439 643 497 656 l 439 640 q 551 592 506 633 q 597 469 597 550 q 522 309 597 371 q 311 247 446 247 q 158 273 221 247 q 43 350 96 299 l 104 417 q 199 360 153 376 q 311 343 244 343 q 433 377 388 343 q 479 475 479 411 q 440 563 479 535 q 333 592 401 592 l 214 592 l 214 685 l 318 685 q 422 711 385 685 q 458 794 458 738 q 422 878 458 849 q 313 907 385 907 q 213 891 257 907 q 124 842 168 875 l 65 907 q 183 978 121 956 q 324 1001 244 1001 q 508 947 442 1001 q 574 808 574 893 m 1204 985 l 624 0 l 514 0 l 1094 985 l 1204 985 m 1622 164 l 1517 164 l 1517 0 l 1407 0 l 1407 164 l 1032 164 l 1032 250 l 1278 718 l 1399 718 l 1160 260 l 1406 260 l 1406 450 l 1517 450 l 1517 260 l 1622 260 l 1622 164 z "},"₀":{"ha":750,"x_min":60,"x_max":690,"o":"m 60 178 q 141 455 60 354 q 375 556 222 556 q 610 455 529 556 q 690 178 690 354 q 610 -99 690 1 q 375 -199 529 -199 q 141 -98 222 -199 q 60 178 60 3 m 575 178 q 528 386 575 314 q 376 458 482 458 q 224 386 271 458 q 176 178 176 314 q 224 -29 176 43 q 376 -101 271 -101 q 528 -29 482 -101 q 575 178 575 43 z "},"₁":{"ha":750,"x_min":121,"x_max":629,"o":"m 629 -85 l 629 -181 l 158 -181 l 158 -86 l 358 -86 l 358 419 l 165 328 l 121 410 l 369 538 l 472 538 l 472 -85 l 629 -85 z "},"₂":{"ha":750,"x_min":104,"x_max":644,"o":"m 622 343 q 593 217 622 272 q 494 98 564 163 q 272 -85 424 33 l 644 -85 l 644 -181 l 121 -181 l 121 -92 q 372 122 299 56 q 475 234 444 188 q 506 332 506 281 q 467 425 506 390 q 360 460 429 460 q 259 439 303 460 q 172 376 215 418 l 104 436 q 220 525 160 496 q 369 554 281 554 q 507 526 450 554 q 593 449 564 497 q 622 343 622 401 z "},"₃":{"ha":750,"x_min":97,"x_max":651,"o":"m 628 363 q 590 249 628 288 q 493 197 551 210 l 493 194 q 606 146 560 188 q 651 24 651 104 q 576 -137 651 -75 q 365 -199 500 -199 q 213 -173 275 -199 q 97 -96 150 -147 l 158 -29 q 253 -86 207 -69 q 365 -103 299 -103 q 488 -69 442 -103 q 533 29 533 -35 q 494 117 533 89 q 388 146 456 146 l 268 146 l 268 239 l 372 239 q 476 265 439 239 q 513 349 513 292 q 476 432 513 403 q 367 461 439 461 q 267 445 311 461 q 178 396 222 429 l 119 461 q 237 533 175 510 q 378 556 299 556 q 562 501 496 556 q 628 363 628 447 z "},"₄":{"ha":750,"x_min":79,"x_max":669,"o":"m 669 -17 l 564 -17 l 564 -181 l 454 -181 l 454 -17 l 79 -17 l 79 69 l 325 538 l 446 538 l 207 79 l 453 79 l 453 269 l 564 269 l 564 79 l 669 79 l 669 -17 z "},"₅":{"ha":750,"x_min":96,"x_max":656,"o":"m 96 -96 l 160 -29 q 253 -85 207 -68 q 364 -101 299 -101 q 491 -62 444 -101 q 538 46 538 -24 q 498 145 538 110 q 388 181 458 181 q 306 172 342 181 q 235 147 271 164 l 158 147 l 158 538 l 613 538 l 613 442 l 268 442 l 268 246 q 418 271 333 271 q 590 210 525 271 q 656 49 656 150 q 578 -132 656 -65 q 361 -199 500 -199 q 211 -173 274 -199 q 96 -96 149 -147 z "},"₆":{"ha":750,"x_min":90,"x_max":660,"o":"m 660 67 q 586 -125 660 -51 q 381 -199 513 -199 q 163 -108 235 -199 q 90 139 90 -17 q 178 443 90 331 q 425 556 265 556 q 523 543 481 556 q 604 508 565 531 l 563 429 q 428 464 504 464 q 274 401 329 464 q 207 222 218 338 q 299 274 249 257 q 418 292 350 292 q 592 231 525 292 q 660 67 660 169 m 544 63 q 505 169 544 132 q 394 206 465 206 q 207 122 283 206 q 249 -48 208 8 q 382 -104 290 -104 q 503 -60 461 -104 q 544 63 544 -15 z "},"₇":{"ha":750,"x_min":111,"x_max":640,"o":"m 640 447 q 360 -181 388 175 l 226 -181 q 322 156 254 3 q 500 440 389 310 l 111 440 l 111 538 l 640 538 l 640 447 z "},"₈":{"ha":750,"x_min":83,"x_max":667,"o":"m 667 6 q 631 -99 667 -53 q 528 -172 594 -146 q 372 -199 461 -199 q 218 -172 283 -199 q 118 -100 153 -146 q 83 4 83 -54 q 124 120 83 74 q 246 201 165 167 q 150 269 179 231 q 121 368 121 308 q 193 503 121 451 q 376 556 265 556 q 559 506 488 556 q 631 372 631 457 q 599 276 631 319 q 501 197 567 233 q 628 122 589 165 q 667 6 667 78 m 235 365 q 264 296 235 324 q 360 244 293 268 l 410 228 q 491 292 465 260 q 517 364 517 325 q 478 442 517 414 q 376 471 440 471 q 274 442 313 471 q 235 365 235 414 m 549 13 q 515 90 549 63 q 392 149 481 117 l 338 168 q 201 17 201 119 q 247 -76 201 -44 q 375 -108 293 -108 q 502 -76 456 -108 q 549 13 549 -43 z "},"₉":{"ha":750,"x_min":90,"x_max":660,"o":"m 660 222 q 537 -85 660 24 q 181 -194 414 -194 l 181 -100 q 436 -37 343 -100 q 542 140 529 26 q 451 86 501 104 q 333 68 401 68 q 159 130 228 68 q 90 299 90 192 q 124 431 90 372 q 222 522 157 489 q 374 556 286 556 q 589 468 518 556 q 660 222 660 381 m 544 238 q 504 408 543 354 q 374 463 465 463 q 249 419 292 463 q 206 301 206 375 q 247 193 206 231 q 361 156 289 156 q 544 238 476 156 z "},"⁰":{"ha":750,"x_min":60,"x_max":690,"o":"m 60 624 q 141 901 60 800 q 375 1001 222 1001 q 610 901 529 1001 q 690 624 690 800 q 610 347 690 447 q 375 247 529 247 q 141 348 222 247 q 60 624 60 449 m 575 624 q 528 832 575 760 q 376 904 482 904 q 224 832 271 904 q 176 624 176 760 q 224 417 176 489 q 376 344 271 344 q 528 417 482 344 q 575 624 575 489 z "},"¹":{"ha":750,"x_min":121,"x_max":629,"o":"m 629 361 l 629 265 l 158 265 l 158 360 l 358 360 l 358 865 l 165 774 l 121 856 l 369 983 l 472 983 l 472 361 l 629 361 z "},"²":{"ha":750,"x_min":104,"x_max":644,"o":"m 622 789 q 593 663 622 718 q 494 544 564 608 q 272 361 424 479 l 644 361 l 644 265 l 121 265 l 121 354 q 372 567 299 501 q 475 680 444 633 q 506 778 506 726 q 467 871 506 836 q 360 906 429 906 q 259 885 303 906 q 172 822 215 864 l 104 882 q 220 971 160 942 q 369 1000 281 1000 q 507 972 450 1000 q 593 895 564 943 q 622 789 622 847 z "},"³":{"ha":750,"x_min":97,"x_max":651,"o":"m 628 808 q 590 694 628 733 q 493 643 551 656 l 493 640 q 606 592 560 633 q 651 469 651 550 q 576 309 651 371 q 365 247 500 247 q 213 273 275 247 q 97 350 150 299 l 158 417 q 253 360 207 376 q 365 343 299 343 q 488 377 442 343 q 533 475 533 411 q 494 563 533 535 q 388 592 456 592 l 268 592 l 268 685 l 372 685 q 476 711 439 685 q 513 794 513 738 q 476 878 513 849 q 367 907 439 907 q 267 891 311 907 q 178 842 222 875 l 119 907 q 237 978 175 956 q 378 1001 299 1001 q 562 947 496 1001 q 628 808 628 893 z "},"⁴":{"ha":750,"x_min":79,"x_max":669,"o":"m 669 429 l 564 429 l 564 265 l 454 265 l 454 429 l 79 429 l 79 515 l 325 983 l 446 983 l 207 525 l 453 525 l 453 715 l 564 715 l 564 525 l 669 525 l 669 429 z "},"⁵":{"ha":750,"x_min":96,"x_max":656,"o":"m 96 350 l 160 417 q 253 361 207 378 q 364 344 299 344 q 491 383 444 344 q 538 492 538 422 q 498 591 538 556 q 388 626 458 626 q 306 618 342 626 q 235 593 271 610 l 158 593 l 158 983 l 613 983 l 613 888 l 268 888 l 268 692 q 418 717 333 717 q 590 656 525 717 q 656 494 656 596 q 578 314 656 381 q 361 247 500 247 q 211 273 274 247 q 96 350 149 299 z "},"⁶":{"ha":750,"x_min":90,"x_max":660,"o":"m 660 513 q 586 321 660 394 q 381 247 513 247 q 163 338 235 247 q 90 585 90 429 q 178 889 90 776 q 425 1001 265 1001 q 523 989 481 1001 q 604 954 565 976 l 563 875 q 428 910 504 910 q 274 847 329 910 q 207 668 218 783 q 299 720 249 703 q 418 738 350 738 q 592 676 525 738 q 660 513 660 615 m 544 508 q 505 615 544 578 q 394 651 465 651 q 207 568 283 651 q 249 398 208 454 q 382 342 290 342 q 503 386 461 342 q 544 508 544 431 z "},"⁷":{"ha":750,"x_min":111,"x_max":640,"o":"m 640 893 q 360 265 388 621 l 226 265 q 322 602 254 449 q 500 886 389 756 l 111 886 l 111 983 l 640 983 l 640 893 z "},"⁸":{"ha":750,"x_min":83,"x_max":667,"o":"m 667 451 q 631 347 667 393 q 528 274 594 300 q 372 247 461 247 q 218 274 283 247 q 118 346 153 300 q 83 450 83 392 q 124 566 83 519 q 246 647 165 613 q 150 715 179 676 q 121 814 121 754 q 193 949 121 897 q 376 1001 265 1001 q 559 952 488 1001 q 631 818 631 903 q 599 722 631 765 q 501 643 567 679 q 628 567 589 611 q 667 451 667 524 m 235 811 q 264 742 235 769 q 360 690 293 714 l 410 674 q 491 738 465 706 q 517 810 517 771 q 478 888 517 860 q 376 917 440 917 q 274 888 313 917 q 235 811 235 860 m 549 458 q 515 535 549 508 q 392 594 481 563 l 338 614 q 201 463 201 565 q 247 369 201 401 q 375 338 293 338 q 502 370 456 338 q 549 458 549 403 z "},"⁹":{"ha":750,"x_min":90,"x_max":660,"o":"m 660 668 q 537 360 660 469 q 181 251 414 251 l 181 346 q 436 409 343 346 q 542 586 529 472 q 451 532 501 550 q 333 514 401 514 q 159 576 228 514 q 90 744 90 638 q 124 876 90 818 q 222 968 157 935 q 374 1001 286 1001 q 589 914 518 1001 q 660 668 660 826 m 544 683 q 504 854 543 800 q 374 908 465 908 q 249 865 292 908 q 206 747 206 821 q 247 639 206 676 q 361 601 289 601 q 544 683 476 601 z "},"*":{"ha":575,"x_min":74,"x_max":501,"o":"m 349 756 l 451 633 l 374 575 l 288 710 l 201 575 l 124 633 l 226 756 l 74 794 l 103 885 l 251 825 l 239 983 l 335 983 l 324 825 l 472 885 l 501 794 l 349 756 z "},"\\":{"ha":742,"x_min":164,"x_max":576,"o":"m 265 1092 l 576 -114 l 474 -114 l 164 1092 l 265 1092 z "},"·":{"ha":371,"x_min":108,"x_max":263,"o":"m 108 469 q 186 547 108 547 q 263 469 263 547 q 244 414 263 435 q 186 393 226 393 q 126 414 144 393 q 108 469 108 435 z "},"•":{"ha":478,"x_min":108,"x_max":369,"o":"m 108 460 q 239 590 108 590 q 369 460 369 590 q 239 332 369 332 q 108 460 108 332 z "},":":{"ha":371,"x_min":108,"x_max":264,"o":"m 108 65 q 186 143 108 143 q 263 65 263 143 q 244 10 263 31 q 186 -11 226 -11 q 126 10 144 -11 q 108 65 108 31 m 110 574 q 188 651 110 651 q 264 574 264 651 q 246 518 264 539 q 188 497 228 497 q 128 518 146 497 q 110 574 110 539 z "},",":{"ha":379,"x_min":75,"x_max":269,"o":"m 121 -246 l 75 -204 q 153 -98 131 -144 q 179 0 176 -51 q 127 23 143 6 q 111 71 111 40 q 131 122 111 101 q 188 143 151 143 q 249 118 228 143 q 269 46 269 93 q 238 -97 269 -31 q 121 -246 207 -164 z "},"…":{"ha":1138,"x_min":108,"x_max":1029,"o":"m 492 65 q 569 143 492 143 q 646 65 646 143 q 628 10 646 31 q 569 -11 610 -11 q 510 10 528 -11 q 492 65 492 31 m 875 65 q 953 143 875 143 q 1029 65 1029 143 q 1011 10 1029 31 q 953 -11 993 -11 q 893 10 911 -11 q 875 65 875 31 m 108 65 q 186 143 108 143 q 263 65 263 143 q 244 10 263 31 q 186 -11 226 -11 q 126 10 144 -11 q 108 65 108 31 z "},"!":{"ha":449,"x_min":147,"x_max":301,"o":"m 176 303 l 165 550 l 165 983 l 285 983 l 285 550 l 274 303 l 176 303 m 147 65 q 225 143 147 143 q 301 65 301 143 q 283 10 301 31 q 225 -11 265 -11 q 165 10 183 -11 q 147 65 147 31 z "},"¡":{"ha":449,"x_min":147,"x_max":301,"o":"m 274 413 l 285 165 l 285 -268 l 165 -268 l 165 165 l 176 413 l 274 413 m 147 650 q 165 706 147 685 q 225 726 183 726 q 283 706 265 726 q 301 650 301 685 q 225 572 301 572 q 147 650 147 572 z "},"#":{"ha":1039,"x_min":78,"x_max":961,"o":"m 782 586 l 710 314 l 875 314 l 875 235 l 689 235 l 628 0 l 532 0 l 593 235 l 331 235 l 269 0 l 174 0 l 235 235 l 78 235 l 78 314 l 256 314 l 328 586 l 164 586 l 164 665 l 349 665 l 410 900 l 506 900 l 444 665 l 707 665 l 768 900 l 864 900 l 803 665 l 961 665 l 961 586 l 782 586 m 686 586 l 424 586 l 351 314 l 614 314 l 686 586 z "},".":{"ha":371,"x_min":108,"x_max":263,"o":"m 108 65 q 186 143 108 143 q 263 65 263 143 q 244 10 263 31 q 186 -11 226 -11 q 126 10 144 -11 q 108 65 108 31 z "},"?":{"ha":699,"x_min":18,"x_max":639,"o":"m 471 483 q 383 406 411 438 q 356 333 356 374 l 356 303 l 243 303 l 243 350 q 261 425 243 392 q 305 483 279 458 q 376 542 331 507 q 478 635 443 593 q 513 740 513 678 q 465 860 513 815 q 333 904 417 904 q 199 874 254 904 q 93 788 144 844 l 18 851 q 159 966 82 926 q 342 1006 236 1006 q 498 972 431 1006 q 602 878 565 938 q 639 746 639 818 q 615 638 639 685 q 558 558 592 590 q 471 483 525 526 m 222 65 q 300 143 222 143 q 376 65 376 143 q 358 10 376 31 q 300 -11 340 -11 q 240 10 258 -11 q 222 65 222 31 z "},"¿":{"ha":699,"x_min":60,"x_max":681,"o":"m 228 232 q 315 310 288 278 q 343 382 343 342 l 343 413 l 456 413 l 456 365 q 438 290 456 324 q 394 233 419 257 q 322 174 368 208 q 221 80 256 122 q 186 -25 186 38 q 234 -144 186 -100 q 365 -189 282 -189 q 499 -159 444 -189 q 606 -72 554 -129 l 681 -136 q 540 -251 617 -211 q 357 -290 463 -290 q 201 -256 268 -290 q 97 -162 133 -222 q 60 -31 60 -103 q 83 78 60 31 q 140 157 107 125 q 228 232 174 189 m 476 650 q 399 572 476 572 q 322 650 322 572 q 340 706 322 685 q 399 726 358 726 q 458 706 440 726 q 476 650 476 685 z "},"\"":{"ha":560,"x_min":115,"x_max":444,"o":"m 203 640 l 115 640 l 115 983 l 213 983 l 203 640 m 435 640 l 347 640 l 347 983 l 444 983 l 435 640 z "},"'":{"ha":328,"x_min":115,"x_max":213,"o":"m 203 640 l 115 640 l 115 983 l 213 983 l 203 640 z "},";":{"ha":383,"x_min":75,"x_max":272,"o":"m 118 574 q 196 651 118 651 q 272 574 272 651 q 254 518 272 539 q 196 497 236 497 q 136 518 154 497 q 118 574 118 539 m 121 -246 l 75 -204 q 153 -98 131 -144 q 179 0 176 -51 q 127 23 143 6 q 111 71 111 40 q 131 122 111 101 q 188 143 151 143 q 249 118 228 143 q 269 46 269 93 q 238 -97 269 -31 q 121 -246 207 -164 z "},"/":{"ha":742,"x_min":164,"x_max":576,"o":"m 576 1092 l 267 -114 l 164 -114 l 475 1092 l 576 1092 z "},"_":{"ha":847,"x_min":74,"x_max":774,"o":"m 774 -242 l 74 -242 l 74 -146 l 774 -146 l 774 -242 z "},"₍":{"ha":750,"x_min":242,"x_max":510,"o":"m 242 178 q 295 439 242 319 q 440 669 349 558 l 510 625 q 399 415 439 521 q 360 178 360 308 q 399 -57 360 49 q 510 -268 439 -162 l 440 -312 q 296 -82 350 -201 q 242 178 242 38 z "},"₎":{"ha":750,"x_min":242,"x_max":510,"o":"m 242 -268 q 353 -58 314 -164 q 392 178 392 49 q 352 415 392 308 q 242 625 313 522 l 311 669 q 456 439 403 558 q 510 178 510 319 q 456 -82 510 38 q 311 -312 401 -201 l 242 -268 z "},"{":{"ha":511,"x_min":76,"x_max":435,"o":"m 190 101 l 190 336 q 165 408 190 386 q 76 435 140 429 l 76 533 q 165 561 139 539 q 190 632 190 583 l 190 867 q 260 1063 190 999 q 435 1126 331 1126 l 435 1032 q 340 992 375 1032 q 306 879 306 953 l 306 693 q 294 584 306 624 q 253 522 282 544 q 169 486 224 500 l 169 483 q 253 447 224 469 q 294 384 282 424 q 306 275 306 344 l 306 89 q 340 -24 306 15 q 435 -64 375 -64 l 435 -158 q 258 -95 325 -158 q 190 101 190 -32 z "},"}":{"ha":511,"x_min":76,"x_max":435,"o":"m 321 632 q 347 561 321 583 q 435 533 372 539 l 435 435 q 346 408 371 429 q 321 336 321 386 l 321 101 q 253 -95 321 -32 q 76 -158 186 -158 l 76 -64 q 171 -24 136 -64 q 206 89 206 15 l 206 275 q 217 384 206 344 q 258 447 229 424 q 342 483 288 469 l 342 486 q 258 522 288 500 q 217 584 229 544 q 206 693 206 624 l 206 879 q 171 992 206 953 q 76 1032 136 1032 l 76 1126 q 251 1063 181 1126 q 321 867 321 999 l 321 632 z "},"[":{"ha":511,"x_min":108,"x_max":400,"o":"m 221 -67 l 400 -67 l 400 -158 l 108 -158 l 108 1126 l 400 1126 l 400 1033 l 221 1033 l 221 -67 z "},"]":{"ha":511,"x_min":111,"x_max":403,"o":"m 290 1033 l 111 1033 l 111 1126 l 403 1126 l 403 -158 l 111 -158 l 111 -67 l 290 -67 l 290 1033 z "},"(":{"ha":511,"x_min":89,"x_max":421,"o":"m 89 492 q 158 841 89 683 q 344 1154 226 999 l 421 1106 q 269 813 324 958 q 215 492 215 668 q 269 170 215 315 q 421 -122 324 25 l 344 -171 q 157 144 225 -12 q 89 492 89 300 z "},")":{"ha":511,"x_min":90,"x_max":422,"o":"m 422 492 q 354 144 422 300 q 167 -171 286 -12 l 90 -122 q 242 170 188 25 q 296 492 296 315 q 242 813 296 668 q 90 1106 188 958 l 167 1154 q 353 841 285 999 q 422 492 422 683 z "},"⁽":{"ha":750,"x_min":242,"x_max":510,"o":"m 242 624 q 295 885 242 765 q 440 1115 349 1004 l 510 1071 q 399 860 439 967 q 360 624 360 754 q 399 389 360 494 q 510 178 439 283 l 440 133 q 296 364 350 244 q 242 624 242 483 z "},"⁾":{"ha":750,"x_min":242,"x_max":510,"o":"m 242 178 q 353 388 314 282 q 392 624 392 494 q 352 861 392 754 q 242 1071 313 968 l 311 1115 q 456 885 403 1004 q 510 624 510 765 q 456 364 510 483 q 311 133 401 244 l 242 178 z "},"—":{"ha":821,"x_min":61,"x_max":761,"o":"m 761 356 l 61 356 l 61 451 l 761 451 l 761 356 z "},"–":{"ha":847,"x_min":146,"x_max":701,"o":"m 701 356 l 146 356 l 146 451 l 701 451 l 701 356 z "},"-":{"ha":435,"x_min":61,"x_max":374,"o":"m 374 356 l 61 356 l 61 451 l 374 451 l 374 356 z "},"­":{"ha":435,"x_min":61,"x_max":374,"o":"m 374 356 l 61 356 l 61 451 l 374 451 l 374 356 z "},"«":{"ha":700,"x_min":110,"x_max":589,"o":"m 201 458 l 351 261 l 299 215 l 110 433 l 110 482 l 299 701 l 353 656 l 201 458 m 438 458 l 588 261 l 535 215 l 346 433 l 346 482 l 535 701 l 589 656 l 438 458 z "},"»":{"ha":700,"x_min":110,"x_max":589,"o":"m 353 482 l 353 433 l 165 215 l 111 261 l 261 458 l 110 656 l 164 701 l 353 482 m 589 482 l 589 433 l 401 215 l 347 261 l 497 458 l 346 656 l 400 701 l 589 482 z "},"‹":{"ha":464,"x_min":110,"x_max":353,"o":"m 201 458 l 351 261 l 299 215 l 110 433 l 110 482 l 299 701 l 353 656 l 201 458 z "},"›":{"ha":464,"x_min":110,"x_max":353,"o":"m 353 482 l 353 433 l 165 215 l 111 261 l 261 458 l 110 656 l 164 701 l 353 482 z "},"„":{"ha":592,"x_min":75,"x_max":483,"o":"m 117 -222 l 75 -185 q 147 -90 125 -131 q 171 0 168 -49 q 122 22 136 6 q 107 67 107 39 q 126 113 107 94 q 178 132 144 132 q 234 108 214 132 q 254 43 254 85 q 225 -89 254 -29 q 117 -222 196 -149 m 346 -222 l 304 -185 q 376 -90 354 -131 q 400 0 397 -49 q 351 22 365 6 q 336 67 336 39 q 355 113 336 94 q 407 132 374 132 q 463 108 443 132 q 483 43 483 85 q 454 -89 483 -29 q 346 -222 425 -149 z "},"“":{"ha":592,"x_min":108,"x_max":517,"o":"m 475 1006 l 517 968 q 445 873 467 914 q 421 783 424 832 q 470 761 456 778 q 485 717 485 744 q 466 670 485 689 q 414 651 447 651 q 358 675 378 651 q 338 740 338 699 q 367 872 338 813 q 475 1006 396 932 m 246 1006 l 288 968 q 216 873 238 914 q 192 783 194 832 q 241 761 226 778 q 256 717 256 744 q 237 670 256 689 q 185 651 218 651 q 128 675 149 651 q 108 740 108 699 q 138 872 108 813 q 246 1006 167 932 z "},"”":{"ha":592,"x_min":75,"x_max":483,"o":"m 346 653 l 304 690 q 376 785 354 744 q 400 875 397 826 q 351 897 365 881 q 336 942 336 914 q 355 988 336 969 q 407 1007 374 1007 q 463 983 443 1007 q 483 918 483 960 q 454 786 483 846 q 346 653 425 726 m 117 653 l 75 690 q 147 785 125 744 q 171 875 168 826 q 122 897 136 881 q 107 942 107 914 q 126 988 107 969 q 178 1007 144 1007 q 234 983 214 1007 q 254 918 254 960 q 225 786 254 846 q 117 653 196 726 z "},"‘":{"ha":363,"x_min":108,"x_max":288,"o":"m 246 1006 l 288 968 q 216 873 238 914 q 192 783 194 832 q 241 761 226 778 q 256 717 256 744 q 237 670 256 689 q 185 651 218 651 q 128 675 149 651 q 108 740 108 699 q 138 872 108 813 q 246 1006 167 932 z "},"’":{"ha":308,"x_min":64,"x_max":243,"o":"m 106 654 l 64 692 q 135 787 114 746 q 160 876 157 828 q 110 899 125 882 q 96 943 96 915 q 115 990 96 971 q 167 1008 133 1008 q 223 985 203 1008 q 243 919 243 961 q 214 788 243 847 q 106 654 185 728 z "},"‚":{"ha":363,"x_min":75,"x_max":254,"o":"m 117 -222 l 75 -185 q 147 -90 125 -131 q 171 0 168 -49 q 122 22 136 6 q 107 67 107 39 q 126 113 107 94 q 178 132 144 132 q 234 108 214 132 q 254 43 254 85 q 225 -89 254 -29 q 117 -222 196 -149 z "}," ":{"ha":358,"x_min":0,"x_max":0,"o":""},"¢":{"ha":847,"x_min":132,"x_max":717,"o":"m 714 196 q 526 122 631 136 l 526 0 l 431 0 l 431 121 q 204 242 276 135 q 132 493 132 349 q 210 747 132 649 q 431 861 289 846 l 431 983 l 526 983 l 526 861 q 717 789 635 850 l 669 707 q 482 767 589 767 q 310 692 368 767 q 251 493 251 618 q 310 294 251 371 q 481 218 368 218 q 671 278 576 218 l 714 196 z "},"¤":{"ha":847,"x_min":126,"x_max":722,"o":"m 614 213 l 722 83 l 650 31 l 550 164 q 424 136 494 136 q 297 163 353 136 l 199 31 l 126 83 l 232 211 q 172 379 172 278 q 232 546 172 482 l 126 674 l 199 726 l 297 593 q 424 619 354 619 q 550 593 493 619 l 650 726 l 722 672 l 615 544 q 674 379 674 479 q 614 213 674 279 m 424 210 q 542 255 503 210 q 582 379 582 300 q 542 502 582 458 q 424 546 503 546 q 306 502 344 546 q 267 379 267 458 q 306 255 267 300 q 424 210 346 210 z "},"$":{"ha":847,"x_min":101,"x_max":746,"o":"m 482 44 l 482 -61 l 386 -61 l 386 43 q 224 72 293 47 q 101 142 156 97 l 163 217 q 277 156 219 175 q 408 138 335 138 q 566 177 508 138 q 624 294 624 217 q 600 378 624 347 q 531 428 576 408 q 400 468 485 447 q 197 557 261 503 q 132 713 132 611 q 201 872 132 811 q 386 944 271 933 l 386 1044 l 482 1044 l 482 946 q 739 858 626 938 l 686 785 q 571 837 628 819 q 442 854 514 854 q 301 819 351 854 q 250 717 250 785 q 271 645 250 672 q 335 600 292 618 q 454 564 378 582 q 673 470 600 531 q 746 296 746 410 q 672 123 746 188 q 482 44 599 58 z "},"€":{"ha":847,"x_min":3,"x_max":836,"o":"m 836 110 q 700 13 779 49 q 529 -22 621 -22 q 257 79 360 -22 q 128 367 154 181 l 3 367 l 3 454 l 121 454 q 119 494 119 467 q 121 547 119 531 l 7 547 l 7 635 l 131 635 q 264 910 161 810 q 532 1010 367 1010 q 694 978 618 1010 q 826 889 771 946 l 764 810 q 658 880 717 856 q 535 904 599 904 q 345 832 417 904 q 250 635 274 760 l 675 635 l 675 547 l 239 547 q 238 494 238 531 q 239 454 238 467 l 617 454 l 617 367 l 247 367 q 339 159 268 232 q 533 86 410 86 q 660 115 599 86 q 768 190 721 143 l 836 110 z "},"ƒ":{"ha":847,"x_min":168,"x_max":697,"o":"m 454 765 l 454 707 l 632 707 l 632 619 l 454 619 l 454 -124 q 246 -358 454 -358 q 168 -347 206 -358 l 189 -260 q 231 -264 206 -264 q 313 -230 289 -264 q 336 -125 336 -196 l 336 619 l 213 619 l 213 707 l 336 707 l 336 768 q 396 941 336 881 q 574 1003 456 1001 q 697 985 642 1003 l 671 900 q 583 908 626 910 q 454 765 454 907 z "},"₺":{"ha":847,"x_min":61,"x_max":783,"o":"m 783 350 q 677 87 783 174 q 331 0 571 0 l 208 0 l 208 315 l 96 267 l 61 347 l 208 411 l 208 500 l 96 451 l 61 532 l 208 596 l 208 983 l 331 983 l 331 649 l 635 781 l 669 700 l 331 553 l 331 464 l 635 596 l 669 515 l 331 368 l 331 106 q 535 133 461 106 q 640 213 610 160 q 671 350 671 265 l 783 350 z "},"₽":{"ha":847,"x_min":65,"x_max":782,"o":"m 269 401 l 269 293 l 596 293 l 596 206 l 269 206 l 269 0 l 149 0 l 149 206 l 65 206 l 65 293 l 149 293 l 149 401 l 65 401 l 65 489 l 149 489 l 149 983 l 449 983 q 690 910 599 983 q 782 692 782 838 q 688 473 782 544 q 450 401 594 401 l 269 401 m 269 489 l 440 489 q 598 538 538 489 q 658 690 658 588 q 596 838 658 789 q 438 886 533 886 l 269 886 l 269 489 z "},"₹":{"ha":847,"x_min":79,"x_max":768,"o":"m 768 900 l 521 900 q 629 781 599 856 l 768 781 l 768 697 l 647 697 q 649 667 649 688 q 588 479 649 550 q 428 379 528 408 l 675 0 l 533 0 l 310 360 l 79 360 l 79 454 l 300 454 q 460 508 399 454 q 522 671 522 561 q 521 697 522 689 l 79 697 l 79 781 l 500 781 q 420 865 474 836 q 297 894 367 894 l 79 894 l 79 983 l 768 983 l 768 900 z "},"£":{"ha":847,"x_min":100,"x_max":746,"o":"m 247 107 l 726 107 l 726 0 l 101 0 l 101 97 q 234 202 189 144 q 279 339 279 260 q 261 450 279 396 l 100 450 l 100 543 l 221 543 q 183 642 196 597 q 169 740 169 686 q 247 932 169 858 q 464 1006 324 1006 q 746 885 635 1006 l 669 818 q 581 883 629 861 q 465 904 532 904 q 339 861 383 904 q 294 738 294 818 q 308 642 294 685 q 347 543 321 599 l 600 543 l 600 450 l 388 450 q 406 340 406 396 q 247 110 406 189 l 247 107 z "},"¥":{"ha":833,"x_min":33,"x_max":800,"o":"m 514 492 l 678 492 l 678 410 l 474 410 l 474 329 l 678 329 l 678 247 l 474 247 l 474 0 l 356 0 l 356 247 l 154 247 l 154 329 l 356 329 l 356 410 l 154 410 l 154 492 l 317 492 l 33 983 l 167 983 l 419 522 l 422 522 l 671 983 l 800 983 l 514 492 z "},"Ω":{"ha":1096,"x_min":68,"x_max":1028,"o":"m 1028 103 l 1028 0 l 646 0 l 646 101 l 644 103 q 834 243 767 140 q 901 492 901 346 q 809 788 901 676 q 547 900 717 900 q 286 789 378 900 q 194 492 194 678 q 261 243 194 346 q 450 103 328 140 l 450 0 l 68 0 l 68 103 l 272 103 q 123 260 178 161 q 68 497 68 360 q 126 763 68 647 q 292 942 183 878 q 547 1007 400 1007 q 803 942 694 1007 q 969 763 911 878 q 1026 497 1026 647 q 972 260 1026 360 q 824 103 918 161 l 1028 103 z "},"≈":{"ha":847,"x_min":135,"x_max":728,"o":"m 135 472 q 315 593 206 593 q 381 582 351 593 q 447 550 410 571 q 501 523 478 532 q 549 514 524 514 q 608 531 581 514 q 672 592 636 549 l 728 556 q 549 435 660 435 q 483 446 513 435 q 417 478 454 457 q 360 506 381 497 q 315 514 340 514 q 254 497 283 514 q 189 436 225 479 l 135 472 m 135 236 q 315 357 206 357 q 381 346 351 357 q 447 314 410 335 q 501 287 478 296 q 549 278 524 278 q 608 295 581 278 q 672 356 636 313 l 728 319 q 549 199 660 199 q 483 210 513 199 q 417 242 454 221 q 360 269 381 261 q 315 278 340 278 q 254 260 283 278 q 189 200 225 243 l 135 236 z "},"~":{"ha":847,"x_min":128,"x_max":721,"o":"m 128 354 q 308 475 199 475 q 374 464 344 475 q 440 432 403 453 q 494 405 471 414 q 542 396 517 396 q 601 413 574 396 q 665 474 629 431 l 721 438 q 542 317 653 317 q 476 328 506 317 q 410 360 447 339 q 353 388 374 379 q 308 396 333 396 q 247 378 276 396 q 182 318 218 361 l 128 354 z "},"∙":{"ha":847,"x_min":347,"x_max":501,"o":"m 347 469 q 425 547 347 547 q 501 469 501 547 q 483 414 501 435 q 425 393 465 393 q 365 414 383 393 q 347 469 347 435 z "},"÷":{"ha":847,"x_min":146,"x_max":701,"o":"m 701 356 l 146 356 l 146 451 l 701 451 l 701 356 m 350 106 q 425 181 350 181 q 499 106 499 181 q 481 52 499 72 q 425 32 464 32 q 367 52 385 32 q 350 106 350 72 m 350 690 q 425 765 350 765 q 499 690 499 765 q 481 637 499 657 q 425 617 464 617 q 367 637 385 617 q 350 690 350 657 z "},"∕":{"ha":299,"x_min":-182,"x_max":508,"o":"m 508 985 l -72 0 l -182 0 l 399 985 l 508 985 z "},"=":{"ha":847,"x_min":146,"x_max":701,"o":"m 701 217 l 146 217 l 146 313 l 701 313 l 701 217 m 701 494 l 146 494 l 146 590 l 701 590 l 701 494 z "},"₌":{"ha":750,"x_min":167,"x_max":583,"o":"m 583 272 l 167 272 l 167 360 l 583 360 l 583 272 m 583 56 l 167 56 l 167 143 l 583 143 l 583 56 z "},"⁼":{"ha":750,"x_min":167,"x_max":583,"o":"m 583 746 l 167 746 l 167 833 l 583 833 l 583 746 m 583 529 l 167 529 l 167 617 l 583 617 l 583 529 z "},">":{"ha":847,"x_min":154,"x_max":693,"o":"m 693 438 l 693 349 l 204 57 l 156 132 l 582 394 l 154 657 l 203 732 l 693 438 z "},"≥":{"ha":847,"x_min":146,"x_max":701,"o":"m 701 4 l 146 4 l 146 100 l 701 100 l 701 4 m 693 553 l 693 464 l 204 172 l 156 247 l 582 510 l 154 772 l 203 847 l 693 553 z "},"∆":{"ha":917,"x_min":6,"x_max":910,"o":"m 910 0 l 6 0 l 394 983 l 524 983 l 910 0 m 740 97 l 457 867 l 171 97 l 740 97 z "},"∞":{"ha":1250,"x_min":94,"x_max":1156,"o":"m 1156 442 q 1088 242 1156 321 q 893 164 1019 164 q 745 207 807 164 q 628 344 683 250 q 513 208 578 253 q 356 164 447 164 q 162 242 229 164 q 94 442 94 321 q 125 582 94 519 q 215 681 156 644 q 357 718 274 718 q 506 674 444 718 q 624 532 568 629 q 738 672 675 626 q 894 718 800 718 q 1088 640 1019 718 q 1156 442 1156 561 m 581 444 q 493 578 543 528 q 367 628 443 628 q 247 580 292 628 q 203 442 203 532 q 247 304 203 353 q 367 256 292 256 q 488 300 442 256 q 581 444 533 344 m 1046 442 q 1002 581 1046 533 q 883 628 958 628 q 795 606 831 628 q 732 544 760 585 q 669 431 704 504 q 757 301 707 349 q 883 254 807 254 q 1002 301 958 254 q 1046 442 1046 349 z "},"∫":{"ha":847,"x_min":196,"x_max":650,"o":"m 650 996 l 629 908 q 588 913 613 913 q 506 878 529 913 q 482 774 482 844 l 482 -124 q 274 -358 482 -358 q 196 -347 233 -358 l 217 -260 q 258 -264 233 -264 q 340 -230 317 -264 q 364 -125 364 -196 l 364 771 q 574 1007 364 1007 q 650 996 613 1007 z "},"<":{"ha":847,"x_min":154,"x_max":693,"o":"m 644 732 l 693 657 l 265 394 l 692 132 l 643 57 l 154 349 l 154 438 l 644 732 z "},"≤":{"ha":847,"x_min":146,"x_max":701,"o":"m 643 172 l 154 464 l 154 553 l 644 847 l 693 772 l 265 510 l 692 247 l 643 172 m 701 100 l 701 4 l 146 4 l 146 100 l 701 100 z "},"¬":{"ha":847,"x_min":146,"x_max":701,"o":"m 592 429 l 146 429 l 146 524 l 701 524 l 701 239 l 592 239 l 592 429 z "},"µ":{"ha":847,"x_min":101,"x_max":746,"o":"m 111 -182 l 111 707 l 231 707 l 231 293 q 273 135 231 194 q 404 76 315 76 q 560 149 501 76 q 618 332 618 222 l 618 707 l 736 707 l 736 157 q 746 0 736 81 l 633 0 q 624 113 626 44 l 621 113 q 527 16 585 51 q 396 -19 469 -19 q 226 69 281 -19 l 224 69 l 224 -187 q 211 -339 224 -271 l 101 -339 q 111 -182 111 -258 z "},"−":{"ha":847,"x_min":146,"x_max":701,"o":"m 701 356 l 146 356 l 146 451 l 701 451 l 701 356 z "},"₋":{"ha":750,"x_min":167,"x_max":583,"o":"m 583 156 l 167 156 l 167 244 l 583 244 l 583 156 z "},"⁻":{"ha":750,"x_min":167,"x_max":583,"o":"m 583 629 l 167 629 l 167 718 l 583 718 l 583 629 z "},"×":{"ha":847,"x_min":193,"x_max":654,"o":"m 490 397 l 653 235 l 586 168 l 424 331 l 261 168 l 193 235 l 356 397 l 193 560 l 260 628 l 424 465 l 586 628 l 654 561 l 490 397 z "},"≠":{"ha":847,"x_min":144,"x_max":707,"o":"m 539 494 l 424 313 l 707 313 l 707 217 l 364 217 l 222 -7 l 144 38 l 258 217 l 151 217 l 151 313 l 318 313 l 433 494 l 151 494 l 151 590 l 494 590 l 622 793 l 700 749 l 600 590 l 707 590 l 707 494 l 539 494 z "},"∂":{"ha":847,"x_min":61,"x_max":786,"o":"m 786 443 q 695 106 786 232 q 422 -19 604 -19 q 156 78 250 -19 q 61 339 61 176 q 103 524 61 447 q 222 642 146 601 q 400 683 299 683 q 656 569 550 683 q 524 824 631 729 q 254 915 418 918 l 265 1007 q 534 938 415 1007 q 719 740 653 868 q 786 443 786 613 m 661 429 l 661 450 q 549 553 608 518 q 408 589 489 589 q 243 525 301 589 q 185 335 185 461 q 244 149 185 215 q 421 82 304 82 q 606 174 550 82 q 661 429 661 265 z "},"%":{"ha":1694,"x_min":122,"x_max":1572,"o":"m 122 708 q 158 856 122 789 q 260 962 193 922 q 419 1001 328 1001 q 576 962 508 1001 q 678 856 643 922 q 714 708 714 789 q 678 559 714 626 q 576 453 643 492 q 419 414 510 414 q 260 453 328 414 q 158 559 193 492 q 122 708 122 626 m 1189 985 l 608 0 l 499 0 l 1079 985 l 1189 985 m 599 708 q 553 847 599 790 q 421 904 507 904 q 285 848 332 904 q 239 708 239 792 q 285 567 239 624 q 421 511 331 511 q 553 567 508 511 q 599 708 599 624 m 981 279 q 1016 426 981 360 q 1119 533 1051 493 q 1278 572 1186 572 q 1434 533 1367 572 q 1537 426 1501 493 q 1572 279 1572 360 q 1537 130 1572 197 q 1435 24 1501 63 q 1278 -15 1368 -15 q 1119 24 1186 -15 q 1016 130 1051 63 q 981 279 981 197 m 1457 279 q 1411 418 1457 361 q 1279 475 1365 475 q 1144 419 1190 475 q 1097 279 1097 363 q 1143 138 1097 194 q 1279 82 1189 82 q 1412 138 1367 82 q 1457 279 1457 194 z "},"‰":{"ha":2542,"x_min":213,"x_max":2331,"o":"m 213 708 q 248 856 213 789 q 351 962 283 922 q 510 1001 418 1001 q 666 962 599 1001 q 769 856 733 922 q 804 708 804 789 q 769 559 804 626 q 667 453 733 492 q 510 414 600 414 q 351 453 418 414 q 248 559 283 492 q 213 708 213 626 m 1279 985 l 699 0 l 589 0 l 1169 985 l 1279 985 m 689 708 q 643 847 689 790 q 511 904 597 904 q 376 848 422 904 q 329 708 329 792 q 375 567 329 624 q 511 511 421 511 q 644 567 599 511 q 689 708 689 624 m 1071 279 q 1106 426 1071 360 q 1209 533 1142 493 q 1368 572 1276 572 q 1524 533 1457 572 q 1627 426 1592 493 q 1663 279 1663 360 q 1627 130 1663 197 q 1525 24 1592 63 q 1368 -15 1458 -15 q 1209 24 1276 -15 q 1106 130 1142 63 q 1071 279 1071 197 m 1739 279 q 1774 426 1739 360 q 1877 533 1810 493 q 2036 572 1944 572 q 2192 533 2125 572 q 2295 426 2260 493 q 2331 279 2331 360 q 2295 130 2331 197 q 2193 24 2260 63 q 2036 -15 2126 -15 q 1877 24 1944 -15 q 1774 130 1810 63 q 1739 279 1739 197 m 1547 279 q 1501 418 1547 361 q 1369 475 1456 475 q 1234 419 1281 475 q 1188 279 1188 363 q 1233 138 1188 194 q 1369 82 1279 82 q 1502 138 1457 82 q 1547 279 1547 194 m 2215 279 q 2169 418 2215 361 q 2038 475 2124 475 q 1902 419 1949 475 q 1856 279 1856 363 q 1901 138 1856 194 q 2038 82 1947 82 q 2170 138 2125 82 q 2215 279 2215 194 z "},"+":{"ha":847,"x_min":146,"x_max":701,"o":"m 701 351 l 475 351 l 475 121 l 372 121 l 372 351 l 146 351 l 146 447 l 372 447 l 372 676 l 475 676 l 475 447 l 701 447 l 701 351 z "},"₊":{"ha":750,"x_min":167,"x_max":583,"o":"m 583 156 l 422 156 l 422 -4 l 328 -4 l 328 156 l 167 156 l 167 244 l 328 244 l 328 403 l 422 403 l 422 244 l 583 244 l 583 156 z "},"±":{"ha":847,"x_min":146,"x_max":701,"o":"m 701 572 l 701 476 l 475 476 l 475 246 l 372 246 l 372 476 l 146 476 l 146 572 l 372 572 l 372 801 l 475 801 l 475 572 l 701 572 m 146 100 l 701 100 l 701 4 l 146 4 l 146 100 z "},"⁺":{"ha":750,"x_min":167,"x_max":583,"o":"m 583 629 l 422 629 l 422 469 l 328 469 l 328 629 l 167 629 l 167 718 l 328 718 l 328 876 l 422 876 l 422 718 l 583 718 l 583 629 z "},"∏":{"ha":957,"x_min":46,"x_max":911,"o":"m 911 888 l 779 888 l 779 -167 l 663 -167 l 663 888 l 294 888 l 294 -167 l 178 -167 l 178 888 l 46 888 l 46 983 l 911 983 l 911 888 z "},"√":{"ha":847,"x_min":53,"x_max":793,"o":"m 496 -167 l 344 -167 l 160 325 l 53 325 l 53 424 l 247 424 l 417 -39 l 676 983 l 793 983 l 496 -167 z "},"∑":{"ha":847,"x_min":71,"x_max":776,"o":"m 776 -64 l 776 -167 l 71 -167 l 71 -62 l 396 417 l 85 882 l 85 983 l 760 983 l 760 885 l 228 885 l 521 439 l 521 397 l 201 -64 l 776 -64 z "},"◊":{"ha":847,"x_min":81,"x_max":767,"o":"m 767 492 l 481 0 l 364 0 l 81 492 l 364 983 l 481 983 l 767 492 m 651 492 l 421 894 l 196 492 l 421 89 l 651 492 z "},"|":{"ha":486,"x_min":189,"x_max":297,"o":"m 297 1122 l 297 -139 l 189 -139 l 189 1122 l 297 1122 z "},"¦":{"ha":486,"x_min":189,"x_max":297,"o":"m 297 1122 l 297 593 l 189 593 l 189 1122 l 297 1122 m 297 390 l 297 -139 l 189 -139 l 189 390 l 297 390 z "},"@":{"ha":1333,"x_min":122,"x_max":1213,"o":"m 122 399 q 191 672 122 547 q 387 871 260 797 q 682 944 514 944 q 974 885 854 944 q 1153 722 1093 826 q 1213 485 1213 618 q 1150 217 1213 311 q 986 124 1088 124 q 868 165 911 124 q 817 264 825 206 q 728 163 785 201 q 590 125 672 125 q 439 188 494 125 q 383 356 383 251 q 419 530 383 451 q 529 655 456 608 q 708 701 603 701 q 833 682 774 701 q 933 633 892 663 l 890 349 q 888 311 888 321 q 914 229 888 257 q 983 201 940 201 q 1076 268 1042 201 q 1110 483 1110 335 q 1006 756 1110 654 q 681 857 901 857 q 429 796 532 857 q 276 631 326 735 q 225 400 225 528 q 343 70 225 188 q 681 -47 461 -47 q 829 -35 760 -47 q 949 -3 899 -22 l 976 -82 q 676 -135 838 -135 q 382 -70 507 -135 q 190 115 257 -6 q 122 399 122 235 m 797 408 l 826 592 q 701 622 765 622 q 541 544 594 622 q 488 354 488 467 q 520 244 488 282 q 613 207 553 207 q 735 266 686 207 q 797 408 783 325 z "},"&":{"ha":929,"x_min":68,"x_max":911,"o":"m 839 -19 l 711 104 q 576 12 651 43 q 399 -19 501 -19 q 225 16 300 -19 q 109 114 150 51 q 68 258 68 176 q 115 417 68 350 q 264 536 161 483 q 169 653 199 601 q 140 781 140 704 q 214 944 140 882 q 401 1007 288 1007 q 541 978 482 1007 q 631 900 600 950 q 661 789 661 850 q 604 635 661 697 q 432 519 547 574 l 699 263 q 771 476 750 361 l 869 458 q 775 189 851 317 l 911 58 l 839 -19 m 263 782 q 284 683 263 725 q 363 586 306 642 q 502 677 463 635 q 542 785 542 719 q 505 878 542 842 q 403 914 468 914 q 300 878 338 914 q 263 782 263 842 m 638 175 l 335 467 q 225 376 256 421 q 194 261 194 332 q 249 133 194 181 q 399 86 304 86 q 638 175 551 86 z "},"¶":{"ha":888,"x_min":43,"x_max":763,"o":"m 506 -181 l 389 -181 l 389 460 l 338 460 q 123 528 203 460 q 43 721 43 596 q 124 915 43 847 q 347 983 206 983 l 506 983 l 506 -181 m 763 983 l 763 -181 l 646 -181 l 646 983 l 763 983 m 389 556 l 389 888 l 338 888 q 200 847 249 888 q 151 721 151 807 q 200 596 151 636 q 338 556 249 556 l 389 556 z "},"©":{"ha":1303,"x_min":124,"x_max":1178,"o":"m 124 492 q 185 757 124 640 q 366 940 247 874 q 651 1007 485 1007 q 936 940 817 1007 q 1117 757 1056 874 q 1178 492 1178 640 q 1117 226 1178 343 q 936 43 1056 110 q 651 -24 817 -24 q 366 43 485 -24 q 185 226 247 110 q 124 492 124 343 m 1089 492 q 1041 716 1089 618 q 896 870 993 814 q 653 926 799 926 q 408 870 507 926 q 263 716 310 814 q 215 492 215 618 q 263 267 215 365 q 408 113 310 169 q 653 57 507 57 q 896 113 799 57 q 1041 267 993 169 q 1089 492 1089 365 m 665 790 q 857 731 776 790 l 819 665 q 667 713 751 713 q 526 654 574 713 q 478 496 478 596 q 525 338 478 397 q 664 278 572 278 q 819 325 742 278 l 854 260 q 658 199 768 199 q 448 285 515 199 q 381 496 381 372 q 456 710 381 631 q 665 790 532 790 z "},"®":{"ha":479,"x_min":65,"x_max":414,"o":"m 240 1003 q 368 956 322 1003 q 414 833 414 908 q 367 712 414 760 q 240 664 321 664 q 112 712 158 664 q 65 833 65 760 q 112 956 65 908 q 240 1003 158 1003 m 240 699 q 341 735 307 699 q 375 833 375 772 q 341 931 375 894 q 240 968 307 968 q 138 931 172 968 q 104 833 104 894 q 138 735 104 772 q 240 699 172 699 m 315 869 q 278 814 315 828 l 322 744 l 278 744 l 238 808 l 214 808 l 214 744 l 174 744 l 174 931 l 243 931 q 296 915 276 931 q 315 869 315 900 m 214 838 l 238 838 q 278 869 278 838 q 267 892 278 885 q 238 900 256 900 l 214 900 l 214 838 z "},"℗":{"ha":1303,"x_min":124,"x_max":1178,"o":"m 124 492 q 185 757 124 640 q 366 940 247 874 q 651 1007 485 1007 q 936 940 817 1007 q 1117 757 1056 874 q 1178 492 1178 640 q 1117 226 1178 343 q 936 43 1056 110 q 651 -24 817 -24 q 366 43 485 -24 q 185 226 247 110 q 124 492 124 343 m 1089 492 q 1041 716 1089 618 q 896 870 993 814 q 653 926 799 926 q 408 870 507 926 q 263 716 310 814 q 215 492 215 618 q 263 267 215 365 q 408 113 310 169 q 653 57 507 57 q 896 113 799 57 q 1041 267 993 169 q 1089 492 1089 365 m 903 590 q 838 444 903 496 q 675 392 774 392 l 550 392 l 550 206 l 458 206 l 458 782 l 674 782 q 841 735 779 782 q 903 590 903 689 m 550 706 l 550 468 l 674 468 q 773 497 736 468 q 810 590 810 526 q 772 679 810 653 q 672 706 733 706 l 550 706 z "},"§":{"ha":847,"x_min":157,"x_max":690,"o":"m 690 181 q 614 31 690 82 q 417 -19 538 -19 q 157 63 263 -19 l 211 136 q 307 89 260 104 q 417 74 354 74 q 529 99 489 74 q 569 172 569 125 q 554 221 569 201 q 502 257 539 240 q 394 294 465 274 q 228 370 278 328 q 179 489 179 413 q 217 590 179 546 q 318 657 254 633 q 224 725 254 685 q 193 821 193 765 q 260 956 193 906 q 436 1007 328 1007 q 568 989 508 1007 q 681 932 628 971 l 628 858 q 440 915 543 915 q 347 892 382 915 q 311 826 311 868 q 346 760 311 786 q 475 707 381 735 q 642 626 594 669 q 690 506 690 583 q 563 343 690 396 q 659 278 628 317 q 690 181 690 239 m 463 374 q 546 426 519 396 q 572 499 572 457 q 558 553 572 532 q 513 590 544 574 q 418 624 481 606 q 294 499 294 586 q 310 444 294 465 q 360 408 325 424 q 463 374 396 392 z "},"™":{"ha":794,"x_min":42,"x_max":713,"o":"m 139 928 l 42 928 l 42 983 l 306 983 l 306 928 l 207 928 l 207 683 l 139 683 l 139 928 m 338 983 l 440 983 l 525 768 l 528 768 l 614 983 l 713 983 l 713 683 l 643 683 l 646 913 l 643 913 l 550 683 l 496 683 l 403 913 l 401 913 l 403 683 l 338 683 l 338 983 z "},"°":{"ha":504,"x_min":61,"x_max":443,"o":"m 61 826 q 113 960 61 913 q 253 1007 164 1007 q 392 959 340 1007 q 443 826 443 911 q 392 692 443 742 q 253 643 340 643 q 113 692 165 643 q 61 826 61 742 m 356 826 q 328 909 356 882 q 251 936 301 936 q 174 909 201 936 q 147 826 147 882 q 175 742 147 769 q 251 715 203 715 q 328 742 300 715 q 356 826 356 769 z "},"℮":{"ha":1253,"x_min":97,"x_max":1156,"o":"m 292 451 l 292 207 q 301 168 292 179 q 437 66 354 101 q 624 31 519 31 q 811 69 729 31 q 969 181 893 108 l 1063 181 q 883 40 981 83 q 628 -4 786 -4 q 344 59 465 -4 q 160 228 224 122 q 97 461 97 335 q 162 700 97 588 q 347 881 226 813 q 625 949 467 949 q 935 877 817 949 q 1105 694 1054 806 q 1156 458 1156 583 l 299 458 q 292 451 292 458 m 947 778 q 798 884 888 853 q 621 915 708 915 q 454 882 538 915 q 304 781 371 849 q 292 744 292 768 l 292 493 q 299 486 292 486 l 954 486 q 961 493 961 486 l 961 743 q 947 778 961 761 z "},"ℓ":{"ha":579,"x_min":32,"x_max":519,"o":"m 431 86 l 449 -1 q 339 -19 401 -19 q 192 33 246 -19 q 139 181 139 85 l 139 319 l 61 258 l 32 314 q 139 396 117 376 l 139 788 q 199 950 139 893 q 344 1007 258 1007 q 474 959 428 1007 q 519 833 519 911 q 456 617 519 718 q 257 403 392 517 l 257 190 q 361 76 257 76 q 431 86 399 76 m 257 497 q 386 663 346 585 q 426 833 426 742 q 406 910 426 883 q 349 936 386 936 q 281 904 306 936 q 257 807 257 872 l 257 497 z "},"^":{"ha":847,"x_min":158,"x_max":689,"o":"m 689 713 l 631 667 l 424 906 l 215 667 l 158 713 l 376 983 l 471 983 l 689 713 z "},"†":{"ha":797,"x_min":101,"x_max":694,"o":"m 694 654 l 457 654 l 457 0 l 339 0 l 339 654 l 101 654 l 101 750 l 339 750 l 339 983 l 457 983 l 457 750 l 694 750 l 694 654 z "},"‡":{"ha":797,"x_min":101,"x_max":694,"o":"m 457 654 l 457 442 l 694 442 l 694 346 l 457 346 l 457 0 l 339 0 l 339 346 l 101 346 l 101 442 l 339 442 l 339 654 l 101 654 l 101 750 l 339 750 l 339 983 l 457 983 l 457 750 l 694 750 l 694 654 l 457 654 z "},"℠":{"ha":1382,"x_min":46,"x_max":1293,"o":"m 522 932 l 475 857 q 308 907 400 907 q 218 888 247 907 q 189 835 189 868 q 201 792 189 808 q 245 764 213 776 q 342 738 278 751 q 485 674 440 717 q 531 565 531 632 q 461 426 531 475 q 281 376 392 376 q 46 446 144 376 l 93 521 q 177 481 136 493 q 272 468 218 468 q 374 490 336 468 q 411 551 411 511 q 399 597 411 581 q 358 625 388 614 q 265 651 328 636 q 120 716 164 674 q 76 826 76 758 q 135 952 76 907 q 303 997 194 997 q 422 981 364 997 q 522 932 479 965 m 622 983 l 789 983 l 954 536 l 957 536 l 1125 983 l 1293 983 l 1293 393 l 1181 393 l 1185 860 l 1183 860 l 999 393 l 908 393 l 726 860 l 725 860 l 728 393 l 622 393 l 622 983 z "},"´":{"ha":365,"x_min":42,"x_max":324,"o":"m 88 800 l 42 864 l 265 1046 l 324 960 l 88 800 z "},"˘":{"ha":494,"x_min":42,"x_max":453,"o":"m 453 996 q 387 853 439 901 q 247 804 335 804 q 108 853 160 804 q 42 996 56 901 l 114 1004 q 247 889 142 889 q 381 1004 353 889 l 453 996 z "},"ˇ":{"ha":529,"x_min":42,"x_max":488,"o":"m 488 978 l 311 808 l 217 808 l 42 978 l 89 1031 l 264 886 l 439 1029 l 488 978 z "},"¸":{"ha":394,"x_min":42,"x_max":353,"o":"m 353 -197 q 305 -299 353 -265 q 185 -333 257 -333 q 42 -300 101 -333 l 71 -236 q 181 -261 121 -261 q 242 -245 221 -261 q 264 -199 264 -229 q 203 -146 264 -146 q 149 -153 176 -146 l 93 -153 l 153 0 l 231 0 l 199 -89 q 238 -86 213 -86 q 320 -115 288 -86 q 353 -197 353 -144 z "},"ˆ":{"ha":528,"x_min":42,"x_max":486,"o":"m 486 851 l 439 803 l 264 944 l 89 800 l 42 851 l 217 1022 l 311 1022 l 486 851 z "},"¨":{"ha":482,"x_min":42,"x_max":439,"o":"m 42 915 q 58 967 42 947 q 113 986 75 986 q 182 915 182 986 q 113 846 182 846 q 58 865 75 846 q 42 915 42 885 m 299 915 q 369 986 299 986 q 422 967 406 986 q 439 915 439 947 q 422 865 439 885 q 369 846 406 846 q 299 915 299 846 z "},"˙":{"ha":238,"x_min":42,"x_max":196,"o":"m 42 949 q 119 1024 42 1024 q 196 949 196 1024 q 178 897 196 917 q 119 876 160 876 q 60 897 78 876 q 42 949 42 917 z "},"`":{"ha":365,"x_min":42,"x_max":324,"o":"m 100 1046 l 324 864 l 276 800 l 42 960 l 100 1046 z "},"˝":{"ha":464,"x_min":42,"x_max":422,"o":"m 99 797 l 42 826 l 163 1056 l 240 1013 l 99 797 m 269 789 l 214 824 l 349 1044 l 422 994 l 269 789 z "},"¯":{"ha":465,"x_min":42,"x_max":424,"o":"m 424 849 l 42 849 l 42 931 l 424 931 l 424 849 z "},"˛":{"ha":361,"x_min":42,"x_max":319,"o":"m 131 -185 q 151 -235 131 -218 q 204 -253 171 -253 q 294 -229 247 -253 l 319 -296 q 192 -331 263 -331 q 84 -297 126 -331 q 42 -200 42 -262 q 82 -86 42 -140 q 193 11 122 -32 l 274 0 q 165 -95 200 -51 q 131 -185 131 -139 z "},"˚":{"ha":390,"x_min":42,"x_max":350,"o":"m 350 943 q 308 840 350 881 q 196 800 267 800 q 83 840 125 800 q 42 943 42 881 q 84 1048 42 1008 q 196 1088 126 1088 q 308 1048 265 1088 q 350 943 350 1008 m 269 943 q 251 1002 269 982 q 196 1022 232 1022 q 140 1002 160 1022 q 121 943 121 982 q 141 885 121 906 q 196 865 161 865 q 249 885 229 865 q 269 943 269 906 z "},"˜":{"ha":518,"x_min":42,"x_max":476,"o":"m 42 849 q 182 965 93 965 q 226 956 206 965 q 272 928 247 946 q 290 917 276 925 q 314 904 303 908 q 335 900 325 900 q 377 915 358 900 q 415 963 396 929 l 476 936 q 418 849 453 878 q 336 821 383 821 q 292 831 313 821 q 247 857 271 840 q 213 878 226 871 q 183 885 199 885 q 141 870 160 885 q 103 824 122 856 l 42 849 z "},"̦":{"ha":0,"x_min":-192,"x_max":-40,"o":"m -192 -346 q -140 -207 -144 -272 q -181 -150 -181 -197 q -111 -87 -181 -87 q -40 -154 -40 -87 q -63 -252 -40 -200 q -140 -371 -86 -304 l -192 -346 z "},"̒":{"ha":0,"x_min":-199,"x_max":-47,"o":"m -47 1113 q -99 974 -94 1039 q -58 917 -58 964 q -128 854 -58 854 q -199 921 -199 854 q -176 1019 -199 967 q -99 1138 -153 1071 l -47 1113 z "},"ˉ":{"ha":465,"x_min":42,"x_max":424,"o":"m 424 849 l 42 849 l 42 931 l 424 931 l 424 849 z "}}}
